<?xml version="1.0" encoding="UTF-8"?>
<svg xmlns="http://www.w3.org/2000/svg" width="376" height="130" viewBox="0 0 376 130" fill="none">
  <path d="M130 65C130 100.899 100.899 130 65 130C29.1015 130 0 100.899 0 65C0 29.1015 29.1015 0 65 0C100.899 0 130 29.1015 130 65Z" fill="#151515"></path>
  <path d="M178.27 68.19C180.763 68.19 183.073 67.86 185.2 67.2C187.4 66.4667 189.307 65.4033 190.92 64.01C192.533 62.5433 193.817 60.7467 194.77 58.62C195.723 56.42 196.273 53.8533 196.42 50.92H196.97L195.54 86.45H194.88C194.953 83.81 194.587 81.4267 193.78 79.3C193.047 77.1 191.947 75.23 190.48 73.69C189.013 72.15 187.217 70.9767 185.09 70.17C183.037 69.3633 180.763 68.96 178.27 68.96V88.21C178.27 91.8767 178.343 94.9567 178.49 97.45C178.637 99.87 179.113 101.813 179.92 103.28C180.727 104.673 181.937 105.663 183.55 106.25C185.237 106.837 187.62 107.13 190.7 107.13V107.9H150V107.13C152.42 107.13 154.29 106.763 155.61 106.03C156.93 105.223 157.883 104.05 158.47 102.51C159.057 100.897 159.387 98.9167 159.46 96.57C159.607 94.15 159.68 91.3267 159.68 88.1V50.7C159.68 47.4 159.607 44.54 159.46 42.12C159.387 39.7 159.057 37.72 158.47 36.18C157.883 34.64 156.93 33.5033 155.61 32.77C154.29 32.0367 152.42 31.67 150 31.67V30.9H207.31L209.51 57.41H208.63C208.263 53.23 207.567 49.5633 206.54 46.41C205.513 43.2567 204.083 40.6167 202.25 38.49C200.49 36.29 198.217 34.64 195.43 33.54C192.717 32.44 189.417 31.89 185.53 31.89H178.27V68.19Z" fill="#151515"></path>
  <path d="M216.196 107.13C217.956 107.13 219.349 106.947 220.376 106.58C221.403 106.213 222.173 105.553 222.686 104.6C223.273 103.573 223.639 102.143 223.786 100.31C223.933 98.4767 224.006 96.0933 224.006 93.16V38.38C224.006 36.5467 223.896 35.0067 223.676 33.76C223.456 32.44 223.016 31.45 222.356 30.79C221.769 30.0567 220.889 29.6533 219.716 29.58C218.543 29.5067 217.003 29.7267 215.096 30.24L214.986 29.47L240.726 21V93.16C240.726 96.0933 240.799 98.4767 240.946 100.31C241.093 102.143 241.423 103.573 241.936 104.6C242.523 105.553 243.329 106.213 244.356 106.58C245.383 106.947 246.776 107.13 248.536 107.13V107.9H216.196V107.13Z" fill="#151515"></path>
  <path d="M274.242 72.7C274.242 75.56 274.572 78.3833 275.232 81.17C275.892 83.8833 276.882 86.34 278.202 88.54C279.595 90.6667 281.318 92.39 283.372 93.71C285.498 94.9567 288.028 95.58 290.962 95.58C294.555 95.58 297.562 94.6267 299.982 92.72C302.475 90.8133 304.528 88.2467 306.142 85.02L306.692 85.35C305.592 88.65 304.272 91.73 302.732 94.59C301.192 97.3767 299.358 99.8333 297.232 101.96C295.178 104.013 292.832 105.663 290.192 106.91C287.552 108.083 284.618 108.67 281.392 108.67C277.725 108.67 274.388 107.937 271.382 106.47C268.448 105.003 265.918 102.95 263.792 100.31C261.738 97.67 260.125 94.5167 258.952 90.85C257.852 87.1833 257.302 83.15 257.302 78.75C257.302 74.35 257.998 70.3533 259.392 66.76C260.858 63.1667 262.838 60.0867 265.332 57.52C267.825 54.88 270.722 52.8633 274.022 51.47C277.322 50.0767 280.805 49.38 284.472 49.38C288.212 49.38 291.475 49.9667 294.262 51.14C297.122 52.24 299.432 53.8167 301.192 55.87C303.025 57.85 304.235 60.27 304.822 63.13C305.482 65.99 305.445 69.18 304.712 72.7H274.242ZM288.762 71.6C289.128 69.9133 289.348 67.86 289.422 65.44C289.568 62.9467 289.458 60.6 289.092 58.4C288.798 56.1267 288.175 54.22 287.222 52.68C286.268 51.0667 284.875 50.26 283.042 50.26C281.428 50.26 280.072 51.03 278.972 52.57C277.872 54.0367 276.955 55.87 276.222 58.07C275.562 60.27 275.048 62.6167 274.682 65.11C274.388 67.53 274.242 69.6933 274.242 71.6H288.762Z" fill="#151515"></path>
  <path d="M335.891 82.93C335.378 83.81 334.718 85.02 333.911 86.56C333.105 88.1 332.335 89.7867 331.601 91.62C330.868 93.38 330.245 95.1767 329.731 97.01C329.218 98.8433 328.925 100.53 328.851 102.07C328.851 103.537 329.181 104.747 329.841 105.7C330.501 106.653 331.675 107.13 333.361 107.13V107.9H308.941V107.13C311.581 107.13 314.111 106.287 316.531 104.6C318.951 102.84 321.261 100.677 323.461 98.11C325.735 95.5433 327.861 92.83 329.841 89.97C331.821 87.0367 333.655 84.3967 335.341 82.05L323.901 62.03C322.801 60.05 321.738 58.3633 320.711 56.97C319.758 55.5767 318.768 54.44 317.741 53.56C316.788 52.68 315.761 52.02 314.661 51.58C313.635 51.14 312.425 50.92 311.031 50.92V50.15H342.601V50.92C341.281 50.92 340.475 51.3233 340.181 52.13C339.888 52.9367 339.851 53.89 340.071 54.99C340.365 56.09 340.768 57.2267 341.281 58.4C341.868 59.5 342.345 60.38 342.711 61.04L347.551 69.51C348.505 68.3367 349.531 66.7233 350.631 64.67C351.805 62.5433 352.648 60.4533 353.161 58.4C353.748 56.3467 353.821 54.5867 353.381 53.12C353.015 51.6533 351.805 50.92 349.751 50.92V50.15H370.101V50.92C367.975 50.92 365.921 51.58 363.941 52.9C361.961 54.1467 360.055 55.76 358.221 57.74C356.388 59.72 354.628 61.8467 352.941 64.12C351.255 66.3933 349.641 68.52 348.101 70.5L362.511 95.25C363.905 97.7433 365.115 99.76 366.141 101.3C367.241 102.84 368.268 104.05 369.221 104.93C370.175 105.81 371.091 106.397 371.971 106.69C372.925 106.983 373.988 107.13 375.161 107.13V107.9H340.841V107.13C343.041 107.13 344.435 106.617 345.021 105.59C345.608 104.49 345.718 103.133 345.351 101.52C345.058 99.9067 344.435 98.22 343.481 96.46C342.528 94.6267 341.648 92.9767 340.841 91.51L335.891 82.93Z" fill="#151515"></path>
</svg>
