<?xml version="1.0" encoding="UTF-8"?>
<svg xmlns="http://www.w3.org/2000/svg" xmlns:xlink="http://www.w3.org/1999/xlink" id="visual" viewBox="0 0 900 450" width="900" height="450" version="1.1">
  <rect x="0" y="0" width="900" height="450" fill="#151515"></rect>
  <defs>
    <linearGradient id="grad1_0" x1="50%" y1="0%" x2="100%" y2="100%">
      <stop offset="10%" stop-color="#feef7c" stop-opacity="1"></stop>
      <stop offset="90%" stop-color="#feef7c" stop-opacity="1"></stop>
    </linearGradient>
  </defs>
  <defs>
    <linearGradient id="grad1_1" x1="50%" y1="0%" x2="100%" y2="100%">
      <stop offset="10%" stop-color="#feef7c" stop-opacity="1"></stop>
      <stop offset="90%" stop-color="#d2c66a" stop-opacity="1"></stop>
    </linearGradient>
  </defs>
  <defs>
    <linearGradient id="grad1_2" x1="50%" y1="0%" x2="100%" y2="100%">
      <stop offset="10%" stop-color="#a89e58" stop-opacity="1"></stop>
      <stop offset="90%" stop-color="#d2c66a" stop-opacity="1"></stop>
    </linearGradient>
  </defs>
  <defs>
    <linearGradient id="grad1_3" x1="50%" y1="0%" x2="100%" y2="100%">
      <stop offset="10%" stop-color="#a89e58" stop-opacity="1"></stop>
      <stop offset="90%" stop-color="#807846" stop-opacity="1"></stop>
    </linearGradient>
  </defs>
  <defs>
    <linearGradient id="grad1_4" x1="50%" y1="0%" x2="100%" y2="100%">
      <stop offset="10%" stop-color="#5a5535" stop-opacity="1"></stop>
      <stop offset="90%" stop-color="#807846" stop-opacity="1"></stop>
    </linearGradient>
  </defs>
  <defs>
    <linearGradient id="grad1_5" x1="50%" y1="0%" x2="100%" y2="100%">
      <stop offset="10%" stop-color="#5a5535" stop-opacity="1"></stop>
      <stop offset="90%" stop-color="#363325" stop-opacity="1"></stop>
    </linearGradient>
  </defs>
  <defs>
    <linearGradient id="grad1_6" x1="50%" y1="0%" x2="100%" y2="100%">
      <stop offset="10%" stop-color="#151515" stop-opacity="1"></stop>
      <stop offset="90%" stop-color="#363325" stop-opacity="1"></stop>
    </linearGradient>
  </defs>
  <defs>
    <linearGradient id="grad2_0" x1="0%" y1="0%" x2="50%" y2="100%">
      <stop offset="10%" stop-color="#feef7c" stop-opacity="1"></stop>
      <stop offset="90%" stop-color="#feef7c" stop-opacity="1"></stop>
    </linearGradient>
  </defs>
  <defs>
    <linearGradient id="grad2_1" x1="0%" y1="0%" x2="50%" y2="100%">
      <stop offset="10%" stop-color="#d2c66a" stop-opacity="1"></stop>
      <stop offset="90%" stop-color="#feef7c" stop-opacity="1"></stop>
    </linearGradient>
  </defs>
  <defs>
    <linearGradient id="grad2_2" x1="0%" y1="0%" x2="50%" y2="100%">
      <stop offset="10%" stop-color="#d2c66a" stop-opacity="1"></stop>
      <stop offset="90%" stop-color="#a89e58" stop-opacity="1"></stop>
    </linearGradient>
  </defs>
  <defs>
    <linearGradient id="grad2_3" x1="0%" y1="0%" x2="50%" y2="100%">
      <stop offset="10%" stop-color="#807846" stop-opacity="1"></stop>
      <stop offset="90%" stop-color="#a89e58" stop-opacity="1"></stop>
    </linearGradient>
  </defs>
  <defs>
    <linearGradient id="grad2_4" x1="0%" y1="0%" x2="50%" y2="100%">
      <stop offset="10%" stop-color="#807846" stop-opacity="1"></stop>
      <stop offset="90%" stop-color="#5a5535" stop-opacity="1"></stop>
    </linearGradient>
  </defs>
  <defs>
    <linearGradient id="grad2_5" x1="0%" y1="0%" x2="50%" y2="100%">
      <stop offset="10%" stop-color="#363325" stop-opacity="1"></stop>
      <stop offset="90%" stop-color="#5a5535" stop-opacity="1"></stop>
    </linearGradient>
  </defs>
  <defs>
    <linearGradient id="grad2_6" x1="0%" y1="0%" x2="50%" y2="100%">
      <stop offset="10%" stop-color="#363325" stop-opacity="1"></stop>
      <stop offset="90%" stop-color="#151515" stop-opacity="1"></stop>
    </linearGradient>
  </defs>
  <g transform="translate(900, 0)">
    <path d="M0 247.5C-25 236 -50 224.5 -68 209.2C-86 194 -96.9 175.1 -121.1 166.7C-145.3 158.3 -182.8 160.4 -200.2 145.5C-217.7 130.5 -215.2 98.5 -219.7 71.4C-224.2 44.3 -235.9 22.1 -247.5 0L0 0Z" fill="#25241d"></path>
    <path d="M0 212.1C-21.4 202.3 -42.9 192.4 -58.3 179.3C-73.7 166.3 -83 150 -103.8 142.8C-124.5 135.7 -156.7 137.5 -171.6 124.7C-186.6 111.9 -184.4 84.4 -188.3 61.2C-192.2 38 -202.2 19 -212.1 0L0 0Z" fill="#48442d"></path>
    <path d="M0 176.8C-17.9 168.6 -35.7 160.3 -48.6 149.5C-61.4 138.6 -69.2 125 -86.5 119C-103.8 113 -130.5 114.6 -143 103.9C-155.5 93.2 -153.7 70.3 -156.9 51C-160.2 31.6 -168.5 15.8 -176.8 0L0 0Z" fill="#6d663e"></path>
    <path d="M0 141.4C-14.3 134.8 -28.6 128.3 -38.8 119.6C-49.1 110.9 -55.4 100 -69.2 95.2C-83 90.4 -104.4 91.7 -114.4 83.1C-124.4 74.6 -122.9 56.3 -125.5 40.8C-128.1 25.3 -134.8 12.7 -141.4 0L0 0Z" fill="#948b4f"></path>
    <path d="M0 106.1C-10.7 101.1 -21.4 96.2 -29.1 89.7C-36.8 83.1 -41.5 75 -51.9 71.4C-62.3 67.8 -78.3 68.8 -85.8 62.3C-93.3 55.9 -92.2 42.2 -94.2 30.6C-96.1 19 -101.1 9.5 -106.1 0L0 0Z" fill="#bdb261"></path>
    <path d="M0 70.7C-7.1 67.4 -14.3 64.1 -19.4 59.8C-24.6 55.4 -27.7 50 -34.6 47.6C-41.5 45.2 -52.2 45.8 -57.2 41.6C-62.2 37.3 -61.5 28.1 -62.8 20.4C-64.1 12.7 -67.4 6.3 -70.7 0L0 0Z" fill="#e8da73"></path>
    <path d="M0 35.4C-3.6 33.7 -7.1 32.1 -9.7 29.9C-12.3 27.7 -13.8 25 -17.3 23.8C-20.8 22.6 -26.1 22.9 -28.6 20.8C-31.1 18.6 -30.7 14.1 -31.4 10.2C-32 6.3 -33.7 3.2 -35.4 0L0 0Z" fill="#feef7c"></path>
  </g>
  <g transform="translate(0, 450)">
    <path d="M0 -247.5C24.6 -237.5 49.3 -227.6 70.1 -215.9C91 -204.2 108.1 -190.7 131.1 -180.4C154.1 -170.1 182.9 -162.9 200.2 -145.5C217.5 -128.1 223.3 -100.4 229.2 -74.5C235.2 -48.5 241.3 -24.3 247.5 0L0 0Z" fill="#25241d"></path>
    <path d="M0 -212.1C21.1 -203.6 42.2 -195.1 60.1 -185C78 -175 92.7 -163.5 112.4 -154.6C132 -145.8 156.8 -139.6 171.6 -124.7C186.5 -109.8 191.4 -86.1 196.5 -63.8C201.6 -41.6 206.9 -20.8 212.1 0L0 0Z" fill="#48442d"></path>
    <path d="M0 -176.8C17.6 -169.7 35.2 -162.6 50.1 -154.2C65 -145.8 77.2 -136.2 93.6 -128.9C110 -121.5 130.7 -116.4 143 -103.9C155.4 -91.5 159.5 -71.7 163.7 -53.2C168 -34.7 172.4 -17.3 176.8 0L0 0Z" fill="#6d663e"></path>
    <path d="M0 -141.4C14.1 -135.7 28.2 -130.1 40.1 -123.4C52 -116.7 61.8 -109 74.9 -103.1C88 -97.2 104.5 -93.1 114.4 -83.1C124.3 -73.2 127.6 -57.4 131 -42.6C134.4 -27.7 137.9 -13.9 141.4 0L0 0Z" fill="#948b4f"></path>
    <path d="M0 -106.1C10.6 -101.8 21.1 -97.5 30.1 -92.5C39 -87.5 46.3 -81.7 56.2 -77.3C66 -72.9 78.4 -69.8 85.8 -62.3C93.2 -54.9 95.7 -43 98.2 -31.9C100.8 -20.8 103.4 -10.4 106.1 0L0 0Z" fill="#bdb261"></path>
    <path d="M0 -70.7C7 -67.9 14.1 -65 20 -61.7C26 -58.3 30.9 -54.5 37.5 -51.5C44 -48.6 52.3 -46.5 57.2 -41.6C62.2 -36.6 63.8 -28.7 65.5 -21.3C67.2 -13.9 69 -6.9 70.7 0L0 0Z" fill="#e8da73"></path>
    <path d="M0 -35.4C3.5 -33.9 7 -32.5 10 -30.8C13 -29.2 15.4 -27.2 18.7 -25.8C22 -24.3 26.1 -23.3 28.6 -20.8C31.1 -18.3 31.9 -14.3 32.7 -10.6C33.6 -6.9 34.5 -3.5 35.4 0L0 0Z" fill="#feef7c"></path>
  </g>
</svg>
