<?xml version="1.0" encoding="UTF-8"?>
<svg xmlns="http://www.w3.org/2000/svg" xmlns:xlink="http://www.w3.org/1999/xlink" id="visual" viewBox="0 0 900 450" width="900" height="450" version="1.1">
  <rect x="0" y="0" width="900" height="450" fill="#151515"></rect>
  <defs>
    <linearGradient id="grad1_0" x1="50%" y1="0%" x2="100%" y2="100%">
      <stop offset="10%" stop-color="#27547d" stop-opacity="1"></stop>
      <stop offset="90%" stop-color="#27547d" stop-opacity="1"></stop>
    </linearGradient>
  </defs>
  <defs>
    <linearGradient id="grad1_1" x1="50%" y1="0%" x2="100%" y2="100%">
      <stop offset="10%" stop-color="#27547d" stop-opacity="1"></stop>
      <stop offset="90%" stop-color="#27496a" stop-opacity="1"></stop>
    </linearGradient>
  </defs>
  <defs>
    <linearGradient id="grad1_2" x1="50%" y1="0%" x2="100%" y2="100%">
      <stop offset="10%" stop-color="#253e58" stop-opacity="1"></stop>
      <stop offset="90%" stop-color="#27496a" stop-opacity="1"></stop>
    </linearGradient>
  </defs>
  <defs>
    <linearGradient id="grad1_3" x1="50%" y1="0%" x2="100%" y2="100%">
      <stop offset="10%" stop-color="#253e58" stop-opacity="1"></stop>
      <stop offset="90%" stop-color="#233346" stop-opacity="1"></stop>
    </linearGradient>
  </defs>
  <defs>
    <linearGradient id="grad1_4" x1="50%" y1="0%" x2="100%" y2="100%">
      <stop offset="10%" stop-color="#1f2935" stop-opacity="1"></stop>
      <stop offset="90%" stop-color="#233346" stop-opacity="1"></stop>
    </linearGradient>
  </defs>
  <defs>
    <linearGradient id="grad1_5" x1="50%" y1="0%" x2="100%" y2="100%">
      <stop offset="10%" stop-color="#1f2935" stop-opacity="1"></stop>
      <stop offset="90%" stop-color="#1b1f24" stop-opacity="1"></stop>
    </linearGradient>
  </defs>
  <defs>
    <linearGradient id="grad1_6" x1="50%" y1="0%" x2="100%" y2="100%">
      <stop offset="10%" stop-color="#151515" stop-opacity="1"></stop>
      <stop offset="90%" stop-color="#1b1f24" stop-opacity="1"></stop>
    </linearGradient>
  </defs>
  <defs>
    <linearGradient id="grad2_0" x1="0%" y1="0%" x2="50%" y2="100%">
      <stop offset="10%" stop-color="#27547d" stop-opacity="1"></stop>
      <stop offset="90%" stop-color="#27547d" stop-opacity="1"></stop>
    </linearGradient>
  </defs>
  <defs>
    <linearGradient id="grad2_1" x1="0%" y1="0%" x2="50%" y2="100%">
      <stop offset="10%" stop-color="#27496a" stop-opacity="1"></stop>
      <stop offset="90%" stop-color="#27547d" stop-opacity="1"></stop>
    </linearGradient>
  </defs>
  <defs>
    <linearGradient id="grad2_2" x1="0%" y1="0%" x2="50%" y2="100%">
      <stop offset="10%" stop-color="#27496a" stop-opacity="1"></stop>
      <stop offset="90%" stop-color="#253e58" stop-opacity="1"></stop>
    </linearGradient>
  </defs>
  <defs>
    <linearGradient id="grad2_3" x1="0%" y1="0%" x2="50%" y2="100%">
      <stop offset="10%" stop-color="#233346" stop-opacity="1"></stop>
      <stop offset="90%" stop-color="#253e58" stop-opacity="1"></stop>
    </linearGradient>
  </defs>
  <defs>
    <linearGradient id="grad2_4" x1="0%" y1="0%" x2="50%" y2="100%">
      <stop offset="10%" stop-color="#233346" stop-opacity="1"></stop>
      <stop offset="90%" stop-color="#1f2935" stop-opacity="1"></stop>
    </linearGradient>
  </defs>
  <defs>
    <linearGradient id="grad2_5" x1="0%" y1="0%" x2="50%" y2="100%">
      <stop offset="10%" stop-color="#1b1f24" stop-opacity="1"></stop>
      <stop offset="90%" stop-color="#1f2935" stop-opacity="1"></stop>
    </linearGradient>
  </defs>
  <defs>
    <linearGradient id="grad2_6" x1="0%" y1="0%" x2="50%" y2="100%">
      <stop offset="10%" stop-color="#1b1f24" stop-opacity="1"></stop>
      <stop offset="90%" stop-color="#151515" stop-opacity="1"></stop>
    </linearGradient>
  </defs>
  <g transform="translate(900, 0)">
    <path d="M0 247.5C-28.9 249.5 -57.8 251.4 -76.5 235.4C-95.2 219.3 -103.8 185.3 -121.1 166.7C-138.4 148.1 -164.4 145 -180.4 131.1C-196.5 117.2 -202.6 92.6 -212.1 68.9C-221.6 45.3 -234.6 22.6 -247.5 0L0 0Z" fill="#181a1d"></path>
    <path d="M0 212.1C-24.8 213.8 -49.5 215.5 -65.6 201.8C-81.6 188 -89 158.8 -103.8 142.8C-118.6 126.9 -140.9 124.2 -154.6 112.4C-168.4 100.5 -173.6 79.3 -181.8 59.1C-190 38.8 -201 19.4 -212.1 0L0 0Z" fill="#1d242d"></path>
    <path d="M0 176.8C-20.6 178.2 -41.3 179.6 -54.6 168.1C-68 156.7 -74.1 132.3 -86.5 119C-98.8 105.8 -117.4 103.5 -128.9 93.6C-140.3 83.7 -144.7 66.1 -151.5 49.2C-158.3 32.3 -167.5 16.2 -176.8 0L0 0Z" fill="#212e3d"></path>
    <path d="M0 141.4C-16.5 142.6 -33 143.7 -43.7 134.5C-54.4 125.3 -59.3 105.9 -69.2 95.2C-79.1 84.6 -93.9 82.8 -103.1 74.9C-112.3 67 -115.7 52.9 -121.2 39.4C-126.6 25.9 -134 12.9 -141.4 0L0 0Z" fill="#24384f"></path>
    <path d="M0 106.1C-12.4 106.9 -24.8 107.8 -32.8 100.9C-40.8 94 -44.5 79.4 -51.9 71.4C-59.3 63.5 -70.4 62.1 -77.3 56.2C-84.2 50.2 -86.8 39.7 -90.9 29.5C-95 19.4 -100.5 9.7 -106.1 0L0 0Z" fill="#264361"></path>
    <path d="M0 70.7C-8.3 71.3 -16.5 71.8 -21.9 67.3C-27.2 62.7 -29.7 52.9 -34.6 47.6C-39.5 42.3 -47 41.4 -51.5 37.5C-56.1 33.5 -57.9 26.4 -60.6 19.7C-63.3 12.9 -67 6.5 -70.7 0L0 0Z" fill="#274e73"></path>
    <path d="M0 35.4C-4.1 35.6 -8.3 35.9 -10.9 33.6C-13.6 31.3 -14.8 26.5 -17.3 23.8C-19.8 21.2 -23.5 20.7 -25.8 18.7C-28.1 16.7 -28.9 13.2 -30.3 9.8C-31.7 6.5 -33.5 3.2 -35.4 0L0 0Z" fill="#27547d"></path>
  </g>
  <g transform="translate(0, 450)">
    <path d="M0 -247.5C27 -246.7 54.1 -245.8 76.5 -235.4C98.9 -225 116.7 -204.9 137 -188.5C157.2 -172.1 179.7 -159.3 192.5 -139.9C205.3 -120.5 208.4 -94.6 215.9 -70.1C223.4 -45.7 235.5 -22.9 247.5 0L0 0Z" fill="#181a1d"></path>
    <path d="M0 -212.1C23.2 -211.4 46.3 -210.7 65.6 -201.8C84.8 -192.8 100.1 -175.6 117.4 -161.6C134.7 -147.5 154.1 -136.5 165 -119.9C176 -103.3 178.6 -81 185 -60.1C191.5 -39.2 201.8 -19.6 212.1 0L0 0Z" fill="#1d242d"></path>
    <path d="M0 -176.8C19.3 -176.2 38.6 -175.6 54.6 -168.1C70.7 -160.7 83.4 -146.4 97.8 -134.6C112.3 -122.9 128.4 -113.8 137.5 -99.9C146.7 -86.1 148.8 -67.5 154.2 -50.1C159.6 -32.7 168.2 -16.3 176.8 0L0 0Z" fill="#212e3d"></path>
    <path d="M0 -141.4C15.4 -140.9 30.9 -140.5 43.7 -134.5C56.5 -128.5 66.7 -117.1 78.3 -107.7C89.8 -98.3 102.7 -91 110 -79.9C117.3 -68.9 119.1 -54 123.4 -40.1C127.7 -26.1 134.5 -13.1 141.4 0L0 0Z" fill="#24384f"></path>
    <path d="M0 -106.1C11.6 -105.7 23.2 -105.4 32.8 -100.9C42.4 -96.4 50 -87.8 58.7 -80.8C67.4 -73.7 77 -68.3 82.5 -60C88 -51.6 89.3 -40.5 92.5 -30.1C95.8 -19.6 100.9 -9.8 106.1 0L0 0Z" fill="#264361"></path>
    <path d="M0 -70.7C7.7 -70.5 15.4 -70.2 21.9 -67.3C28.3 -64.3 33.4 -58.5 39.1 -53.9C44.9 -49.2 51.4 -45.5 55 -40C58.7 -34.4 59.5 -27 61.7 -20C63.8 -13.1 67.3 -6.5 70.7 0L0 0Z" fill="#274e73"></path>
    <path d="M0 -35.4C3.9 -35.2 7.7 -35.1 10.9 -33.6C14.1 -32.1 16.7 -29.3 19.6 -26.9C22.5 -24.6 25.7 -22.8 27.5 -20C29.3 -17.2 29.8 -13.5 30.8 -10C31.9 -6.5 33.6 -3.3 35.4 0L0 0Z" fill="#27547d"></path>
  </g>
</svg>
