<?xml version="1.0" encoding="UTF-8"?>
<svg xmlns="http://www.w3.org/2000/svg" xmlns:xlink="http://www.w3.org/1999/xlink" id="visual" viewBox="0 0 900 450" width="900" height="450" version="1.1">
  <rect x="0" y="0" width="900" height="450" fill="#151515"></rect>
  <defs>
    <linearGradient id="grad1_0" x1="50%" y1="0%" x2="100%" y2="100%">
      <stop offset="10%" stop-color="#05c793" stop-opacity="1"></stop>
      <stop offset="90%" stop-color="#05c793" stop-opacity="1"></stop>
    </linearGradient>
  </defs>
  <defs>
    <linearGradient id="grad1_1" x1="50%" y1="0%" x2="100%" y2="100%">
      <stop offset="10%" stop-color="#05c793" stop-opacity="1"></stop>
      <stop offset="90%" stop-color="#1ea67c" stop-opacity="1"></stop>
    </linearGradient>
  </defs>
  <defs>
    <linearGradient id="grad1_2" x1="50%" y1="0%" x2="100%" y2="100%">
      <stop offset="10%" stop-color="#258665" stop-opacity="1"></stop>
      <stop offset="90%" stop-color="#1ea67c" stop-opacity="1"></stop>
    </linearGradient>
  </defs>
  <defs>
    <linearGradient id="grad1_3" x1="50%" y1="0%" x2="100%" y2="100%">
      <stop offset="10%" stop-color="#258665" stop-opacity="1"></stop>
      <stop offset="90%" stop-color="#266750" stop-opacity="1"></stop>
    </linearGradient>
  </defs>
  <defs>
    <linearGradient id="grad1_4" x1="50%" y1="0%" x2="100%" y2="100%">
      <stop offset="10%" stop-color="#244a3b" stop-opacity="1"></stop>
      <stop offset="90%" stop-color="#266750" stop-opacity="1"></stop>
    </linearGradient>
  </defs>
  <defs>
    <linearGradient id="grad1_5" x1="50%" y1="0%" x2="100%" y2="100%">
      <stop offset="10%" stop-color="#244a3b" stop-opacity="1"></stop>
      <stop offset="90%" stop-color="#1e2f27" stop-opacity="1"></stop>
    </linearGradient>
  </defs>
  <defs>
    <linearGradient id="grad1_6" x1="50%" y1="0%" x2="100%" y2="100%">
      <stop offset="10%" stop-color="#151515" stop-opacity="1"></stop>
      <stop offset="90%" stop-color="#1e2f27" stop-opacity="1"></stop>
    </linearGradient>
  </defs>
  <defs>
    <linearGradient id="grad2_0" x1="0%" y1="0%" x2="50%" y2="100%">
      <stop offset="10%" stop-color="#05c793" stop-opacity="1"></stop>
      <stop offset="90%" stop-color="#05c793" stop-opacity="1"></stop>
    </linearGradient>
  </defs>
  <defs>
    <linearGradient id="grad2_1" x1="0%" y1="0%" x2="50%" y2="100%">
      <stop offset="10%" stop-color="#1ea67c" stop-opacity="1"></stop>
      <stop offset="90%" stop-color="#05c793" stop-opacity="1"></stop>
    </linearGradient>
  </defs>
  <defs>
    <linearGradient id="grad2_2" x1="0%" y1="0%" x2="50%" y2="100%">
      <stop offset="10%" stop-color="#1ea67c" stop-opacity="1"></stop>
      <stop offset="90%" stop-color="#258665" stop-opacity="1"></stop>
    </linearGradient>
  </defs>
  <defs>
    <linearGradient id="grad2_3" x1="0%" y1="0%" x2="50%" y2="100%">
      <stop offset="10%" stop-color="#266750" stop-opacity="1"></stop>
      <stop offset="90%" stop-color="#258665" stop-opacity="1"></stop>
    </linearGradient>
  </defs>
  <defs>
    <linearGradient id="grad2_4" x1="0%" y1="0%" x2="50%" y2="100%">
      <stop offset="10%" stop-color="#266750" stop-opacity="1"></stop>
      <stop offset="90%" stop-color="#244a3b" stop-opacity="1"></stop>
    </linearGradient>
  </defs>
  <defs>
    <linearGradient id="grad2_5" x1="0%" y1="0%" x2="50%" y2="100%">
      <stop offset="10%" stop-color="#1e2f27" stop-opacity="1"></stop>
      <stop offset="90%" stop-color="#244a3b" stop-opacity="1"></stop>
    </linearGradient>
  </defs>
  <defs>
    <linearGradient id="grad2_6" x1="0%" y1="0%" x2="50%" y2="100%">
      <stop offset="10%" stop-color="#1e2f27" stop-opacity="1"></stop>
      <stop offset="90%" stop-color="#151515" stop-opacity="1"></stop>
    </linearGradient>
  </defs>
  <g transform="translate(900, 0)">
    <path d="M0 247.5C-22.8 231.5 -45.6 215.4 -66.4 204.5C-87.3 193.5 -106.3 187.6 -131.1 180.4C-155.9 173.2 -186.5 164.7 -200.2 145.5C-214 126.2 -210.8 96.2 -215.9 70.1C-221 44.1 -234.2 22.1 -247.5 0L0 0Z" fill="#1a221e"></path>
    <path d="M0 212.1C-19.5 198.4 -39.1 184.7 -56.9 175.3C-74.8 165.9 -91.1 160.8 -112.4 154.6C-133.6 148.5 -159.9 141.2 -171.6 124.7C-183.4 108.2 -180.7 82.4 -185 60.1C-189.4 37.8 -200.8 18.9 -212.1 0L0 0Z" fill="#213c31"></path>
    <path d="M0 176.8C-16.3 165.3 -32.5 153.9 -47.5 146.1C-62.4 138.2 -75.9 134 -93.6 128.9C-111.3 123.7 -133.2 117.7 -143 103.9C-152.8 90.2 -150.6 68.7 -154.2 50.1C-157.8 31.5 -167.3 15.8 -176.8 0L0 0Z" fill="#255945"></path>
    <path d="M0 141.4C-13 132.3 -26 123.1 -38 116.8C-49.9 110.6 -60.7 107.2 -74.9 103.1C-89.1 99 -106.6 94.1 -114.4 83.1C-122.3 72.1 -120.5 55 -123.4 40.1C-126.3 25.2 -133.8 12.6 -141.4 0L0 0Z" fill="#26765a"></path>
    <path d="M0 106.1C-9.8 99.2 -19.5 92.3 -28.5 87.6C-37.4 82.9 -45.5 80.4 -56.2 77.3C-66.8 74.2 -79.9 70.6 -85.8 62.3C-91.7 54.1 -90.4 41.2 -92.5 30.1C-94.7 18.9 -100.4 9.5 -106.1 0L0 0Z" fill="#239670"></path>
    <path d="M0 70.7C-6.5 66.1 -13 61.6 -19 58.4C-24.9 55.3 -30.4 53.6 -37.5 51.5C-44.5 49.5 -53.3 47.1 -57.2 41.6C-61.1 36.1 -60.2 27.5 -61.7 20C-63.1 12.6 -66.9 6.3 -70.7 0L0 0Z" fill="#16b687"></path>
    <path d="M0 35.4C-3.3 33.1 -6.5 30.8 -9.5 29.2C-12.5 27.6 -15.2 26.8 -18.7 25.8C-22.3 24.7 -26.6 23.5 -28.6 20.8C-30.6 18 -30.1 13.7 -30.8 10C-31.6 6.3 -33.5 3.2 -35.4 0L0 0Z" fill="#05c793"></path>
  </g>
  <g transform="translate(0, 450)">
    <path d="M0 -247.5C27 -247 54 -246.6 76.5 -235.4C99 -224.2 116.9 -202.3 133.4 -183.6C149.9 -165 164.9 -149.6 182.8 -132.8C200.8 -116.1 221.7 -98.1 233 -75.7C244.3 -53.4 245.9 -26.7 247.5 0L0 0Z" fill="#1a221e"></path>
    <path d="M0 -212.1C23.1 -211.7 46.3 -211.3 65.6 -201.8C84.8 -192.2 100.2 -173.4 114.4 -157.4C128.5 -141.4 141.3 -128.2 156.7 -113.9C172.1 -99.5 190.1 -84.1 199.7 -64.9C209.4 -45.7 210.8 -22.9 212.1 0L0 0Z" fill="#213c31"></path>
    <path d="M0 -176.8C19.3 -176.5 38.6 -176.1 54.6 -168.1C70.7 -160.1 83.5 -144.5 95.3 -131.2C107.1 -117.8 117.8 -106.8 130.6 -94.9C143.4 -82.9 158.4 -70 166.4 -54.1C174.5 -38.1 175.6 -19.1 176.8 0L0 0Z" fill="#255945"></path>
    <path d="M0 -141.4C15.4 -141.2 30.9 -140.9 43.7 -134.5C56.6 -128.1 66.8 -115.6 76.2 -104.9C85.7 -94.3 94.2 -85.5 104.5 -75.9C114.7 -66.3 126.7 -56 133.1 -43.3C139.6 -30.5 140.5 -15.2 141.4 0L0 0Z" fill="#26765a"></path>
    <path d="M0 -106.1C11.6 -105.9 23.1 -105.7 32.8 -100.9C42.4 -96.1 50.1 -86.7 57.2 -78.7C64.2 -70.7 70.7 -64.1 78.4 -56.9C86.1 -49.8 95 -42 99.9 -32.4C104.7 -22.9 105.4 -11.4 106.1 0L0 0Z" fill="#239670"></path>
    <path d="M0 -70.7C7.7 -70.6 15.4 -70.4 21.9 -67.3C28.3 -64.1 33.4 -57.8 38.1 -52.5C42.8 -47.1 47.1 -42.7 52.2 -38C57.4 -33.2 63.4 -28 66.6 -21.6C69.8 -15.2 70.3 -7.6 70.7 0L0 0Z" fill="#16b687"></path>
    <path d="M0 -35.4C3.9 -35.3 7.7 -35.2 10.9 -33.6C14.1 -32 16.7 -28.9 19.1 -26.2C21.4 -23.6 23.6 -21.4 26.1 -19C28.7 -16.6 31.7 -14 33.3 -10.8C34.9 -7.6 35.1 -3.8 35.4 0L0 0Z" fill="#05c793"></path>
  </g>
</svg>
