<?xml version="1.0" encoding="UTF-8"?>
<svg xmlns="http://www.w3.org/2000/svg" viewBox="0 0 250 250" width="250" height="250">
  <path d="M250 0 L250 247.5C227.7 227.4 205.5 207.4 187 194C168.5 180.6 153.7 174 126.6 169.9C99.4 165.8 59.9 164.4 49.8 145.5C39.7 126.6 59 90.2 56 63C53 35.9 27.8 17.9 2.5 0L250 0Z" fill="#1a1a1a" opacity="0.12"></path>
  <path d="M250 0 L250 212.1C230.9 195 211.8 177.8 196 166.3C180.1 154.8 167.5 149.1 144.2 145.6C120.9 142.1 87 140.9 78.4 124.7C69.7 108.5 86.3 77.3 83.7 54C81.2 30.8 59.5 15.4 37.9 0L250 0Z" fill="#1a1a1a" opacity="0.2"></path>
  <path d="M250 0 L250 176.8C234.1 162.5 218.2 148.1 205 138.6C191.8 129 181.2 124.3 161.8 121.4C142.4 118.4 114.2 117.4 107 103.9C99.8 90.4 113.5 64.4 111.4 45C109.3 25.6 91.3 12.8 73.2 0L250 0Z" fill="#1a1a1a" opacity="0.3"></path>
  <path d="M250 0 L250 141.4C237.3 130 224.6 118.5 214 110.9C203.4 103.2 195 99.4 179.5 97.1C164 94.8 141.4 93.9 135.6 83.1C129.8 72.3 140.8 51.5 139.1 36C137.4 20.5 123 10.3 108.6 0L250 0Z" fill="#1a1a1a" opacity="0.42"></path>
  <path d="M250 0 L250 106.1C240.5 97.5 230.9 88.9 223 83.1C215.1 77.4 208.7 74.6 197.1 72.8C185.5 71.1 168.5 70.5 164.2 62.3C159.9 54.2 168.1 38.7 166.9 27C165.6 15.4 154.8 7.7 143.9 0L250 0Z" fill="#1a1a1a" opacity="0.55"></path>
  <path d="M250 0 L250 70.7C243.6 65 237.3 59.3 232 55.4C226.7 51.6 222.5 49.7 214.7 48.5C207 47.4 195.7 47 192.8 41.6C189.9 36.2 195.4 25.8 194.6 18C193.7 10.3 186.5 5.1 179.3 0L250 0Z" fill="#1a1a1a" opacity="0.7"></path>
  <path d="M250 0 L250 35.4C246.8 32.5 243.6 29.6 241 27.7C238.4 25.8 236.2 24.9 232.4 24.3C228.5 23.7 222.8 23.5 221.4 20.8C220 18.1 222.7 12.9 222.3 9C221.9 5.1 218.3 2.6 214.6 0L250 0Z" fill="#1a1a1a" opacity="0.85"></path>
</svg>
