<?xml version="1.0" encoding="UTF-8"?>
<svg xmlns="http://www.w3.org/2000/svg" viewBox="0 0 250 250" width="250" height="250">
  <path d="M0 250 L0 2.5C22.3 22.6 44.5 42.6 63 56C81.5 69.4 96.3 76 123.4 80.1C150.6 84.2 190.1 85.6 200.2 104.5C210.3 123.4 191 159.8 194 187C197 214.1 222.2 232.1 247.5 250L0 250Z" fill="#0D9488" opacity="0.12"></path>
  <path d="M0 250 L0 37.9C19.1 55 38.2 72.2 54 83.7C69.9 95.2 82.5 100.9 105.8 104.4C129.1 107.9 163 109.1 171.6 125.3C180.3 141.5 163.7 172.7 166.3 196C168.8 219.2 190.5 234.6 212.1 250L0 250Z" fill="#0D9488" opacity="0.2"></path>
  <path d="M0 250 L0 73.2C15.9 87.5 31.8 101.9 45 111.4C58.2 121 68.8 125.7 88.2 128.6C107.6 131.6 135.8 132.6 143 146.1C150.2 159.6 136.5 185.6 138.6 205C140.7 224.4 158.7 237.2 176.8 250L0 250Z" fill="#0D9488" opacity="0.3"></path>
  <path d="M0 250 L0 108.6C12.7 120 25.4 131.5 36 139.1C46.6 146.8 55 150.6 70.5 152.9C86 155.2 108.6 156.1 114.4 166.9C120.2 177.7 109.2 198.5 110.9 214C112.6 229.5 127 239.7 141.4 250L0 250Z" fill="#0D9488" opacity="0.42"></path>
  <path d="M0 250 L0 143.9C9.5 152.5 19.1 161.1 27 166.9C34.9 172.6 41.3 175.4 52.9 177.2C64.5 178.9 81.5 179.5 85.8 187.7C90.1 195.8 81.9 211.3 83.1 223C84.4 234.6 95.2 242.3 106.1 250L0 250Z" fill="#0D9488" opacity="0.55"></path>
  <path d="M0 250 L0 179.3C6.4 185 12.7 190.7 18 194.6C23.3 198.4 27.5 200.3 35.3 201.5C43 202.6 54.3 203 57.2 208.4C60.1 213.8 54.6 224.2 55.4 232C56.3 239.7 63.5 244.9 70.7 250L0 250Z" fill="#0D9488" opacity="0.7"></path>
  <path d="M0 250 L0 214.6C3.2 217.5 6.4 220.4 9 222.3C11.6 224.2 13.8 225.1 17.6 225.7C21.5 226.3 27.2 226.5 28.6 229.2C30 231.9 27.3 237.1 27.7 241C28.1 244.9 31.7 247.4 35.4 250L0 250Z" fill="#0D9488" opacity="0.85"></path>
</svg>