<?xml version="1.0" encoding="UTF-8"?>
<svg xmlns="http://www.w3.org/2000/svg" viewBox="0 0 900 450" width="900" height="450">
  <g transform="translate(900, 0)">
    <path d="M0 247.5C-22.3 227.4 -44.5 207.4 -63 194C-81.5 180.6 -96.3 174 -123.4 169.9C-150.6 165.8 -190.1 164.4 -200.2 145.5C-210.3 126.6 -191 90.2 -194 63C-197 35.9 -222.2 17.9 -247.5 0L0 0Z" fill="#27547D" opacity="0.15"></path>
    <path d="M0 212.1C-19.1 195 -38.2 177.8 -54 166.3C-69.9 154.8 -82.5 149.1 -105.8 145.6C-129.1 142.1 -163 140.9 -171.6 124.7C-180.3 108.5 -163.7 77.3 -166.3 54C-168.8 30.8 -190.5 15.4 -212.1 0L0 0Z" fill="#27547D" opacity="0.25"></path>
    <path d="M0 176.8C-15.9 162.5 -31.8 148.1 -45 138.6C-58.2 129 -68.8 124.3 -88.2 121.4C-107.6 118.4 -135.8 117.4 -143 103.9C-150.2 90.4 -136.5 64.4 -138.6 45C-140.7 25.6 -158.7 12.8 -176.8 0L0 0Z" fill="#27547D" opacity="0.35"></path>
    <path d="M0 141.4C-12.7 130 -25.4 118.5 -36 110.9C-46.6 103.2 -55 99.4 -70.5 97.1C-86 94.8 -108.6 93.9 -114.4 83.1C-120.2 72.3 -109.2 51.5 -110.9 36C-112.6 20.5 -127 10.3 -141.4 0L0 0Z" fill="#27547D" opacity="0.45"></path>
    <path d="M0 106.1C-9.5 97.5 -19.1 88.9 -27 83.1C-34.9 77.4 -41.3 74.6 -52.9 72.8C-64.5 71.1 -81.5 70.5 -85.8 62.3C-90.1 54.2 -81.9 38.7 -83.1 27C-84.4 15.4 -95.2 7.7 -106.1 0L0 0Z" fill="#27547D" opacity="0.6"></path>
    <path d="M0 70.7C-6.4 65 -12.7 59.3 -18 55.4C-23.3 51.6 -27.5 49.7 -35.3 48.5C-43 47.4 -54.3 47 -57.2 41.6C-60.1 36.2 -54.6 25.8 -55.4 18C-56.3 10.3 -63.5 5.1 -70.7 0L0 0Z" fill="#27547D" opacity="0.8"></path>
    <path d="M0 35.4C-3.2 32.5 -6.4 29.6 -9 27.7C-11.6 25.8 -13.8 24.9 -17.6 24.3C-21.5 23.7 -27.2 23.5 -28.6 20.8C-30 18.1 -27.3 12.9 -27.7 9C-28.1 5.1 -31.7 2.6 -35.4 0L0 0Z" fill="#27547D" opacity="1"></path>
  </g>
  <g transform="translate(0, 450)">
    <path d="M0 -247.5C18.7 -222.8 37.4 -198 63 -194C88.7 -190 121.3 -206.6 145.5 -200.2C169.6 -193.8 185.3 -164.3 188.5 -137C191.7 -109.6 182.5 -84.3 190.2 -61.8C198 -39.3 222.7 -19.7 247.5 0L0 0Z" fill="#27547D" opacity="0.15"></path>
    <path d="M0 -212.1C16 -190.9 32 -169.8 54 -166.3C76 -162.8 104 -177.1 124.7 -171.6C145.4 -166.1 158.8 -140.9 161.6 -117.4C164.3 -93.9 156.4 -72.2 163 -53C169.7 -33.7 190.9 -16.9 212.1 0L0 0Z" fill="#27547D" opacity="0.25"></path>
    <path d="M0 -176.8C13.3 -159.1 26.7 -141.5 45 -138.6C63.4 -135.7 86.7 -147.6 103.9 -143C121.2 -138.4 132.4 -117.4 134.6 -97.8C136.9 -78.3 130.3 -60.2 135.9 -44.1C141.4 -28.1 159.1 -14 176.8 0L0 0Z" fill="#27547D" opacity="0.35"></path>
    <path d="M0 -141.4C10.7 -127.3 21.4 -113.2 36 -110.9C50.7 -108.6 69.3 -118.1 83.1 -114.4C96.9 -110.8 105.9 -93.9 107.7 -78.3C109.5 -62.6 104.3 -48.2 108.7 -35.3C113.1 -22.5 127.3 -11.2 141.4 0L0 0Z" fill="#27547D" opacity="0.45"></path>
    <path d="M0 -106.1C8 -95.5 16 -84.9 27 -83.1C38 -81.4 52 -88.6 62.3 -85.8C72.7 -83.1 79.4 -70.4 80.8 -58.7C82.2 -47 78.2 -36.1 81.5 -26.5C84.8 -16.9 95.5 -8.4 106.1 0L0 0Z" fill="#27547D" opacity="0.6"></path>
    <path d="M0 -70.7C5.3 -63.6 10.7 -56.6 18 -55.4C25.3 -54.3 34.7 -59 41.6 -57.2C48.5 -55.4 52.9 -47 53.9 -39.1C54.8 -31.3 52.1 -24.1 54.3 -17.7C56.6 -11.2 63.6 -5.6 70.7 0L0 0Z" fill="#27547D" opacity="0.8"></path>
    <path d="M0 -35.4C2.7 -31.8 5.3 -28.3 9 -27.7C12.7 -27.1 17.3 -29.5 20.8 -28.6C24.2 -27.7 26.5 -23.5 26.9 -19.6C27.4 -15.7 26.1 -12 27.2 -8.8C28.3 -5.6 31.8 -2.8 35.4 0L0 0Z" fill="#27547D" opacity="1"></path>
  </g>
</svg>
