<?xml version="1.0" encoding="utf-8"?>
<!-- Generator: Adobe Illustrator 25.0.0, SVG Export Plug-In . SVG Version: 6.00 Build 0)  -->
<svg version="1.1" id="Layer_1" xmlns="http://www.w3.org/2000/svg" xmlns:xlink="http://www.w3.org/1999/xlink" x="0px" y="0px"
	 viewBox="0 0 36 36" style="enable-background:new 0 0 36 36;" xml:space="preserve">
<style type="text/css">
	.st0{fill:none;}
	.st1{fill:#34313F;}
</style>
<rect class="st0" width="36" height="36"/>
<g>
	<g>
		<path class="st1" d="M32.263,17.5824c1.783,0,2.9798,0.806,3.7126,1.8074V5.1257c0-0.2687-0.3175-0.4396-0.5373-0.2687
			L17.8279,17.729h0.4641c1.8319,0,2.76,1.1724,2.76,2.4425c0,1.0014-0.5129,1.7342-1.2212,2.0517
			c-0.1221,0.0488-0.1221,0.2198,0,0.2687c0.806,0.3419,1.3922,1.1968,1.3922,2.2227c0,1.4655-0.9526,2.6135-2.7844,2.6135h-5.0071
			c-0.0977,0-0.1954-0.0733-0.1954-0.1954v-6.0574l-13.1162,9.599c-0.2198,0.1954-0.1221,0.5373,0.171,0.5373h35.3673
			c0.171,0,0.2931-0.1221,0.2931-0.2931v-4.8606c-0.9526,0.8793-2.1982,1.4411-3.7126,1.4411c-2.8333,0-5.1292-1.954-5.1292-4.9583
			C27.1338,19.512,29.4541,17.5824,32.263,17.5824z M25.253,27.157c0,0.0977-0.0733,0.171-0.171,0.171h-1.6853
			c-0.0977,0-0.171-0.0733-0.171-0.171v-9.257c0-0.0977,0.0733-0.171,0.171-0.171h1.6853c0.0977,0,0.171,0.0733,0.171,0.171V27.157z
			"/>
	</g>
	<path class="st1" d="M15.4831,21.5393h2.3692c0.6839,0,1.1235-0.3908,1.1235-1.0014c0-0.5862-0.4396-1.0014-1.1235-1.0014h-2.4669
		c-0.0488,0-0.0977,0.0488-0.0977,0.0977v1.7342C15.2877,21.466,15.3854,21.5393,15.4831,21.5393z"/>
	<path class="st1" d="M15.4831,25.5449H17.95c0.7572,0,1.2212-0.4152,1.2212-1.0991c0-0.6106-0.4396-1.0991-1.2212-1.0991h-2.4669
		c-0.0977,0-0.1954,0.0733-0.1954,0.1954v1.8074C15.2877,25.4472,15.3854,25.5449,15.4831,25.5449z"/>
	<path class="st1" d="M34.4368,20.489c-0.4641-0.6106-1.2457-1.0991-2.1738-1.0991c-1.7586,0-3.0287,1.3434-3.0287,3.1508
		c0,1.8074,1.2701,3.1508,3.0287,3.1508c0.806,0,1.5632-0.3419,1.9784-0.6839c0.0244-0.0244,0.0489-0.0733,0.0489-0.1221v-0.9281
		c0-0.0733-0.0733-0.1466-0.1466-0.1466h-2.1738c-0.1221,0-0.1954-0.0977-0.1954-0.1954v-1.3678
		c0-0.1221,0.0977-0.1954,0.1954-0.1954H36v-2.1738l-1.2945,0.7083C34.6078,20.6111,34.4857,20.5623,34.4368,20.489z"/>
</g>
</svg>
