<?xml version="1.0" encoding="utf-8"?>
<!-- Generator: Adobe Illustrator 24.0.0, SVG Export Plug-In . SVG Version: 6.00 Build 0)  -->
<!DOCTYPE svg PUBLIC "-//W3C//DTD SVG 1.1//EN" "http://www.w3.org/Graphics/SVG/1.1/DTD/svg11.dtd" [
	<!ENTITY ns_extend "http://ns.adobe.com/Extensibility/1.0/">
	<!ENTITY ns_ai "http://ns.adobe.com/AdobeIllustrator/10.0/">
	<!ENTITY ns_graphs "http://ns.adobe.com/Graphs/1.0/">
	<!ENTITY ns_vars "http://ns.adobe.com/Variables/1.0/">
	<!ENTITY ns_imrep "http://ns.adobe.com/ImageReplacement/1.0/">
	<!ENTITY ns_sfw "http://ns.adobe.com/SaveForWeb/1.0/">
	<!ENTITY ns_custom "http://ns.adobe.com/GenericCustomNamespace/1.0/">
	<!ENTITY ns_adobe_xpath "http://ns.adobe.com/XPath/1.0/">
]>
<svg version="1.1" id="Layer_1" xmlns:x="&ns_extend;" xmlns:i="&ns_ai;" xmlns:graph="&ns_graphs;"
	 xmlns="http://www.w3.org/2000/svg" xmlns:xlink="http://www.w3.org/1999/xlink" x="0px" y="0px" viewBox="0 0 30 30"
	 style="enable-background:new 0 0 30 30;" xml:space="preserve">
<style type="text/css">
	.st0{fill:none;}
	.st1{fill:#03AEEE;}
	.st2{fill:#FEFEFE;}
	.st3{fill:#0192C8;}
	.st4{fill:#E5E6E7;}
	.st5{fill:#D0D1D4;}
</style>
<metadata>
	<sfw  xmlns="&ns_sfw;">
		<slices></slices>
		<sliceSourceBounds  bottomLeftOrigin="true" height="30" width="30" x="-47.8261" y="12.3468"></sliceSourceBounds>
	</sfw>
</metadata>
<rect y="0" class="st0" width="30" height="30"/>
<g>
	<path class="st1" d="M10.8541,11.0225c0.1088-0.539,0.2386-1.0717,0.4653-1.576c0.6611-1.4711,1.7311-2.5389,3.1829-3.2315
		c0.4396-0.2097,0.8769-0.4237,1.2744-0.7101c0.345-0.2486,0.5932-0.5668,0.7068-0.9792c0.079-0.2869,0.1719-0.5717,0.1891-0.8723
		c0.014,0,0.0279,0,0.0418,0c0.3219,0.496,0.6574,0.9804,1.0956,1.3851c0.2955,0.2729,0.6327,0.4728,1.0044,0.6217
		c1.12,0.4489,2.1484,1.0466,3.0226,1.8882c0.23,0.2214,0.4512,0.4529,0.6269,0.7226c-0.0372,0.0833-0.1224,0.0871-0.1921,0.109
		c-0.3044,0.0961-0.6109,0.1859-0.9162,0.2793c-1.6927,0.5177-3.385,1.0368-5.0781,1.5536c-1.4406,0.4397-2.882,0.877-4.3232,1.3149
		c-0.0771,0.0234-0.1479,0.0499-0.1385,0.1512c-0.3344-0.0236-0.6688-0.047-1.0032-0.0706
		C10.8265,11.4132,10.8403,11.2178,10.8541,11.0225z"/>
	<path class="st2" d="M21.1946,26.3466c0.1256-0.0673,0.2512-0.0673,0.3769,0C21.4459,26.3466,21.3202,26.3466,21.1946,26.3466z"/>
	<path class="st2" d="M12.7369,26.3466c0.1256-0.0673,0.2512-0.0673,0.3769,0C12.9882,26.3466,12.8625,26.3466,12.7369,26.3466z"/>
	<path class="st3" d="M11.8159,11.6791c-0.0093-0.1013,0.0615-0.1278,0.1385-0.1512c1.4412-0.438,2.8826-0.8752,4.3232-1.3149
		c1.6931-0.5168,3.3854-1.0359,5.0781-1.5536c0.3053-0.0934,0.6117-0.1832,0.9162-0.2793c0.0697-0.022,0.1549-0.0258,0.1921-0.109
		c0.3899,0.4742,0.6532,1.0142,0.8732,1.5856c0.2544,0.6608,0.3225,1.3482,0.3764,2.0419
		c-0.0096,0.1921-0.0191,0.3842-0.0287,0.5764c-0.0624-0.0011-0.125,0.0006-0.1873-0.0037
		c-1.3378-0.0911-2.6755-0.1833-4.0133-0.2741c-1.2267-0.0833-2.4536-0.1653-3.6805-0.2475
		c-0.8669-0.0581-1.7334-0.123-2.6009-0.1705C12.7398,11.7538,12.2772,11.7275,11.8159,11.6791z"/>
	<path class="st4" d="M11.8159,11.6791c0.4614,0.0483,0.924,0.0747,1.3871,0.1c0.8675,0.0474,1.734,0.1124,2.6009,0.1705
		c1.2269,0.0822,2.4537,0.1642,3.6805,0.2475c1.3378,0.0908,2.6755,0.1831,4.0133,0.2741c0.0623,0.0042,0.1249,0.0026,0.1873,0.0037
		c0.2141,0.0182,0.4292,0.0584,0.6424,0.05c0.4671-0.0183,0.6066,0.2627,0.5442,0.6572c-0.1405,0.8883-0.3017,1.7732-0.445,2.661
		c-0.1621,1.004-0.3185,2.0091-0.4673,3.0152c-0.041,0.2773-0.145,0.4766-0.4223,0.5865c-0.2318,0.0919-0.4447,0.2305-0.6688,0.3426
		c-0.2251,0.1126-0.4789,0.1007-0.7143,0.1015c-0.5364,0.0018-1.0709,0.042-1.6057,0.0604
		c-0.673,0.0232-1.3461,0.0556-2.0194,0.0818c-0.6173,0.024-1.2346,0.0564-1.8521,0.0828
		c-0.6661,0.0285-1.3335,0.0458-1.9979,0.0903c-0.387,0.0259-0.7783-0.0172-1.1629,0.0669
		c-0.2085,0.0455-0.3951-0.0369-0.5717-0.1472c-0.3006-0.1877-0.6044-0.3706-0.9083-0.5529
		c-0.0406-0.0243-0.0903-0.0334-0.1358-0.0497c-0.0062-0.003-0.0123-0.0061-0.0184-0.0092c0.0059,0.0033,0.0118,0.0066,0.0177,0.01
		c-0.0093,0.1688,0.0819,0.3072,0.1445,0.4521c0.0939,0.2172,0.0772,0.4095-0.0531,0.6113
		c-0.2299,0.3561-0.4411,0.7242-0.6622,1.086c-0.0732,0.1199-0.0365,0.1628,0.0951,0.1533
		c0.0486-0.0035,0.0976-0.0005,0.1465-0.0005c3.7464,0,7.4928,0,11.2393,0.0002c0.3043,0,0.4776,0.1866,0.4357,0.4669
		c-0.0303,0.2024-0.2024,0.3217-0.4648,0.3291c-0.6059,0.017-1.2092-0.0676-1.8157-0.0429
		c-2.3906,0.0972-4.7824,0.0243-7.1736,0.0345c-0.4012,0.0017-0.8074-0.0585-1.2081-0.0275
		c-0.6475,0.0501-1.2945,0.0294-1.9417,0.0336c-0.3624,0.0024-0.571-0.2197-0.4886-0.5077
		c0.0246-0.0858,0.0704-0.1675,0.1167-0.2449c0.2823-0.4711,0.5649-0.942,0.8546-1.4086c0.0499-0.0804,0.0593-0.1388,0.0232-0.2281
		c-0.6219-1.5408-1.238-3.084-1.8582-4.6255c-0.5554-1.3802-1.1132-2.7595-1.6732-4.1379c-0.0415-0.102-0.1087-0.1935-0.1639-0.2899
		c0.1164-0.2606,0.2328-0.5213,0.3492-0.7819c0.2641,0.0129,0.4405,0.1473,0.5376,0.3898c0.1442,0.3603,0.2876,0.721,0.442,1.1082
		c0.0864-0.3038,0.284-0.3894,0.5597-0.3694c0.4903,0.0357,0.9816,0.0581,1.4725,0.0859
		C11.147,11.6321,11.4815,11.6557,11.8159,11.6791z M11.5244,14.8767c-0.0068-0.0382-0.0371-0.0419-0.0673-0.0456
		c-0.0361-0.0506-0.0647-0.1095-0.1101-0.1496c-0.0667-0.059-0.1259-0.2013-0.2311-0.115c-0.1133,0.0929-0.308,0.1713-0.2459,0.37
		c0.0722,0.2312,0.1771,0.4523,0.2699,0.677c0.022,0.0533,0.0569,0.116,0.1187,0.0449c0.1302-0.1501,0.3206-0.2484,0.3906-0.4504
		c0.1295-0.008,0.1697-0.0599,0.0694-0.161c-0.0616-0.062-0.1102-0.1412-0.198-0.174L11.5244,14.8767z M20.9799,17.2598
		c0.0091-0.1357-0.1236-0.1702-0.1836-0.2566c-0.0849-0.1224-0.1654-0.1391-0.2708-0.0093c-0.1,0.1232-0.223,0.2279-0.3358,0.3409
		c-0.1805,0.1807-0.1686,0.2284,0.087,0.3528c0.0531,0.17,0.2132,0.2486,0.32,0.3727c0.0322,0.0373,0.0746,0.0347,0.1098-0.0002
		c0.173-0.1714,0.3451-0.3439,0.5182-0.5152c0.0369-0.0366,0.0413-0.072,0.0007-0.1057
		C21.1473,17.3744,21.1004,17.2666,20.9799,17.2598z M10.8746,13.0299c0.0336,0.113,0.1363,0.17,0.2046,0.2549
		c0.0669,0.0832,0.1205,0.0872,0.1966,0.0049c0.1409-0.1524,0.2923-0.295,0.4388-0.4424c0.0285-0.0287,0.0705-0.0563,0.0592-0.1021
		c-0.015-0.061-0.0744-0.0534-0.1205-0.0577c-0.2612-0.0245-0.5227-0.0469-0.7841-0.0701c-0.1094-0.016-0.2155,0.0021-0.2659,0.1059
		c-0.0543,0.1117,0.0788,0.1372,0.125,0.2024C10.7627,12.9741,10.8073,13.0214,10.8746,13.0299z M12.1571,15.9604
		c-0.1468,0.0205-0.2027,0.1576-0.3032,0.2372c-0.0974,0.0771-0.0959,0.1537-0.0036,0.2405
		c0.1411,0.1327,0.2747,0.2734,0.4124,0.4098c0.0434,0.043,0.0913,0.1063,0.1542,0.0366c0.0954-0.1057,0.2353-0.1747,0.2762-0.3264
		c0.0542-0.0019,0.0808-0.0473,0.1194-0.0744c0.1641-0.1152,0.1666-0.2208,0.0039-0.3465c-0.1082-0.0836-0.197-0.1925-0.2947-0.2899
		C12.3422,15.6684,12.2458,15.6982,12.1571,15.9604z M23.128,14.6672c-0.0224-0.1601-0.0809-0.1972-0.2041-0.0677
		c-0.1436,0.1509-0.2945,0.2949-0.4406,0.4434c-0.031,0.0316-0.0958,0.0691-0.0425,0.1171c0.0943,0.085,0.1486,0.2208,0.2948,0.2429
		c0.0068,0.0496,0.0275,0.0909,0.0604,0.13c0.1877,0.2231,0.2162,0.2254,0.4187,0.0231c0.1133-0.1131,0.2269-0.2261,0.3393-0.3401
		c0.0385-0.0391,0.0947-0.0855,0.035-0.1396C23.4368,14.9383,23.3316,14.7469,23.128,14.6672z M21.6597,16.7028
		c0.165,0.2619,0.1824,0.2647,0.3843,0.063c0.0788-0.0788,0.1592-0.156,0.236-0.2367c0.2139-0.2244,0.211-0.2479-0.044-0.4412
		c-0.3503-0.4489-0.3503-0.4489-0.7454-0.0539c-0.069,0.069-0.1374,0.1384-0.2069,0.2069
		c-0.0388,0.0382-0.0632,0.0767-0.0098,0.1211C21.4061,16.4717,21.4929,16.6326,21.6597,16.7028z M13.34,17.127
		c-0.1706,0.0373-0.2476,0.1901-0.3601,0.2973c-0.0677,0.0646-0.016,0.1254,0.0357,0.177c0.1418,0.1416,0.2845,0.2824,0.4247,0.4256
		c0.0557,0.057,0.1067,0.0863,0.1721,0.0137c0.1381-0.1535,0.3077-0.2774,0.4242-0.4513c0.1146-0.0336,0.1554-0.0819,0.049-0.181
		c-0.1272-0.1185-0.2471-0.2449-0.3701-0.3678C13.5205,16.8458,13.4581,16.8602,13.34,17.127z M16.7738,18.4233
		c-0.3205,0.2308-0.3205,0.2308-0.0575,0.4937c0.0049,0.0049,0.0098,0.0098,0.0147,0.0147c0.184,0.1838,0.3843,0.2358,0.6133,0.1168
		c0.151-0.0785,0.3069-0.2034,0.3479-0.364c0.0256-0.1001-0.1355-0.1895-0.2391-0.2582c-0.073-0.1301-0.1989-0.212-0.2943-0.3217
		c-0.033-0.038-0.0687-0.0498-0.1042-0.0079C16.962,18.2064,16.8232,18.2764,16.7738,18.4233z M15.3464,16.3048
		c-0.0299-0.0347-0.0506-0.062-0.0744-0.086c-0.1519-0.1526-0.3067-0.3024-0.4559-0.4575c-0.0617-0.064-0.1074-0.0678-0.1699-0.001
		c-0.1705,0.1819-0.3456,0.3593-0.519,0.5385c0.1198,0.1978,0.3138,0.3265,0.463,0.4969c0.0183,0.0208,0.0416,0.0375,0.0583,0.0595
		c0.0541,0.0709,0.1009,0.0723,0.1652,0.0045c0.1529-0.1612,0.3133-0.3153,0.4697-0.4733
		C15.306,16.3631,15.3233,16.3347,15.3464,16.3048z M19.4746,16.9291c0.0345-0.0306,0.0611-0.0518,0.0852-0.0757
		c0.1479-0.147,0.2921-0.2978,0.4438-0.4406c0.0766-0.0721,0.0862-0.1248,0.0044-0.2013c-0.1523-0.1422-0.299-0.2907-0.4426-0.4417
		c-0.0673-0.0708-0.1159-0.0763-0.1859-0.0021c-0.1479,0.1566-0.3011,0.3083-0.4569,0.4571
		c-0.0641,0.0613-0.0688,0.1025-0.0009,0.1665c0.1616,0.1525,0.3156,0.3133,0.4733,0.4701
		C19.4183,16.8845,19.445,16.904,19.4746,16.9291z M18.2805,15.733c0.0255-0.0175,0.0504-0.0299,0.0693-0.0483
		c0.1693-0.1653,0.3366-0.3328,0.5068-0.4972c0.0582-0.0562,0.0296-0.0948-0.0144-0.1383c-0.1584-0.1566-0.3185-0.3118-0.4721-0.473
		c-0.0651-0.0683-0.1073-0.0581-0.1675,0.0049c-0.1492,0.1559-0.3006,0.3102-0.4585,0.457
		c-0.0802,0.0745-0.0572,0.1202,0.0096,0.1839c0.1462,0.1392,0.2859,0.2851,0.4293,0.4273
		C18.2121,15.6782,18.2454,15.7031,18.2805,15.733z M20.0844,13.9403c-0.0234-0.0295-0.0415-0.0581-0.0651-0.0811
		c-0.1781-0.1743-0.3389-0.4539-0.5417-0.489c-0.1766-0.0306-0.3315,0.2899-0.5061,0.4445
		c-0.0103,0.0092-0.0191,0.0204-0.0299,0.0288c-0.0753,0.0584-0.0816,0.111-0.0062,0.1819
		c0.1566,0.1474,0.3059,0.3026,0.4571,0.4557c0.0476,0.0481,0.0879,0.0857,0.1533,0.0178c0.1589-0.1649,0.323-0.3249,0.4841-0.4875
		C20.049,13.9923,20.0631,13.9684,20.0844,13.9403z M12.9721,13.9358c-0.0226-0.0277-0.0418-0.0555-0.0652-0.079
		c-0.1568-0.1582-0.3165-0.3138-0.471-0.4742c-0.0575-0.0597-0.0976-0.0561-0.1532,0.0017
		c-0.1546,0.1603-0.3123,0.318-0.4721,0.4731c-0.055,0.0534-0.0669,0.0932-0.0059,0.1522c0.1651,0.1597,0.3267,0.3231,0.4871,0.4876
		c0.0509,0.0522,0.0894,0.0485,0.1386-0.0019c0.1606-0.1643,0.3242-0.3257,0.4859-0.4889
		C12.9355,13.9869,12.9506,13.9633,12.9721,13.9358z M13.5453,15.7281c0.0223-0.0142,0.0421-0.0227,0.0562-0.0367
		c0.1723-0.1711,0.3433-0.3436,0.516-0.5143c0.0471-0.0465,0.0323-0.0809-0.0085-0.1212c-0.1631-0.1607-0.3266-0.321-0.4855-0.4859
		c-0.0585-0.0608-0.0982-0.0505-0.1517,0.0043c-0.155,0.1589-0.3125,0.3154-0.4716,0.4704
		c-0.0533,0.0519-0.0717,0.0929-0.0086,0.1537c0.1649,0.1588,0.3246,0.3229,0.4875,0.4838
		C13.4981,15.7009,13.5234,15.7132,13.5453,15.7281z M16.5275,17.4953c-0.0207-0.0277-0.0373-0.0569-0.0602-0.0796
		c-0.1781-0.1755-0.3361-0.4489-0.543-0.4933c-0.1693-0.0364-0.3213,0.283-0.4934,0.4313c-0.021,0.0181-0.0371,0.0422-0.059,0.0589
		c-0.0731,0.0562-0.0653,0.1045-0.0008,0.1663c0.1558,0.1492,0.308,0.3022,0.4571,0.458c0.0605,0.0633,0.1046,0.0724,0.1695,0.004
		c0.1533-0.1614,0.3135-0.3164,0.4703-0.4744C16.4874,17.5471,16.5035,17.5244,16.5275,17.4953z M21.2722,15.126
		c-0.0198-0.0269-0.0301-0.0452-0.0443-0.0596c-0.1669-0.1676-0.3353-0.3336-0.5013-0.5021
		c-0.0674-0.0684-0.1118-0.0199-0.1539,0.0269c-0.1655,0.1846-0.3737,0.3294-0.5076,0.5434
		c0.1683,0.1747,0.3385,0.3476,0.504,0.5249c0.0665,0.0712,0.1161,0.0757,0.186,0.0014c0.1478-0.1569,0.3038-0.3061,0.4556-0.4592
		C21.2337,15.1785,21.2523,15.1508,21.2722,15.126z M21.84,14.5486c0.0217-0.0128,0.0426-0.0203,0.0568-0.0343
		c0.1733-0.1719,0.3448-0.3457,0.5189-0.5169c0.0593-0.0583,0.023-0.0961-0.019-0.1378c-0.1385-0.1377-0.278-0.2744-0.4135-0.415
		c-0.055-0.0571-0.0982-0.0588-0.159-0.0069c-0.1749,0.1495-0.3528,0.2955-0.5322,0.4395c-0.058,0.0466-0.0586,0.0834-0.0068,0.1342
		c0.1642,0.1613,0.3258,0.3252,0.4893,0.4873C21.7936,14.5179,21.8179,14.5321,21.84,14.5486z M17.0979,14.5519
		c0.0313-0.0251,0.0589-0.0437,0.0824-0.0667c0.0797-0.0779,0.1579-0.1573,0.2367-0.2361c0.312-0.3122,0.3139-0.3141,0.0026-0.6193
		c-0.1026-0.1005-0.1871-0.2755-0.3172-0.2752c-0.0964,0.0003-0.1923,0.1629-0.2883,0.2533
		c-0.0811,0.0763-0.159,0.1563-0.2438,0.2282c-0.0826,0.0701-0.0823,0.1258-0.0019,0.2009
		c0.1525,0.1426,0.2966,0.2942,0.4449,0.4415C17.0371,14.5023,17.0643,14.523,17.0979,14.5519z M14.7267,19.1857
		c0.1629,0.0264,0.2301-0.1087,0.3205-0.1973c0.309-0.3025,0.307-0.3046-0.0019-0.6134c-0.3189-0.319-0.3189-0.319-0.639,0.0011
		c-0.3081,0.3081-0.3101,0.31-0.0006,0.6133C14.4962,19.0779,14.5637,19.2129,14.7267,19.1857z M14.7303,13.3268
		c-0.0278,0.0241-0.0541,0.0444-0.0775,0.0677c-0.1574,0.1566-0.3116,0.3167-0.4727,0.4695
		c-0.0628,0.0596-0.0509,0.096,0.0042,0.1493c0.1595,0.1545,0.316,0.3123,0.4713,0.471c0.0508,0.052,0.0919,0.0752,0.1537,0.0112
		c0.159-0.1648,0.3217-0.326,0.4853-0.4864c0.0546-0.0535,0.0382-0.0922-0.0086-0.1383c-0.1633-0.1606-0.3244-0.3235-0.4867-0.4851
		C14.7799,13.3666,14.7577,13.3502,14.7303,13.3268z M18.8914,17.4911c-0.0093-0.0138-0.0185-0.0329-0.0326-0.0472
		c-0.1717-0.1729-0.3459-0.3435-0.5157-0.5183c-0.0602-0.062-0.0946-0.0221-0.1348,0.0192
		c-0.1745,0.1794-0.3493,0.3585-0.5239,0.5378c0.129,0.2001,0.3245,0.3377,0.4808,0.5121c0.0232,0.0259,0.0483,0.0504,0.0747,0.0729
		c0.015,0.0128,0.034,0.0264,0.0524,0.0284C18.3299,18.1,18.8925,17.5324,18.8914,17.4911z M17.1059,15.7053
		c-0.0229,0.013-0.0438,0.0197-0.0577,0.0335c-0.1728,0.1713-0.3449,0.3433-0.5166,0.5158
		c-0.0606,0.0609-0.0065,0.0987,0.0316,0.137c0.152,0.1528,0.3067,0.3029,0.4563,0.458c0.0605,0.0627,0.1035,0.069,0.1675,0.0011
		c0.1477-0.1567,0.3019-0.3074,0.4562-0.4578c0.0513-0.0499,0.0782-0.0893,0.0139-0.1516c-0.1647-0.1597-0.3247-0.3241-0.4873-0.486
		C17.151,15.7366,17.1278,15.7223,17.1059,15.7053z M15.9257,14.5254c-0.0258,0.0147-0.0462,0.0217-0.0602,0.0351
		c-0.1708,0.1638-0.3401,0.3292-0.5111,0.4928c-0.0555,0.0532-0.0345,0.0946,0.011,0.1398
		c0.1582,0.1569,0.3175,0.3128,0.4713,0.4741c0.0662,0.0695,0.1121,0.0545,0.1712-0.0068c0.1451-0.1503,0.2916-0.2994,0.4435-0.4428
		c0.0746-0.0703,0.0679-0.1194-0.003-0.1866c-0.1516-0.1437-0.2964-0.2944-0.4448-0.4415
		C15.9799,14.566,15.952,14.5468,15.9257,14.5254z M19.4539,18.9778c0.0731,0,0.1292-0.0052,0.184,0.0009
		c0.2138,0.0238,0.3191-0.1371,0.4035-0.2761c0.0734-0.121-0.1003-0.1721-0.1567-0.2591c-0.0037-0.0057-0.0093-0.0103-0.0146-0.0147
		c-0.1353-0.1161-0.2344-0.3439-0.3958-0.3393c-0.1589,0.0045-0.265,0.2219-0.3935,0.3464
		c-0.2299,0.2227-0.2114,0.3594,0.0636,0.5147C19.2478,19.0089,19.3627,18.9645,19.4539,18.9778z M23.3563,17.2437
		c0.0058-0.1333-0.1472-0.1795-0.2204-0.2801c-0.066-0.0909-0.1296-0.0768-0.2031,0.0011
		c-0.1437,0.1521-0.2919,0.3002-0.4441,0.4439c-0.0687,0.0648-0.0613,0.1077,0.0033,0.1685c0.132,0.1243,0.2575,0.2556,0.386,0.3836
		c0.1618,0.1611,0.3046,0.129,0.3636-0.0967C23.2922,17.6702,23.3157,17.4695,23.3563,17.2437z M21.7439,18.8895
		c0.1698,0.0389,0.3298-0.0315,0.4954-0.0379c0.0945-0.0037,0.1546-0.069,0.1905-0.143c0.035-0.0721-0.0429-0.1103-0.0854-0.1492
		c-0.1723-0.1572-0.3181-0.4649-0.5081-0.4461c-0.1835,0.0182-0.3369,0.3012-0.5119,0.4585
		c-0.1028,0.0923-0.0697,0.1487,0.0094,0.2353C21.4557,18.9408,21.6063,18.8748,21.7439,18.8895z M12.9877,12.7734
		c-0.0079,0.0148-0.0159,0.0296-0.0238,0.0443c0.1721,0.168,0.3448,0.3355,0.516,0.5044c0.0424,0.0419,0.0752,0.046,0.1221,0.002
		c0.1511-0.1419,0.3063-0.2795,0.46-0.4188c-0.0114-0.021-0.0228-0.042-0.0343-0.063
		C13.6811,12.8195,13.3343,12.7964,12.9877,12.7734z M12.9403,18.6383c-0.0149-0.0199-0.0358-0.0557-0.064-0.0843
		c-0.1409-0.1433-0.2832-0.2852-0.426-0.4266c-0.0386-0.0383-0.0802-0.0913-0.1392-0.0361
		c-0.0477,0.0445-0.1133,0.0765-0.1028,0.1656c0.0251,0.2125,0.2903,0.5242,0.5029,0.5801
		C12.8034,18.8612,12.9479,18.7482,12.9403,18.6383z M15.5254,12.9553c0.3366,0.4701,0.3759,0.4743,0.7317,0.085
		c0.0069-0.0076,0.0035-0.0245,0.0063-0.049C16.019,12.9896,15.7782,12.9331,15.5254,12.9553z M23.9576,13.5725
		c-0.1039,0.103-0.2222,0.18-0.2989,0.2908c-0.0979,0.1416,0.0609,0.1867,0.1248,0.2624c0.0336,0.0398,0.077,0.0259,0.0869-0.0315
		C23.9006,13.9206,23.9287,13.7465,23.9576,13.5725z M18.055,13.1124c0.2433,0.3102,0.2806,0.3104,0.4207,0.0231
		C18.3434,13.1283,18.2145,13.1212,18.055,13.1124z"/>
	<path class="st1" d="M7.8008,10.3938c-0.1164,0.2606-0.2327,0.5213-0.3492,0.7819c-0.0802,0.049-0.1481-0.0022-0.2165-0.0301
		c-0.2253-0.0919-0.4481-0.1901-0.6739-0.2806c-0.222-0.089-0.4296-0.1861-0.6939-0.1615c-0.3618,0.0336-0.6718-0.276-0.7097-0.6302
		C5.1174,9.697,5.3331,9.3656,5.6799,9.2709C6.0448,9.1713,6.4166,9.3411,6.553,9.6916c0.0486,0.125,0.121,0.1872,0.2371,0.2333
		c0.2842,0.113,0.5653,0.2336,0.8457,0.3556C7.6962,10.3069,7.7764,10.312,7.8008,10.3938z M6.3225,9.9793
		C6.323,9.6879,6.1636,9.5259,5.8741,9.5235C5.59,9.5211,5.3864,9.7121,5.3879,9.9798c0.0013,0.2521,0.2355,0.4815,0.4869,0.4769
		C6.1314,10.4522,6.3221,10.2487,6.3225,9.9793z"/>
	<path class="st3" d="M12.8909,24.5045c-0.1602-0.0159-0.275-0.1551-0.262-0.3178c0.0129-0.1619,0.1496-0.2798,0.3112-0.2684
		c0.1714,0.0121,0.2898,0.156,0.2699,0.3279C13.1912,24.4089,13.0532,24.5206,12.8909,24.5045z"/>
	<path class="st3" d="M21.6879,24.217c-0.0037,0.1549-0.1415,0.2878-0.2988,0.2878c-0.1761,0-0.2924-0.1259-0.2855-0.3094
		c0.0063-0.1677,0.1308-0.284,0.2969-0.2775C21.5574,23.9242,21.6915,24.0637,21.6879,24.217z"/>
	<path class="st3" d="M15.3464,16.3048c-0.0231,0.0301-0.0404,0.0585-0.0632,0.0814c-0.1564,0.1579-0.3167,0.3121-0.4697,0.4733
		c-0.0644,0.0679-0.111,0.0664-0.1652-0.0045c-0.0167-0.0219-0.04-0.0386-0.0583-0.0595c-0.1492-0.1704-0.3432-0.299-0.463-0.4968
		c0.1734-0.1792,0.3485-0.3566,0.519-0.5385c0.0625-0.0667,0.1082-0.063,0.1699,0.001c0.1493,0.1551,0.304,0.3049,0.4559,0.4575
		C15.2958,16.2428,15.3165,16.2701,15.3464,16.3048z"/>
	<path class="st3" d="M19.4746,16.9291c-0.0297-0.0251-0.0564-0.0446-0.0795-0.0676c-0.1577-0.1568-0.3116-0.3175-0.4733-0.4701
		c-0.0679-0.0641-0.0632-0.1052,0.0009-0.1665c0.1557-0.1488,0.309-0.3005,0.4569-0.4571c0.07-0.0742,0.1187-0.0687,0.1859,0.0021
		c0.1436,0.151,0.2903,0.2995,0.4426,0.4417c0.0818,0.0764,0.0722,0.1292-0.0044,0.2013c-0.1518,0.1428-0.296,0.2936-0.4438,0.4406
		C19.5359,16.8773,19.5092,16.8986,19.4746,16.9291z"/>
	<path class="st3" d="M18.2805,15.733c-0.035-0.0299-0.0683-0.0548-0.0977-0.0838c-0.1433-0.1422-0.2831-0.2881-0.4293-0.4273
		c-0.0668-0.0636-0.0898-0.1093-0.0096-0.1839c0.158-0.1468,0.3094-0.301,0.4585-0.457c0.0602-0.0629,0.1024-0.0731,0.1675-0.0049
		c0.1536,0.1613,0.3137,0.3164,0.4721,0.473c0.044,0.0435,0.0725,0.082,0.0144,0.1383c-0.1702,0.1644-0.3374,0.3319-0.5068,0.4972
		C18.3309,15.7031,18.306,15.7155,18.2805,15.733z"/>
	<path class="st3" d="M20.0844,13.9403c-0.0213,0.0281-0.0354,0.0519-0.0543,0.071c-0.1612,0.1627-0.3253,0.3226-0.4841,0.4875
		c-0.0653,0.0679-0.1057,0.0303-0.1533-0.0178c-0.1513-0.1531-0.3006-0.3082-0.4571-0.4557
		c-0.0753-0.0709-0.0691-0.1236,0.0062-0.1819c0.0109-0.0084,0.0196-0.0197,0.0299-0.0288c0.1745-0.1546,0.3294-0.475,0.5061-0.4445
		c0.2028,0.0351,0.3636,0.3147,0.5417,0.489C20.0429,13.8822,20.0609,13.9108,20.0844,13.9403z"/>
	<path class="st3" d="M12.9721,13.9358c-0.0216,0.0275-0.0365,0.0512-0.0558,0.0706c-0.1617,0.1632-0.3253,0.3245-0.4859,0.4889
		c-0.0492,0.0504-0.0878,0.054-0.1386,0.0019c-0.1604-0.1644-0.3221-0.3279-0.4871-0.4876
		c-0.0609-0.059-0.0491-0.0988,0.0059-0.1522c0.1599-0.1552,0.3175-0.3127,0.4721-0.4731c0.0557-0.0578,0.0958-0.0614,0.1532-0.0017
		c0.1545,0.1605,0.3141,0.316,0.471,0.4742C12.9303,13.8804,12.9494,13.9081,12.9721,13.9358z"/>
	<path class="st3" d="M13.5453,15.7281c-0.0218-0.0149-0.0471-0.0272-0.0661-0.0459c-0.1628-0.1609-0.3225-0.3251-0.4875-0.4839
		c-0.0632-0.0608-0.0447-0.1018,0.0086-0.1537c0.159-0.1549,0.3166-0.3113,0.4716-0.4704c0.0534-0.0548,0.0931-0.0651,0.1517-0.0043
		c0.1588,0.1649,0.3223,0.3252,0.4855,0.4859c0.0409,0.0402,0.0556,0.0746,0.0085,0.1212c-0.1728,0.1707-0.3436,0.3433-0.516,0.5143
		C13.5873,15.7055,13.5675,15.7139,13.5453,15.7281z"/>
	<path class="st3" d="M16.5275,17.4953c-0.0241,0.0291-0.0402,0.0518-0.0595,0.0713c-0.1569,0.1581-0.3169,0.3131-0.4703,0.4744
		c-0.065,0.0683-0.1089,0.0592-0.1695-0.004c-0.1491-0.1558-0.3013-0.3089-0.4571-0.458c-0.0646-0.0618-0.0723-0.1101,0.0008-0.1663
		c0.0218-0.0168,0.0379-0.0408,0.059-0.0589c0.1721-0.1483,0.324-0.4676,0.4934-0.4313c0.2069,0.0444,0.3649,0.3179,0.543,0.4933
		C16.4903,17.4384,16.5069,17.4676,16.5275,17.4953z"/>
	<path class="st3" d="M21.2722,15.126c-0.0198,0.0247-0.0385,0.0525-0.0616,0.0758c-0.1518,0.1531-0.3078,0.3023-0.4556,0.4592
		c-0.07,0.0743-0.1195,0.0698-0.186-0.0014c-0.1654-0.1774-0.3356-0.3502-0.504-0.5249c0.1339-0.2141,0.3421-0.3588,0.5076-0.5434
		c0.042-0.0469,0.0864-0.0954,0.1539-0.0269c0.166,0.1685,0.3344,0.3345,0.5013,0.5021
		C21.2421,15.0808,21.2523,15.0991,21.2722,15.126z"/>
	<path class="st3" d="M21.84,14.5486c-0.0221-0.0166-0.0464-0.0307-0.0657-0.0499c-0.1634-0.1621-0.325-0.326-0.4893-0.4873
		c-0.0518-0.0508-0.0511-0.0877,0.0068-0.1342c0.1793-0.1441,0.3573-0.29,0.5322-0.4395c0.0607-0.0519,0.104-0.0503,0.159,0.0069
		c0.1355,0.1406,0.275,0.2774,0.4135,0.415c0.042,0.0417,0.0783,0.0795,0.019,0.1378c-0.174,0.1712-0.3455,0.345-0.5189,0.5169
		C21.8826,14.5283,21.8617,14.5358,21.84,14.5486z"/>
	<path class="st3" d="M17.0979,14.5519c-0.0336-0.0288-0.0607-0.0495-0.0847-0.0733c-0.1482-0.1473-0.2924-0.2988-0.4449-0.4415
		c-0.0804-0.0751-0.0807-0.1308,0.0019-0.2009c0.0848-0.0719,0.1628-0.1519,0.2438-0.2282c0.096-0.0904,0.1919-0.2529,0.2883-0.2533
		c0.1301-0.0004,0.2146,0.1746,0.3172,0.2752c0.3114,0.3052,0.3095,0.3071-0.0026,0.6193
		c-0.0788,0.0788-0.1569,0.1582-0.2367,0.2361C17.1567,14.5082,17.1291,14.5268,17.0979,14.5519z"/>
	<path class="st2" d="M14.7267,19.1857c-0.1631,0.0271-0.2305-0.1078-0.3209-0.1964c-0.3095-0.3032-0.3076-0.3051,0.0006-0.6133
		c0.32-0.32,0.32-0.32,0.639-0.0011c0.3089,0.3089,0.3109,0.3109,0.0019,0.6134C14.9568,19.077,14.8897,19.2122,14.7267,19.1857z"/>
	<path class="st3" d="M14.7303,13.3268c0.0274,0.0233,0.0496,0.0398,0.0689,0.059c0.1623,0.1615,0.3234,0.3244,0.4867,0.4851
		c0.0469,0.0461,0.0632,0.0848,0.0086,0.1383c-0.1636,0.1602-0.3264,0.3216-0.4853,0.4864
		c-0.0618,0.0641-0.1028,0.0408-0.1537-0.0112c-0.1553-0.1587-0.3117-0.3166-0.4713-0.471
		c-0.0552-0.0534-0.067-0.0897-0.0042-0.1493c0.1611-0.1528,0.3153-0.3129,0.4727-0.4695
		C14.6763,13.3713,14.7026,13.351,14.7303,13.3268z"/>
	<path class="st3" d="M18.8914,17.4911c0.0012,0.0413-0.5615,0.6089-0.5991,0.6049c-0.0184-0.002-0.0373-0.0157-0.0524-0.0284
		c-0.0264-0.0224-0.0515-0.047-0.0747-0.0729c-0.1563-0.1744-0.3519-0.312-0.4808-0.5121c0.1747-0.1793,0.3494-0.3584,0.5239-0.5378
		c0.0401-0.0413,0.0746-0.0812,0.1348-0.0192c0.1698,0.1748,0.3439,0.3454,0.5157,0.5183
		C18.8729,17.4581,18.882,17.4772,18.8914,17.4911z"/>
	<path class="st3" d="M17.1059,15.7053c0.0219,0.0169,0.0451,0.0313,0.0639,0.05c0.1626,0.1618,0.3227,0.3263,0.4873,0.486
		c0.0643,0.0623,0.0374,0.1017-0.0139,0.1516c-0.1543,0.1503-0.3085,0.301-0.4562,0.4578c-0.0641,0.0679-0.107,0.0616-0.1675-0.0011
		c-0.1497-0.1551-0.3043-0.3051-0.4563-0.458c-0.0381-0.0383-0.0922-0.0761-0.0316-0.137c0.1716-0.1724,0.3437-0.3444,0.5166-0.5157
		C17.0621,15.7251,17.083,15.7184,17.1059,15.7053z"/>
	<path class="st3" d="M15.9257,14.5254c0.0262,0.0214,0.0541,0.0406,0.0778,0.064c0.1484,0.147,0.2932,0.2978,0.4448,0.4415
		c0.0709,0.0672,0.0776,0.1163,0.003,0.1866c-0.1519,0.1433-0.2984,0.2925-0.4435,0.4428
		c-0.0591,0.0612-0.1049,0.0763-0.1712,0.0068c-0.1538-0.1612-0.3131-0.3172-0.4713-0.4741
		c-0.0455-0.0451-0.0665-0.0866-0.011-0.1397c0.1709-0.1637,0.3403-0.329,0.5111-0.4928
		C15.8796,14.5471,15.8999,14.5401,15.9257,14.5254z"/>
	<path class="st2" d="M19.4539,18.9778c-0.0912-0.0133-0.2061,0.0312-0.3096-0.0273c-0.275-0.1553-0.2935-0.292-0.0636-0.5147
		c0.1285-0.1245,0.2346-0.3419,0.3935-0.3464c0.1615-0.0046,0.2605,0.2232,0.3958,0.3393c0.0053,0.0045,0.0109,0.0091,0.0146,0.0147
		c0.0564,0.087,0.2301,0.1382,0.1567,0.2591c-0.0844,0.139-0.1897,0.3-0.4035,0.2761
		C19.5831,18.9725,19.527,18.9778,19.4539,18.9778z"/>
	<path class="st2" d="M23.3563,17.2437c-0.0406,0.2258-0.0641,0.4266-0.1147,0.6203c-0.059,0.2257-0.2017,0.2578-0.3636,0.0967
		c-0.1285-0.128-0.254-0.2593-0.386-0.3836c-0.0646-0.0609-0.072-0.1036-0.0033-0.1685c0.1521-0.1437,0.3004-0.2918,0.4441-0.4439
		c0.0736-0.0779,0.1372-0.0919,0.2031-0.0011C23.209,17.0642,23.362,17.1103,23.3563,17.2437z"/>
	<path class="st2" d="M21.7439,18.8895c-0.1376-0.0147-0.2881,0.0513-0.41-0.0822c-0.0791-0.0867-0.1122-0.143-0.0094-0.2353
		c0.1751-0.1573,0.3284-0.4403,0.5119-0.4585c0.1899-0.0189,0.3357,0.2889,0.5081,0.4461c0.0425,0.0388,0.1204,0.077,0.0854,0.1492
		c-0.0359,0.0739-0.096,0.1393-0.1905,0.143C22.0737,18.858,21.9136,18.9284,21.7439,18.8895z"/>
	<path class="st2" d="M17.4531,18.4263c0.1037,0.0686,0.2647,0.1581,0.2391,0.2582c-0.0411,0.1607-0.197,0.2855-0.3479,0.364
		c-0.229,0.119-0.4292,0.067-0.6133-0.1168c-0.0049-0.0049-0.0098-0.0098-0.0147-0.0147c-0.263-0.2629-0.263-0.2629,0.0575-0.4937
		C17.0003,18.4242,17.2267,18.4252,17.4531,18.4263z"/>
	<path class="st2" d="M14.0365,17.5893c-0.1165,0.1738-0.2861,0.2977-0.4242,0.4513c-0.0654,0.0727-0.1164,0.0434-0.1721-0.0137
		c-0.1402-0.1432-0.2828-0.284-0.4247-0.4256c-0.0516-0.0515-0.1034-0.1124-0.0357-0.177c0.1125-0.1073,0.1896-0.26,0.3601-0.2973
		C13.5722,17.2811,13.8043,17.4352,14.0365,17.5893z"/>
	<path class="st2" d="M11.6491,15.2081c-0.07,0.202-0.2604,0.3003-0.3906,0.4504c-0.0617,0.0711-0.0966,0.0084-0.1187-0.0449
		c-0.0928-0.2247-0.1977-0.4458-0.2699-0.677c-0.062-0.1987,0.1326-0.2771,0.2459-0.37c0.1053-0.0863,0.1645,0.0561,0.2311,0.115
		c0.0454,0.0401,0.074,0.099,0.1101,0.1496c0.0201,0.0186,0.0238,0.0615,0.0673,0.0455l-0.004-0.0037
		C11.4966,15.0104,11.6217,15.0905,11.6491,15.2081z"/>
	<path class="st3" d="M21.6597,16.7028c-0.1669-0.0702-0.2537-0.2311-0.3857-0.3409c-0.0535-0.0445-0.0291-0.0828,0.0098-0.1211
		c0.0695-0.0685,0.138-0.1379,0.2069-0.2069c0.3951-0.395,0.3951-0.395,0.7454,0.0539
		C22.0441,16.2929,21.8519,16.4979,21.6597,16.7028z"/>
	<path class="st2" d="M23.128,14.6672c0.2036,0.0796,0.3088,0.2711,0.461,0.409c0.0597,0.0541,0.0035,0.1005-0.035,0.1396
		c-0.1124,0.114-0.226,0.2269-0.3393,0.3401c-0.2026,0.2023-0.2311,0.2-0.4187-0.0231c-0.0329-0.0391-0.0536-0.0805-0.0604-0.1299
		C22.8664,15.1577,22.9972,14.9124,23.128,14.6672z"/>
	<path class="st2" d="M12.6931,16.5581c-0.0409,0.1518-0.1807,0.2207-0.2762,0.3264c-0.063,0.0697-0.1108,0.0065-0.1542-0.0366
		c-0.1377-0.1364-0.2713-0.2771-0.4124-0.4098c-0.0922-0.0868-0.0937-0.1635,0.0036-0.2405
		c0.1006-0.0797,0.1565-0.2167,0.3032-0.2373C12.3357,16.1597,12.5144,16.3589,12.6931,16.5581z"/>
	<path class="st3" d="M10.8694,12.6173c0.2614,0.0232,0.5228,0.0456,0.7841,0.0701c0.0461,0.0043,0.1054-0.0033,0.1205,0.0577
		c0.0113,0.0458-0.0308,0.0734-0.0592,0.1021c-0.1463,0.1474-0.2978,0.29-0.4388,0.4424c-0.0762,0.0824-0.1297,0.0784-0.1966-0.0049
		c-0.0683-0.0849-0.1711-0.1419-0.2046-0.2549C10.8716,12.8923,10.809,12.7556,10.8694,12.6173z"/>
	<path class="st2" d="M20.9799,17.2598c0.1206,0.0067,0.1674,0.1145,0.2454,0.1794c0.0406,0.0338,0.0362,0.0692-0.0007,0.1057
		c-0.1731,0.1714-0.3451,0.3438-0.5182,0.5152c-0.0352,0.0348-0.0777,0.0375-0.1098,0.0002
		c-0.1068-0.1241-0.267-0.2027-0.3201-0.3727C20.511,17.5451,20.7454,17.4025,20.9799,17.2598z"/>
	<path class="st3" d="M20.9799,17.2598c-0.2344,0.1426-0.4688,0.2852-0.7033,0.4279c-0.2556-0.1245-0.2674-0.1721-0.087-0.3528
		c0.1127-0.1129,0.2358-0.2176,0.3358-0.3409c0.1054-0.1298,0.1859-0.1131,0.2708,0.0093
		C20.8562,17.0898,20.989,17.1242,20.9799,17.2598z"/>
	<path class="st3" d="M12.9877,12.7734c0.3467,0.023,0.6933,0.0461,1.04,0.069c0.0114,0.021,0.0228,0.042,0.0343,0.063
		c-0.1537,0.1392-0.3089,0.2768-0.46,0.4188c-0.0469,0.0441-0.0796,0.04-0.1221-0.002c-0.1712-0.169-0.3439-0.3364-0.516-0.5044
		C12.9719,12.803,12.9797,12.7882,12.9877,12.7734z"/>
	<path class="st3" d="M12.6931,16.5581c-0.1786-0.1992-0.3573-0.3985-0.5359-0.5977c0.0886-0.2621,0.1851-0.2921,0.3646-0.113
		c0.0976,0.0974,0.1864,0.2063,0.2947,0.2899c0.1627,0.1257,0.1601,0.2313-0.0039,0.3465
		C12.7738,16.5109,12.7473,16.5562,12.6931,16.5581z"/>
	<path class="st2" d="M12.9403,18.6383c0.0075,0.1099-0.1369,0.2229-0.2292,0.1987c-0.2126-0.056-0.4778-0.3675-0.5029-0.5801
		c-0.0105-0.0891,0.0552-0.121,0.1028-0.1656c0.059-0.0552,0.1005-0.0021,0.1392,0.0361c0.1428,0.1414,0.2851,0.2833,0.426,0.4266
		C12.9045,18.5826,12.9255,18.6184,12.9403,18.6383z"/>
	<path class="st3" d="M23.128,14.6672c-0.1308,0.2452-0.2617,0.4905-0.3925,0.7358c-0.1461-0.022-0.2005-0.1579-0.2948-0.2429
		c-0.0532-0.048,0.0114-0.0855,0.0425-0.1171c0.1461-0.1486,0.297-0.2925,0.4406-0.4434
		C23.0471,14.47,23.1056,14.5072,23.128,14.6672z"/>
	<path class="st2" d="M21.6597,16.7028c0.1922-0.205,0.3843-0.41,0.5765-0.6149c0.2549,0.1933,0.2579,0.2169,0.0439,0.4412
		c-0.0769,0.0807-0.1572,0.1579-0.236,0.2367C21.8421,16.9676,21.8248,16.9647,21.6597,16.7028z"/>
	<path class="st3" d="M14.0365,17.5893c-0.2322-0.1541-0.4643-0.3083-0.6965-0.4624c0.1181-0.2668,0.1806-0.2812,0.3755-0.0865
		c0.123,0.1229,0.2429,0.2493,0.3701,0.3678C14.1919,17.5074,14.1511,17.5557,14.0365,17.5893z"/>
	<path class="st3" d="M15.5254,12.9553c0.2528-0.0223,0.4936,0.0343,0.7379,0.036c-0.0028,0.0245,0.0007,0.0414-0.0063,0.049
		C15.9013,13.4297,15.8621,13.4255,15.5254,12.9553z"/>
	<path class="st3" d="M17.4531,18.4263c-0.2264-0.001-0.4529-0.002-0.6793-0.003c0.0493-0.1469,0.1882-0.2169,0.2808-0.3265
		c0.0355-0.042,0.0712-0.0301,0.1042,0.0079C17.2542,18.2143,17.3801,18.2961,17.4531,18.4263z"/>
	<path class="st2" d="M23.9576,13.5725c-0.0289,0.1739-0.0569,0.348-0.0871,0.5217c-0.01,0.0573-0.0532,0.0712-0.0869,0.0315
		c-0.0639-0.0756-0.2229-0.1208-0.1248-0.2624C23.7353,13.7526,23.8537,13.6756,23.9576,13.5725z"/>
	<path class="st2" d="M10.8694,12.6173c-0.0604,0.1383,0.0022,0.2751,0.0052,0.4126c-0.0674-0.0084-0.1118-0.0557-0.1462-0.1043
		c-0.0462-0.0652-0.1792-0.0907-0.125-0.2024C10.6539,12.6194,10.7599,12.6012,10.8694,12.6173z"/>
	<path class="st3" d="M18.055,13.1124c0.1595,0.0087,0.2885,0.0159,0.4207,0.0231C18.3356,13.4228,18.2983,13.4226,18.055,13.1124z"
		/>
	<path class="st3" d="M11.6491,15.2081c-0.0274-0.1177-0.1525-0.1978-0.1286-0.335c0.0878,0.0329,0.1364,0.1119,0.198,0.174
		C11.8188,15.1482,11.7787,15.2001,11.6491,15.2081z"/>
	<path class="st3" d="M11.5244,14.8767c-0.0435,0.016-0.0472-0.0269-0.0673-0.0455C11.4874,14.8349,11.5176,14.8385,11.5244,14.8767
		z"/>
	<path class="st5" d="M11.8991,19.5222c-0.0059-0.0033-0.0118-0.0066-0.0177-0.01c0.0062,0.003,0.0123,0.0061,0.0184,0.0092
		C11.8999,19.5215,11.8991,19.5222,11.8991,19.5222z"/>
	<path class="st5" d="M6.3225,9.9793c-0.0005,0.2695-0.1912,0.4729-0.4477,0.4775c-0.2514,0.0045-0.4855-0.2248-0.4869-0.4769
		C5.3864,9.7121,5.5899,9.5211,5.8741,9.5235C6.1637,9.5259,6.323,9.6879,6.3225,9.9793z"/>
	<path class="st0" d="M21.4005,23.9179c-0.1661-0.0065-0.2906,0.1098-0.2969,0.2775c-0.0068,0.1835,0.1094,0.3095,0.2855,0.3094
		c0.1573,0,0.2952-0.1329,0.2988-0.2878C21.6915,24.0637,21.5574,23.9242,21.4005,23.9179z"/>
	<path class="st0" d="M12.9401,23.9184c-0.1615-0.0114-0.2983,0.1065-0.3112,0.2684c-0.013,0.1627,0.1018,0.302,0.262,0.3179
		c0.1623,0.0161,0.3003-0.0956,0.3191-0.2584C13.2299,24.0743,13.1115,23.9304,12.9401,23.9184z"/>
	<path class="st5" d="M7.1812,10.0894c0.1515,0.0638,0.3039,0.1256,0.4546,0.1912c0.0604,0.0263,0.1406,0.0315,0.1649,0.1132
		c0.2641,0.0129,0.4405,0.1473,0.5376,0.3898c0.1442,0.3603,0.2877,0.721,0.442,1.1082c0.0864-0.3038,0.2841-0.3893,0.5597-0.3694
		c0.4903,0.0357,0.9816,0.0581,1.4725,0.086c0.0139-0.1953,0.0277-0.3907,0.0415-0.5861c-0.5768,0.0009-1.1486-0.1008-1.726-0.0842
		c-0.1133,0.0033-0.1334-0.074-0.1629-0.1544C8.849,10.4685,8.7303,10.151,8.4077,9.9822c-0.1594-0.0834-0.329-0.1477-0.4949-0.2185
		C7.7723,9.7037,7.629,9.6501,7.4894,9.5879C7.2869,9.4978,7.0995,9.4086,6.9518,9.2193c0.1505,0.2142,0.2407,0.4741,0.2407,0.7563
		C7.1926,10.0146,7.1845,10.0513,7.1812,10.0894z"/>
	<path class="st5" d="M24.5462,11.9485c-0.2761-0.0298-0.555-0.034-0.8325-0.0499c-0.0096,0.1922-0.0191,0.3842-0.0287,0.5764
		c0.2142,0.0182,0.4293,0.0584,0.6425,0.05c0.4671-0.0183,0.6066,0.2627,0.5442,0.6572c-0.1404,0.8883-0.3017,1.7732-0.445,2.661
		c-0.1621,1.0041-0.3185,2.009-0.4673,3.0151c-0.041,0.2773-0.145,0.4766-0.4223,0.5865c-0.2318,0.0919-0.4447,0.2305-0.6688,0.3426
		c-0.2252,0.1126-0.4789,0.1007-0.7143,0.1015c-0.5364,0.0018-1.0709,0.042-1.6057,0.0604
		c-0.6731,0.0232-1.3461,0.0555-2.0194,0.0818c-0.6173,0.024-1.2346,0.0564-1.8521,0.0828
		c-0.6661,0.0285-1.3335,0.0458-1.9979,0.0903c-0.387,0.0259-0.7783-0.0172-1.1629,0.0669
		c-0.2085,0.0455-0.3951-0.0369-0.5717-0.1472c-0.3006-0.1877-0.6044-0.3706-0.9083-0.5529
		c-0.0406-0.0243-0.0904-0.0334-0.1358-0.0496l-0.0007,0.0007c-0.0093,0.1688,0.0819,0.3072,0.1445,0.4521
		c0.0939,0.2172,0.0772,0.4095-0.0531,0.6113c-0.2299,0.3561-0.4411,0.7242-0.6622,1.0861
		c-0.0732,0.1199-0.0365,0.1628,0.0951,0.1533c0.0486-0.0035,0.0976-0.0005,0.1465-0.0005c3.7465,0,7.4928,0,11.2393,0.0001
		c0.3043,0,0.4776,0.1866,0.4358,0.4669c-0.0303,0.2024-0.2024,0.3217-0.4648,0.3291c-0.606,0.017-1.2092-0.0676-1.8156-0.0429
		c-2.3906,0.0972-4.7824,0.0244-7.1736,0.0345c-0.4012,0.0017-0.8074-0.0585-1.2081-0.0275
		c-0.6475,0.0501-1.2945,0.0294-1.9417,0.0336c-0.3624,0.0024-0.571-0.2197-0.4886-0.5077
		c0.0246-0.0858,0.0703-0.1675,0.1167-0.2449c0.2823-0.4711,0.5649-0.942,0.8546-1.4086c0.0499-0.0804,0.0593-0.1388,0.0232-0.2281
		c-0.6219-1.5408-1.238-3.084-1.8582-4.6255c-0.5554-1.3802-1.1132-2.7595-1.6732-4.1379c-0.0415-0.102-0.1087-0.1935-0.1639-0.2899
		c-0.0802,0.049-0.1481-0.0022-0.2165-0.0301c-0.1592-0.0649-0.3176-0.132-0.4763-0.1983c-0.2299,0.2091-0.5312,0.3398-0.865,0.3419
		c0.0988-0.0067,0.1969-0.0143,0.2951,0.0356c0.229,0.1165,0.4654,0.2232,0.7079,0.3068c0.1522,0.0526,0.2177,0.1496,0.272,0.2857
		c0.5265,1.3171,1.056,2.633,1.5865,3.9486c0.572,1.4188,1.1448,2.8373,1.7208,4.2545c0.0533,0.1311,0.0304,0.2316-0.0416,0.3497
		c-0.2681,0.4394-0.5431,0.8762-0.7803,1.3322c-0.2861,0.5499,0.0454,1.2115,0.6467,1.3643
		c0.2409,0.0611,0.485,0.0165,0.7254,0.0477c0.0157,0.079-0.0203,0.1401-0.0492,0.2022c-0.0983,0.2109-0.1457,0.4369-0.1614,0.6647
		c-0.0697,1.0128,0.639,1.9517,1.6365,2.1795c0.0549,0.0125,0.1157,0.0057,0.1174,0.0859c0.0558,0,0.1117,0,0.1675,0
		c0.1256-0.0673,0.2512-0.0673,0.3769,0c0.0558,0,0.1117,0,0.1675,0c0.0129-0.1273,0.1304-0.0931,0.1966-0.1103
		c0.9522-0.2468,1.5321-1.1078,1.5567-2.037c0.0077-0.2884-0.0766-0.5643-0.1889-0.8272c-0.0527-0.1233-0.0539-0.1698,0.1007-0.1694
		c1.4714,0.0037,2.9428,0.0036,4.4142,0c0.1507-0.0004,0.1578,0.0416,0.1024,0.1679c-0.3986,0.9097-0.1019,1.8086,0.4848,2.3729
		c0.2593,0.2494,0.5704,0.4166,0.9224,0.5054c0.058,0.0147,0.1534-0.0119,0.157,0.0975c0.0558,0,0.1117,0,0.1675,0
		c0.1256-0.0673,0.2512-0.0673,0.3769,0c0.0558,0,0.1117,0,0.1674,0c0.0045-0.0956,0.0808-0.0739,0.1385-0.0872
		c1.2987-0.2969,2.0138-1.8112,1.3974-2.9782c-0.0711-0.1348-0.0404-0.1686,0.0716-0.232c0.4177-0.2363,0.5959-0.7181,0.4431-1.1668
		c-0.1381-0.4056-0.476-0.6447-0.9233-0.6448c-3.44-0.0009-6.88-0.0006-10.32-0.0007c-0.0793,0-0.1586,0-0.2692,0
		c0.1154-0.198,0.2089-0.3592,0.3033-0.5201c0.0391-0.0665,0.0965-0.0814,0.1594-0.0401c0.2922,0.1924,0.6071,0.1713,0.9417,0.1536
		c0.6454-0.0341,1.2917-0.0593,1.9377-0.0871c0.6669-0.0287,1.3338-0.057,2.0008-0.0849c0.6322-0.0264,1.2642-0.0521,1.8961-0.0844
		c0.8685-0.0445,1.739-0.0513,2.6073-0.0975c0.3489-0.0186,0.7113,0.0042,1.0373-0.1798c0.2607-0.1472,0.529-0.2813,0.7949-0.4193
		c0.2908-0.1509,0.4824-0.3882,0.5374-0.7056c0.1516-0.8743,0.285-1.7519,0.426-2.628c0.1751-1.0884,0.3409-2.1783,0.5296-3.2643
		C25.565,12.6112,25.1824,12.0171,24.5462,11.9485z M12.8909,24.5045c-0.1602-0.0159-0.275-0.1551-0.262-0.3179
		c0.0129-0.1618,0.1497-0.2798,0.3112-0.2684c0.1714,0.0121,0.2899,0.156,0.2699,0.3278
		C13.1912,24.4088,13.0532,24.5206,12.8909,24.5045z M21.389,24.5048c-0.1761,0-0.2924-0.1259-0.2855-0.3094
		c0.0063-0.1677,0.1308-0.284,0.2969-0.2775c0.1569,0.0063,0.291,0.1458,0.2874,0.2991
		C21.6842,24.372,21.5464,24.5048,21.389,24.5048z"/>
	<path class="st3" d="M5.8857,11.2901c0.0028,0,0.0054-0.0008,0.0082-0.0008c-0.0034,0.0002-0.0069,0.0003-0.0104,0.0006
		C5.8842,11.2899,5.8849,11.2901,5.8857,11.2901z"/>
	<path class="st3" d="M6.952,9.2194C6.9293,9.1873,6.9028,9.1586,6.8776,9.1288c0.0122,0.0162,0.0258,0.03,0.0374,0.0471
		C6.9264,9.1926,6.9399,9.2041,6.952,9.2194z"/>
	<path class="st5" d="M6.5613,10.8651c-0.222-0.089-0.4296-0.1861-0.6939-0.1615c-0.3618,0.0336-0.6718-0.276-0.7097-0.6302
		C5.1174,9.697,5.3331,9.3656,5.68,9.2709c0.3649-0.0996,0.7367,0.0702,0.8731,0.4207c0.0486,0.125,0.121,0.1872,0.2371,0.2333
		c0.1314,0.0522,0.2607,0.1096,0.3911,0.1644c0.0033-0.0381,0.0114-0.0747,0.0114-0.1138c0-0.2822-0.0902-0.5421-0.2407-0.7563
		C6.94,9.204,6.9264,9.1926,6.915,9.1759C6.9033,9.1587,6.8898,9.145,6.8776,9.1287C6.6473,8.8561,6.3117,8.6792,5.9314,8.6658
		c-0.03-0.0002-0.0598-0.0017-0.0904-0.0001C5.809,8.6668,5.7783,8.6719,5.7469,8.6753C5.7124,8.679,5.6782,8.6812,5.6432,8.687
		C5.5453,8.7034,5.4578,8.7342,5.3719,8.7673c-0.4661,0.2008-0.793,0.6658-0.7931,1.2082c0.0001,0.0001,0.0001,0.0002,0,0.0003
		c0.0001,0.4487,0.2245,0.844,0.5657,1.0811c0.0177,0.0118,0.0367,0.0221,0.0551,0.033c0.057,0.0356,0.1148,0.0702,0.1772,0.0968
		c0.0797,0.0326,0.167,0.0569,0.2575,0.0779c0.0807,0.0159,0.1639,0.0251,0.2492,0.0253c0.0034-0.0002,0.0069-0.0004,0.0104-0.0006
		c0.3338-0.0021,0.6351-0.1328,0.865-0.3419C6.693,10.9199,6.6275,10.8917,6.5613,10.8651z"/>
</g>
</svg>
