<?xml version="1.0" encoding="utf-8"?>
<!-- Generator: Adobe Illustrator 25.0.0, SVG Export Plug-In . SVG Version: 6.00 Build 0)  -->
<svg version="1.1" id="Layer_1" xmlns="http://www.w3.org/2000/svg" xmlns:xlink="http://www.w3.org/1999/xlink" x="0px" y="0px"
	 viewBox="0 0 36 36" style="enable-background:new 0 0 36 36;" xml:space="preserve">
<style type="text/css">
	.st0{fill:none;}
	.st1{fill:url(#SVGID_1_);}
	.st2{fill:url(#SVGID_2_);}
	.st3{fill:url(#SVGID_3_);}
</style>
<rect class="st0" width="36" height="36"/>
<g>
	<linearGradient id="SVGID_1_" gradientUnits="userSpaceOnUse" x1="0" y1="14.4138" x2="36" y2="14.4138">
		<stop  offset="0" style="stop-color:#21B9EC"/>
		<stop  offset="1" style="stop-color:#3BC4ED"/>
	</linearGradient>
	<path class="st1" d="M0,5.0425c4.6176,4.8585,8.9323,5.585,25.939,5.585c17.0016,0,9.5275,3.784-0.9739,13.1575
		c3.329-5.7899,14.7704-10.9146-3.9844-10.6255C3.0053,13.4317,1.9426,7.9597,0,5.0425z"/>
	<linearGradient id="SVGID_2_" gradientUnits="userSpaceOnUse" x1="6.9609" y1="28.3869" x2="12.1019" y2="28.3869">
		<stop  offset="0" style="stop-color:#21B9EC"/>
		<stop  offset="1" style="stop-color:#3BC4ED"/>
	</linearGradient>
	<path class="st2" d="M12.1019,28.3901c0,1.4172-1.1501,2.5673-2.5679,2.5673c-1.423,0-2.5731-1.1501-2.5731-2.5673
		c0-1.423,1.1501-2.5738,2.5731-2.5738C10.9518,25.8163,12.1019,26.9671,12.1019,28.3901z"/>
	<linearGradient id="SVGID_3_" gradientUnits="userSpaceOnUse" x1="18.6726" y1="28.3869" x2="23.8136" y2="28.3869">
		<stop  offset="0" style="stop-color:#21B9EC"/>
		<stop  offset="1" style="stop-color:#3BC4ED"/>
	</linearGradient>
	<path class="st3" d="M23.8136,28.3901c0,1.4172-1.1501,2.5673-2.5679,2.5673c-1.4217,0-2.5731-1.1501-2.5731-2.5673
		c0-1.423,1.1515-2.5738,2.5731-2.5738C22.6635,25.8163,23.8136,26.9671,23.8136,28.3901z"/>
</g>
</svg>
