<?xml version="1.0" encoding="utf-8"?>
<!-- Generator: Adobe Illustrator 25.0.0, SVG Export Plug-In . SVG Version: 6.00 Build 0)  -->
<svg version="1.1" id="Layer_1" xmlns="http://www.w3.org/2000/svg" xmlns:xlink="http://www.w3.org/1999/xlink" x="0px" y="0px"
	 viewBox="0 0 36 36" style="enable-background:new 0 0 36 36;" xml:space="preserve">
<style type="text/css">
	.st0{fill:#95BF47;}
	.st1{fill:#5E8E3E;}
	.st2{fill:#FFFFFF;}
</style>
<g>
	<path class="st0" d="M29.8983,7.0094c-0.0248-0.1811-0.1834-0.2813-0.3142-0.2922c-0.1308-0.0109-2.8979-0.2159-2.8979-0.2159
		s-1.9217-1.9078-2.1326-2.1189c-0.211-0.2111-0.623-0.147-0.783-0.1c-0.0238,0.007-0.4199,0.1293-1.0756,0.3321
		c-0.6419-1.8472-1.7748-3.5448-3.7678-3.5448c-0.0551,0-0.1117,0.0025-0.1686,0.0056C18.1918,0.3257,17.4898,0,16.8833,0
		c-4.6428,0-6.8609,5.8041-7.5564,8.7535C7.5228,9.3124,6.2412,9.7098,6.0774,9.7612c-1.0071,0.3161-1.0387,0.3477-1.1708,1.2965
		c-0.1,0.7184-2.7348,21.0954-2.7348,21.0954L22.7036,36l11.1247-2.4068C33.8282,33.5932,29.9231,7.1905,29.8983,7.0094z
		 M21.5601,4.9656c-0.5154,0.1595-1.1016,0.3409-1.737,0.5376c0.0004-0.1223,0.0009-0.2428,0.0009-0.3745
		c0-1.148-0.1592-2.0724-0.415-2.8051C20.436,2.4525,21.1202,3.6209,21.5601,4.9656z M18.1354,2.551
		c0.2854,0.7155,0.4711,1.7423,0.4711,3.1277c0,0.0709-0.0006,0.1358-0.0011,0.2015C17.4752,6.23,16.2476,6.61,15.0172,6.9911
		C15.7082,4.3247,17.0029,3.0369,18.1354,2.551z M16.7557,1.2455c0.2006,0,0.4023,0.0679,0.5957,0.201
		c-1.4881,0.7001-3.0829,2.4637-3.7566,5.985c-0.9844,0.3049-1.9465,0.6029-2.8362,0.8785
		C11.5477,5.6238,13.4209,1.2455,16.7557,1.2455z"/>
	<path class="st1" d="M29.5841,6.7173c-0.1308-0.0109-2.8979-0.2159-2.8979-0.2159s-1.9217-1.9078-2.1326-2.1189
		c-0.0787-0.0787-0.1854-0.1191-0.2965-0.1364l-1.5524,31.7537l11.1235-2.4065c0,0-3.9051-26.4027-3.9299-26.5838
		C29.8736,6.8284,29.7149,6.7282,29.5841,6.7173z"/>
	<path class="st2" d="M18.9271,12.8642l-1.3716,4.0804c0,0-1.202-0.6417-2.6751-0.6417c-2.1599,0-2.2684,1.3556-2.2684,1.6971
		c0,1.8637,4.8577,2.5776,4.8577,6.9427c0,3.4342-2.178,5.6459-5.1152,5.6459c-3.5246,0-5.3268-2.1936-5.3268-2.1936l0.9437-3.1179
		c0,0,1.8527,1.5906,3.4161,1.5906c1.0212,0,1.437-0.8043,1.437-1.3918c0-2.4311-3.9855-2.5395-3.9855-6.5341
		c0-3.3619,2.413-6.6154,7.2842-6.6154C18,12.3265,18.9271,12.8642,18.9271,12.8642z"/>
</g>
</svg>
