<?xml version="1.0" encoding="utf-8"?>
<!-- Generator: Adobe Illustrator 24.0.0, SVG Export Plug-In . SVG Version: 6.00 Build 0)  -->
<!DOCTYPE svg PUBLIC "-//W3C//DTD SVG 1.1//EN" "http://www.w3.org/Graphics/SVG/1.1/DTD/svg11.dtd" [
	<!ENTITY ns_extend "http://ns.adobe.com/Extensibility/1.0/">
	<!ENTITY ns_ai "http://ns.adobe.com/AdobeIllustrator/10.0/">
	<!ENTITY ns_graphs "http://ns.adobe.com/Graphs/1.0/">
	<!ENTITY ns_vars "http://ns.adobe.com/Variables/1.0/">
	<!ENTITY ns_imrep "http://ns.adobe.com/ImageReplacement/1.0/">
	<!ENTITY ns_sfw "http://ns.adobe.com/SaveForWeb/1.0/">
	<!ENTITY ns_custom "http://ns.adobe.com/GenericCustomNamespace/1.0/">
	<!ENTITY ns_adobe_xpath "http://ns.adobe.com/XPath/1.0/">
]>
<svg version="1.1" id="Layer_1" xmlns:x="&ns_extend;" xmlns:i="&ns_ai;" xmlns:graph="&ns_graphs;"
	 xmlns="http://www.w3.org/2000/svg" xmlns:xlink="http://www.w3.org/1999/xlink" x="0px" y="0px" viewBox="0 0 30 30"
	 style="enable-background:new 0 0 30 30;" xml:space="preserve">
<style type="text/css">
	.st0{fill:none;}
	.st1{fill:#222222;}
</style>
<metadata>
	<sfw  xmlns="&ns_sfw;">
		<slices></slices>
		<sliceSourceBounds  bottomLeftOrigin="true" height="30" width="30" x="-46.3261" y="14.8057"></sliceSourceBounds>
	</sfw>
</metadata>
<rect y="0" class="st0" width="30" height="30"/>
<g>
	<path class="st1" d="M6.1715,15.6217c0.3436,0.3436,0.8998,0.3436,1.2435,0l8.2067-8.2067
		c1.1658-1.1658,3.0627-1.1658,4.2278-0.0006c0.3437,0.3437,0.8999,0.3437,1.2435,0c0.3437-0.3436,0.3437-0.8998,0-1.2435
		c-1.8513-1.8513-4.8636-1.8507-6.7148,0.0006l-8.2067,8.2067C5.8278,14.7219,5.8278,15.2781,6.1715,15.6217z"/>
	<path class="st1" d="M10.1504,18.3571l8.2067-8.2067c0.3437-0.3437,0.3437-0.8998,0-1.2436c-0.3437-0.3436-0.8999-0.3436-1.2435,0
		l-8.2067,8.2067c-1.1658,1.1658-3.0626,1.1658-4.2278,0.0006c-1.1658-1.1658-1.1658-3.0626,0-4.2284l6.6019-6.6019
		c0.3436-0.3437,0.3436-0.8998,0-1.2435c-0.3437-0.3436-0.8998-0.3436-1.2436,0l-6.6019,6.6019
		c-1.8513,1.8513-1.8513,4.8642,0,6.7155C5.2869,20.209,8.2992,20.2084,10.1504,18.3571z"/>
	<path class="st1" d="M15.6217,23.8284l8.2067-8.2067c0.3437-0.3437,0.3437-0.8998,0-1.2435c-0.3437-0.3437-0.8999-0.3437-1.2435,0
		l-8.2067,8.2067c-1.1658,1.1658-3.0626,1.1658-4.2278,0.0006c-0.3436-0.3437-0.8998-0.3437-1.2435,0
		c-0.3437,0.3437-0.3437,0.8999,0,1.2435C10.7582,25.6803,13.7704,25.6798,15.6217,23.8284z"/>
	<path class="st1" d="M19.9625,24.9597l6.6019-6.6019c1.8513-1.8513,1.8513-4.8642,0-6.7155s-4.8636-1.8507-6.7148,0.0006
		l-8.2067,8.2067c-0.3437,0.3437-0.3437,0.8999,0,1.2435c0.3436,0.3437,0.8998,0.3437,1.2435,0l8.2067-8.2067
		c1.1658-1.1658,3.0627-1.1658,4.2278-0.0006c1.1658,1.1658,1.1658,3.0626,0,4.2284l-6.6019,6.6019
		c-0.3437,0.3437-0.3437,0.8999,0,1.2435C19.0627,25.3033,19.6189,25.3033,19.9625,24.9597z"/>
</g>
</svg>
