<?xml version="1.0" encoding="utf-8"?>
<!-- Generator: Adobe Illustrator 25.0.0, SVG Export Plug-In . SVG Version: 6.00 Build 0)  -->
<svg version="1.1" id="Layer_1" xmlns="http://www.w3.org/2000/svg" xmlns:xlink="http://www.w3.org/1999/xlink" x="0px" y="0px"
	 viewBox="0 0 36 36" style="enable-background:new 0 0 36 36;" xml:space="preserve">
<style type="text/css">
	.st0{fill:none;}
</style>
<rect class="st0" width="36" height="36"/>
<g id="XMLID_176_">
	<g id="XMLID_199_">
		<g id="XMLID_200_">
			<path id="XMLID_204_" d="M20.5929,11.2719c-0.7124,0.3731-0.9777,1.0035-0.9777,2.7448c0,0,0.3607-0.3489,0.8957-0.5428
				c0.3901-0.1413,0.7232-0.3564,0.9159-0.4975c0.602-0.4409,0.695-1.0089,0.6951-1.9648
				C22.1219,11.0116,21.1403,10.9852,20.5929,11.2719z"/>
			<path id="XMLID_203_" d="M16.3679,11.6798c-0.581,0.5122-0.7507,1.3283-0.7507,1.3283l-1.9234,7.4521l-1.5997-6.099
				c-0.1558-0.6484-0.4368-1.45-0.8811-1.992c-0.566-0.6905-1.7168-0.7338-1.8394-0.7338c-0.1226,0-1.2733,0.0433-1.8394,0.7338
				c-0.4443,0.542-0.7253,1.3437-0.8811,1.992l-1.5997,6.099l-1.9234-7.4521c0,0-0.1697-0.8161-0.7507-1.3283
				c-0.9421-0.8306-2.3548-0.6529-2.3548-0.6529l3.6833,13.9269c0,0,1.2152,0.0875,1.8232-0.2225
				c0.7986-0.4071,1.1788-0.7212,1.6621-2.616c0.4309-1.6894,1.6355-6.6516,1.748-7.0048c0.0556-0.1746,0.1261-0.5919,0.4325-0.5919
				c0.3134,0,0.3779,0.4169,0.4325,0.5919c0.1105,0.3538,1.3171,5.3154,1.748,7.0048c0.4833,1.8949,0.8635,2.2089,1.6621,2.616
				c0.608,0.3099,1.8232,0.2225,1.8232,0.2225l3.6833-13.9269C18.7227,11.0269,17.3101,10.8493,16.3679,11.6798z"/>
			<path id="XMLID_202_" d="M22.1208,13.3008c0,0-0.2304,0.3562-0.7561,0.6502c-0.3376,0.1888-0.6615,0.3166-1.0092,0.4834
				c-0.5825,0.2795-0.7403,0.5908-0.7403,1.0657v0.1583v0.7338v0.0194v0.1654v8.377c0,0,0.9294,0.1175,1.5374-0.1925
				c0.7826-0.399,0.9624-0.7835,0.9693-2.5155v-8.441l-0.0011,0.0003V13.3008z"/>
			<path id="XMLID_201_" d="M31.302,18.0242l4.6735-6.9511c0,0-1.9725-0.3358-2.9492,0.5532
				c-0.6249,0.5688-1.3238,1.5918-1.3238,1.5918l-1.7195,2.4788c-0.0833,0.1288-0.1927,0.2691-0.367,0.2691
				s-0.2837-0.1403-0.367-0.2691l-1.7195-2.4788c0,0-0.6988-1.023-1.3238-1.5918c-0.9767-0.889-2.9491-0.5532-2.9491-0.5532
				l4.6735,6.9511l-4.6612,6.9296c0,0,2.0541,0.2593,3.0308-0.6298c0.6249-0.5688,1.2299-1.4938,1.2299-1.4938l1.7195-2.4788
				c0.0833-0.1289,0.1927-0.2691,0.367-0.2691s0.2837,0.1403,0.367,0.2691l1.7195,2.4788c0,0,0.6404,0.925,1.2653,1.4938
				c0.9767,0.889,2.9951,0.6298,2.9951,0.6298L31.302,18.0242z"/>
		</g>
	</g>
</g>
</svg>
