<?xml version="1.0" encoding="utf-8"?>
<!-- Generator: Adobe Illustrator 25.0.0, SVG Export Plug-In . SVG Version: 6.00 Build 0)  -->
<svg version="1.1" id="Layer_1" xmlns="http://www.w3.org/2000/svg" xmlns:xlink="http://www.w3.org/1999/xlink" x="0px" y="0px"
	 viewBox="0 0 36 36" style="enable-background:new 0 0 36 36;" xml:space="preserve">
<style type="text/css">
	.st0{fill:none;}
	.st1{fill-rule:evenodd;clip-rule:evenodd;fill:#7F54B3;}
</style>
<rect class="st0" width="36" height="36"/>
<g>
	<path class="st1" d="M32.641,9.5258H3.3641c-1.8454,0-3.359,1.5136-3.3382,3.359v11.1758c0,1.8454,1.4929,3.359,3.359,3.359
		h13.8506l6.3447,3.5248l-1.4307-3.5248H32.641c1.8454,0,3.359-1.4929,3.359-3.359V12.8847
		C35.9793,11.0187,34.4864,9.5258,32.641,9.5258z M2.7421,12.1176c-0.4147,0.0207-0.7257,0.1866-0.933,0.4562
		S1.5395,13.175,1.5809,13.569c0.8708,5.5153,1.6795,9.2268,2.4259,11.1551c0.2903,0.705,0.622,1.0367,1.0367,1.016
		c0.622-0.0415,1.3477-0.8916,2.2186-2.5503c0.4562-0.933,1.1611-2.343,2.1149-4.2298c0.7879,2.7784,1.8868,4.8726,3.2553,6.2618
		c0.3732,0.394,0.7879,0.5806,1.1611,0.5391c0.3318-0.0207,0.6013-0.2073,0.7879-0.5391c0.1451-0.2695,0.2073-0.6013,0.1866-0.9745
		c-0.0829-1.3477,0.0415-3.2138,0.4147-5.5983c0.3732-2.4674,0.8501-4.2505,1.4307-5.308c0.1244-0.2281,0.1659-0.4354,0.1451-0.705
		c-0.0207-0.3318-0.1866-0.622-0.4562-0.8294c-0.2695-0.2073-0.5806-0.3318-0.933-0.2903
		c-0.4354,0.0207-0.7464,0.2281-0.9745,0.6428c-0.9123,1.6587-1.5551,4.3542-1.949,8.0864
		c-0.5598-1.4099-1.0367-3.0687-1.3892-5.0177c-0.1659-0.8708-0.5598-1.2855-1.2026-1.2441
		c-0.4354,0.0207-0.8086,0.3318-1.0989,0.8916l-3.2138,6.1374c-0.5391-2.1356-1.0367-4.7274-1.4929-7.8169
		C3.9239,12.4079,3.4885,12.0554,2.7421,12.1176z M31.086,13.175c1.0367,0.2281,1.8246,0.7879,2.343,1.7002
		c0.4769,0.7879,0.705,1.7417,0.705,2.9028c0,1.5136-0.3732,2.9028-1.1404,4.1676c-0.8916,1.4721-2.032,2.1978-3.4626,2.1978
		c-0.2488,0-0.5184-0.0207-0.7879-0.0829c-1.0367-0.2281-1.8246-0.7879-2.343-1.7002c-0.4769-0.8086-0.705-1.7832-0.705-2.9028
		c0-1.5136,0.3732-2.9028,1.1404-4.1469c0.8916-1.4721,2.0527-2.1978,3.4626-2.1978C30.5261,13.0921,30.7957,13.1128,31.086,13.175z
		 M30.4639,21.1163c0.5391-0.4769,0.9123-1.2026,1.1197-2.1771c0.0622-0.3318,0.1037-0.705,0.1037-1.0782
		c0-0.4354-0.0829-0.8916-0.2695-1.3477c-0.2281-0.5806-0.5184-0.8916-0.8708-0.9538c-0.5391-0.1037-1.0367,0.1866-1.5343,0.9123
		c-0.394,0.5598-0.6428,1.1404-0.7879,1.7417c-0.0829,0.3318-0.1037,0.705-0.1037,1.0782c0,0.4354,0.0829,0.8916,0.2695,1.3477
		c0.2281,0.5806,0.5184,0.8916,0.8708,0.9538C29.6345,21.6761,30.0285,21.5103,30.4639,21.1163z M24.2021,14.8753
		c-0.5391-0.933-1.327-1.4929-2.343-1.7002c-0.2695-0.0622-0.5391-0.0829-0.7879-0.0829c-1.4099,0-2.5503,0.7257-3.4626,2.1978
		c-0.7672,1.2441-1.1404,2.6333-1.1404,4.1469c0,1.1404,0.2281,2.0942,0.705,2.9028c0.5391,0.933,1.3063,1.4929,2.343,1.7002
		c0.2695,0.0622,0.5391,0.0829,0.7879,0.0829c1.4307,0,2.5711-0.7257,3.4626-2.1978c0.7672-1.2648,1.1404-2.654,1.1404-4.1676
		C24.9071,16.6169,24.679,15.6632,24.2021,14.8753z M22.3568,18.9392c-0.2073,0.9745-0.5806,1.7002-1.1197,2.1771
		c-0.4354,0.3732-0.8294,0.5391-1.1819,0.4769c-0.3525-0.0829-0.6428-0.3732-0.8708-0.9538
		c-0.1866-0.4562-0.2695-0.9123-0.2695-1.3477c0-0.3732,0.0207-0.7257,0.1037-1.0782c0.1244-0.6013,0.3732-1.1819,0.7879-1.7417
		c0.4769-0.7257,0.9953-1.016,1.5343-0.9123c0.3525,0.0829,0.6428,0.3732,0.8708,0.9538c0.1866,0.4562,0.2695,0.9123,0.2695,1.3477
		C22.4605,18.2342,22.4397,18.6074,22.3568,18.9392z"/>
</g>
</svg>
