<svg  viewBox="0 0 153 32" fill="none" xmlns="http://www.w3.org/2000/svg"><path d="M14.967 11.077c-.19-.191-.43-.334-.668-.478a6.355 6.355 0 0 0 1.384-3.962c0-1.91-.86-3.772-2.34-4.966C12.008.62 10.384.143 8.714.238H.5v23.635h9.215c1.862.095 3.772-.478 5.252-1.623 1.671-1.385 2.674-3.438 2.674-5.587-.048-2.196-1.003-4.25-2.674-5.586ZM4.607 4.058h3.341c1.863 0 2.483.382 2.865.86a2.634 2.634 0 0 1 0 3.533c-.382.43-1.002.812-2.865.812H4.606V4.058Zm7.877 14.897c-.573.573-1.384 1.098-3.533 1.098H4.606v-7.019H9c2.148 0 2.96.526 3.485 1.051 1.29 1.385 1.29 3.533 0 4.87ZM34.686 7.735h-3.82v16.138h3.82V7.735ZM32.777.191a2.364 2.364 0 0 0-2.388 2.387v.048a2.394 2.394 0 0 0 2.388 2.388 2.394 2.394 0 0 0 2.387-2.388c.048-1.337-1.05-2.435-2.387-2.435ZM49.249 8.785a7.759 7.759 0 0 0-4.44-1.385c-1.385 0-2.77.335-3.963 1.05-2.579 1.577-4.154 4.346-4.154 7.354a8.33 8.33 0 0 0 4.106 7.305c1.241.716 2.626 1.05 4.058 1.05 1.528.048 3.056-.43 4.297-1.289v.096a6.931 6.931 0 0 1-.811 3.772c-.764 1.098-2.101 1.719-3.438 1.623-1.958 0-3.772-.955-4.775-2.626l-.238-.334-2.817 2.626.143.239c1.814 2.482 4.727 3.867 7.83 3.724a7.446 7.446 0 0 0 6.971-4.01 11.478 11.478 0 0 0 .955-5.205V7.735H49.25v1.05Zm-.096 9.788c-.907 1.194-2.34 1.91-3.867 1.958-2.578.047-4.727-2.053-4.775-4.632v-.095a4.547 4.547 0 0 1 4.393-4.727h.191c1.576 0 3.056.716 4.01 1.957l.048 5.54ZM63.143 7.4c-1.48 0-2.96.478-4.154 1.29V.191h-3.82v23.682h3.82V13.035a5.207 5.207 0 0 1 4.059-1.958c1.145 0 2.196.478 2.912 1.385.43.525.86 1.337.86 3.342v8.07h3.82v-7.926c.142-2.006-.383-4.059-1.576-5.682A7.56 7.56 0 0 0 63.143 7.4ZM95.754 8.451c-1.194-.716-2.578-1.05-3.963-1.05a7.113 7.113 0 0 0-4.44 1.384v-1.05h-3.772v23.968h3.82v-8.785c1.24.86 2.769 1.337 4.296 1.29 1.433 0 2.818-.383 4.059-1.051 2.578-1.528 4.154-4.345 4.106-7.305 0-3.056-1.528-5.873-4.106-7.4Zm-4.488 12.08c-1.528-.048-2.96-.764-3.868-1.958v-5.538c1.003-1.242 2.483-1.958 4.011-1.958 2.53 0 4.584 2.005 4.584 4.536v.191c0 2.578-2.053 4.68-4.68 4.727h-.047ZM109.41 7.4c-4.536 0-7.879 3.534-7.879 8.404-.143 4.536 3.438 8.26 7.974 8.403h.381c2.627.096 5.11-1.003 6.781-3.008l.191-.239-2.531-2.435-.239.287a5.045 5.045 0 0 1-4.154 1.957c-2.291 0-4.249-1.67-4.583-3.915h11.793l.048-.334c.048-.239.048-.477.048-.716-.096-4.775-3.438-8.404-7.83-8.404Zm-3.773 6.064c.621-1.575 2.149-2.626 3.821-2.626a3.912 3.912 0 0 1 3.58 2.626h-7.401ZM131.277 8.785a7.759 7.759 0 0 0-4.44-1.385c-1.385 0-2.769.335-3.963 1.05-2.578 1.577-4.155 4.346-4.155 7.354a8.336 8.336 0 0 0 4.107 7.305c1.242.716 2.626 1.05 4.059 1.05a7.929 7.929 0 0 0 4.392-1.336v1.05h3.724V7.735h-3.724v1.05Zm-.096 9.788c-.906 1.194-2.339 1.91-3.866 1.958-2.58.047-4.728-2.053-4.776-4.632v-.095a4.548 4.548 0 0 1 4.394-4.727h.191c1.575 0 3.055.716 4.01 1.957l.047 5.54ZM152.381 0h-3.819v23.873h3.819V0ZM81.382 20.34a8.71 8.71 0 0 1-1.91.239 3.056 3.056 0 0 1-2.291-.86 3.34 3.34 0 0 1-.478-2.148v-6.35h4.68V7.783h-4.68V.19h-3.82v17.141c-.143 1.719.382 3.39 1.433 4.775a6.379 6.379 0 0 0 5.061 2.1c.668 0 1.337-.047 2.005-.19V20.34ZM28.861 7.591c-.525-.095-1.05-.19-1.623-.19-1.48 0-2.96.477-4.154 1.289V7.687h-3.82v16.186h3.82V13.034a5.207 5.207 0 0 1 4.058-1.957 3.67 3.67 0 0 1 1.72.43V7.59ZM146.842 7.591c-.525-.095-1.05-.19-1.623-.19-1.48 0-2.96.477-4.154 1.289V7.687h-3.82v16.186h3.82V13.034a5.208 5.208 0 0 1 4.059-1.957c.572 0 1.193.143 1.718.43V7.59Z" fill="#000"/></svg>
