<svg width="141" height="32" viewBox="0 0 141 32" fill="none" xmlns="http://www.w3.org/2000/svg"><path fill-rule="evenodd" clip-rule="evenodd" d="M28.055 32h1.94c.45 0 .828-.376.851-.823v-20.98c0-2.068-1.68-3.736-3.761-3.736H24.6a.835.835 0 0 1-.828-.822V3.736C23.773 1.668 22.093 0 20.01 0H3.948C1.866 0 .186 1.668.186 3.736V24.81c0 2.044 1.68 3.712 3.762 3.736h18.618c.166 0 .331.047.473.14l4.543 3.173c.142.094.307.14.473.14Zm-4.519-6.438H3.995a.806.806 0 0 1-.828-.822V3.783c0-.447.378-.823.828-.823h15.969c.45 0 .828.376.828.823v1.856a.835.835 0 0 1-.828.822h-11.9a.835.835 0 0 0-.828.822v13.98c0 .446.379.822.828.822h14.857c.45 0 .828-.376.828-.822v-11.02c0-.446.379-.822.828-.822h2.437c.45 0 .828.376.828.823v17.15a.512.512 0 0 1-.804.424l-3.029-2.115a.857.857 0 0 0-.473-.14Zm-3.17-6.46h-9.747a.398.398 0 0 1-.402-.4V9.82c0-.212.165-.4.402-.4h9.747c.213 0 .402.165.402.4v8.88c0 .212-.165.4-.402.4Zm85.836-14.635c1.242 0 2.249-1 2.249-2.233A2.241 2.241 0 0 0 106.202 0c-1.242 0-2.249 1-2.249 2.234a2.241 2.241 0 0 0 2.249 2.233ZM80.543 7.733V6.492H76.92v15.47h3.623V11.394l4.228-1.738V6.037h-.041l-4.187 1.696Zm-14.04-1.255c-2.353 0-4.269.765-5.727 2.316a7.827 7.827 0 0 0-1.561 2.524 8.625 8.625 0 0 0-.542 3.02c0 2.171.625 3.97 1.895 5.356 1.396 1.53 3.312 2.275 5.748 2.275 2.374 0 4.27-.765 5.707-2.316 1.353-1.469 2.04-3.31 2.04-5.543 0-2.234-.666-4.033-1.978-5.44-1.395-1.468-3.249-2.192-5.581-2.192Zm2.833 11.003c-.687.848-1.645 1.282-2.853 1.282-1.291 0-2.353-.434-3.145-1.303-.375-.393-.666-.889-.874-1.447a4.961 4.961 0 0 1-.313-1.758c0-1.241.333-2.276 1.02-3.144.75-.93 1.77-1.407 3.083-1.407 1.29 0 2.311.435 3.04 1.324.688.827 1.041 1.903 1.041 3.247.022 1.303-.312 2.379-.999 3.206Zm35.03-10.986h3.603v15.49h-3.603V6.496Zm-54.978-.017c-2.062 0-3.749.6-5.061 1.8-1.229 1.137-1.854 2.564-1.854 4.28 0 1.531.542 2.793 1.625 3.806-.938.745-1.396 1.634-1.396 2.689 0 .641.084 1.2.23 1.675.145.496.437.91.895 1.282-1.624.89-2.416 2.337-2.353 4.323.041 1.717.791 3.082 2.249 4.116C45.18 31.483 47.117 32 49.49 32c2.375 0 4.145-.455 5.353-1.365 1.208-.91 1.812-2.213 1.812-3.93 0-1.696-.48-3.02-1.437-3.95-.52-.496-1.188-.89-2-1.241-.833-.33-1.957-.62-3.415-.848-1.458-.227-2.5-.476-3.124-.786-.291-.124-.479-.269-.562-.413-.083-.145-.125-.352-.125-.62 0-.27.187-.642.541-1.118a8.47 8.47 0 0 0 2.666.414c1.957 0 3.561-.58 4.831-1.758.563-.538 1-1.18 1.313-1.903.312-.724.458-1.53.458-2.42 0-.89-.208-1.737-.625-2.523 0 0 0-.02-.021-.02h1.52v-3.04h-7.288Zm-2.52 16.732.75.124c2.103.31 3.602.724 4.456 1.282.77.476 1.145 1.117 1.145 1.903 0 1.655-1.187 2.461-3.561 2.461-1.395 0-2.52-.29-3.395-.848a2.742 2.742 0 0 1-.916-.91c-.23-.351-.333-.744-.333-1.22s.146-.972.437-1.489c.313-.538.792-.951 1.416-1.303Zm4.54-8.873a3.003 3.003 0 0 1-2.041.786c-1.042 0-1.875-.29-2.52-.868-.292-.249-.5-.559-.667-.869a2.483 2.483 0 0 1-.229-1.013c0-.352.062-.704.209-1.055.457-1.18 1.478-1.758 3.082-1.758.958 0 1.728.248 2.27.744.541.497.833 1.159.833 1.965-.021.786-.334 1.49-.938 2.068ZM123.88 9.85c.271.704.416 1.53.416 2.42v9.659h-3.54v-.724c-1.063.476-2.041.724-2.937.724-1.125 0-2.062-.104-2.853-.31-.792-.207-1.458-.518-1.999-.91-1.104-.828-1.667-2.007-1.667-3.537 0-1.365.667-2.523 2.042-3.433 1.478-.993 3.498-1.49 6.039-1.49l.583.021c.06 0 .12.005.183.01.067.005.137.01.213.01.07.01.135.016.197.02.068.006.133.011.199.022-.084-1.53-.75-2.44-2-2.689a6.565 6.565 0 0 0-1.312-.124c-.479 0-.937.042-1.374.124-.458.083-.896.207-1.312.331-.917.29-1.604.641-2 1.014l-.041-.02-.438-3.165c1.687-.89 3.562-1.324 5.582-1.324 3.144 0 5.144 1.117 6.019 3.371Zm-3.124 8.418v-3.33a5.376 5.376 0 0 0-.813-.062h-.583c-2.124 0-3.478.476-4.061 1.406-.166.27-.25.559-.25.87 0 .31.063.578.167.806a1.5 1.5 0 0 0 .562.579c.5.29 1.25.434 2.229.434a5.78 5.78 0 0 0 2.749-.703Zm16.851-4.943c.603.29 1.103.641 1.478 1.055.687.744 1.041 1.737 1.041 3.02 0 1.344-.541 2.44-1.624 3.288-1.125.89-2.708 1.323-4.749 1.323-2.457 0-4.372-.413-5.727-1.22v-3.805c0-.021.083.062.23.227.145.166.436.352.832.6.396.248.875.455 1.396.641 1.145.393 2.333.58 3.581.58 1.668 0 2.5-.56 2.5-1.655a.845.845 0 0 0-.479-.786c-.563-.29-1.395-.517-2.499-.662-1.104-.166-1.999-.373-2.707-.662-.709-.29-1.292-.641-1.729-1.034-.812-.765-1.228-1.758-1.228-2.978 0-1.49.582-2.668 1.728-3.516 1.145-.848 2.728-1.262 4.748-1.262 1.999 0 3.707.558 5.123 1.696a7.31 7.31 0 0 1-.208.724 63.343 63.343 0 0 1-.5 1.365l-.333.848a.661.661 0 0 1-.042.124c-.021 0-.104-.103-.229-.31-.603-.703-1.562-1.158-2.832-1.386a5.84 5.84 0 0 0-1.209-.124c-1.749 0-2.623.517-2.623 1.572 0 .351.166.64.541.827.687.372 1.625.641 2.812.807 1.187.186 2.082.413 2.708.703ZM93.766 6.478c-2.062 0-3.75.6-5.061 1.8-1.23 1.137-1.854 2.564-1.854 4.28 0 1.531.541 2.793 1.625 3.806-.937.745-1.396 1.634-1.396 2.689 0 .641.084 1.2.23 1.675.145.496.437.91.895 1.282-1.625.89-2.416 2.337-2.354 4.323.042 1.717.792 3.082 2.25 4.116C89.559 31.483 91.495 32 93.869 32c2.375 0 4.145-.455 5.353-1.365 1.207-.91 1.811-2.213 1.811-3.93 0-1.696-.478-3.02-1.436-3.95-.52-.496-1.188-.89-2-1.241-.833-.33-1.957-.62-3.415-.848-1.458-.227-2.5-.476-3.124-.786-.292-.124-.479-.269-.562-.413-.084-.145-.125-.352-.125-.62 0-.27.187-.642.541-1.118a8.469 8.469 0 0 0 2.666.414c1.957 0 3.56-.58 4.831-1.758.563-.538 1-1.18 1.313-1.903.312-.724.458-1.53.458-2.42 0-.89-.208-1.737-.625-2.523 0 0 0-.02-.021-.02h1.521v-3.04h-7.29Zm-2.52 16.732.75.124c2.103.31 3.602.724 4.456 1.282.77.476 1.145 1.117 1.145 1.903 0 1.655-1.186 2.461-3.561 2.461-1.395 0-2.52-.29-3.395-.848a2.742 2.742 0 0 1-.916-.91c-.23-.351-.333-.744-.333-1.22s.146-.972.437-1.489c.313-.538.792-.951 1.416-1.303Zm4.54-8.873a3.003 3.003 0 0 1-2.042.786c-1.04 0-1.874-.29-2.52-.868-.29-.249-.5-.559-.666-.869a2.483 2.483 0 0 1-.229-1.013c0-.352.062-.704.209-1.055.457-1.18 1.478-1.758 3.081-1.758.959 0 1.73.248 2.27.744.542.497.834 1.159.834 1.965-.021.786-.334 1.49-.938 2.068Z" fill="#000"/></svg>
