<svg width="220" height="120" viewBox="0 0 220 120" fill="none" xmlns="http://www.w3.org/2000/svg">
<rect width="220" height="120" fill="white"/>
<mask id="mask0_2001_2" style="mask-type:luminance" maskUnits="userSpaceOnUse" x="60" y="45" width="101" height="30">
<path d="M160.862 45H60V75H160.862V45Z" fill="white"/>
</mask>
<g mask="url(#mask0_2001_2)">
<path d="M117.271 51C117.809 51 118.33 50.7907 118.712 50.4244C119.094 50.0581 119.319 49.5349 119.337 49.0116C119.337 48.4709 119.111 47.9477 118.729 47.564C118.347 47.1802 117.826 46.9535 117.288 46.9535C116.75 46.9709 116.247 47.1802 115.865 47.5814C115.483 47.9651 115.274 48.4884 115.292 49.0116C115.292 49.5349 115.5 50.0407 115.882 50.4244C116.247 50.7732 116.75 50.9826 117.271 51ZM131.263 52.9186H136.228V53.3198C135.95 53.3721 135.69 53.4593 135.447 53.5988C134.995 53.8081 134.093 54.8372 133.381 56.5639C132.201 59.5465 130.968 63.0872 129.666 67.1337L129.18 68.6686C128.971 69.3663 128.781 69.8198 128.694 70.0814C128.607 70.3604 128.485 70.7791 128.277 71.2849C128.155 71.6686 127.999 72.0523 127.809 72.4011C127.565 72.8547 127.114 73.7791 126.749 74.0582C126.177 74.5465 125.326 75.0872 124.267 75C122.201 75 120.656 73.4651 120.639 71.6512C120.639 70.4128 121.42 69.593 122.601 69.593C123.451 69.593 124.198 70.0465 124.198 71.0058C124.198 71.7035 123.503 72.4186 123.503 72.7849C123.503 73.7267 124.041 74.1628 125.1 74.1628C125.951 74.1628 126.645 73.6221 127.166 72.5407C127.86 71.3023 127.93 69.9419 127.34 68.4244L122.982 56.9128C121.976 54.2616 121.229 53.3896 120.291 53.2849V52.8837H127.166V53.2849C126.35 53.3721 125.934 53.8605 125.934 54.7325C125.934 55.3604 126.177 56.3372 126.628 57.5756L127.444 59.8082C128.381 62.2325 129.145 64.343 129.527 65.6686C130.412 62.9128 131.228 60.5058 132.009 58.3953C132.582 56.8256 132.86 55.7093 132.86 55.0465C132.86 53.8605 132.218 53.3198 131.263 53.3198V52.9186ZM83.4708 67.6221C82.5855 67.4651 81.8389 66.6802 81.8389 65.0232V45L76.8393 46.0814V46.5C77.6899 46.4128 78.5406 47.1628 78.5406 48.7674V65.0232C78.5406 66.593 77.6899 67.5 76.8393 67.6221C76.7525 67.6395 76.683 67.6395 76.5962 67.657C76.1622 67.6918 75.7282 67.6046 75.329 67.4302C74.6519 67.1337 74.0964 66.6104 73.6277 65.843L71.3188 62.1628C70.8327 61.3779 70.1036 60.7849 69.2529 60.4535C68.4023 60.1221 67.4648 60.0697 66.5795 60.3139L69.1835 57.436C71.1452 55.2558 72.968 53.8779 74.6866 53.3023V52.9012H68.9578V53.3023C70.4334 53.8779 70.3466 55.1512 68.6453 57.1396L64.9997 61.3953V45L60 46.0814V46.5C60.8506 46.5 61.7013 47.3372 61.7013 48.8197V65.0058C61.7013 66.8023 60.868 67.5 60 67.6221V68.0233H66.6315V67.6221C65.5379 67.4651 64.9997 66.6279 64.9997 65.0232V62.0407L66.4232 60.4709L69.8605 66.1221C70.6764 67.4826 71.4403 68.0233 72.6381 68.0233H84.1652V67.7093C84.1826 67.7093 83.8528 67.6918 83.4708 67.6221ZM97.22 65.7209V58.9535C97.1506 54.5407 95.293 52.5174 91.0398 52.5174C89.6857 52.5 88.3663 52.9535 87.29 53.7907C86.1616 54.6453 85.6235 55.6046 85.6235 56.7209C85.6235 57.8023 86.2311 58.6221 87.2206 58.6221C88.2795 58.6221 89.0434 58.0116 89.0434 57.1744C89.0434 56.5465 88.6268 55.657 88.6268 55.064C88.6268 53.9826 89.4427 53.0407 90.8662 53.0407C92.689 53.0407 93.991 54.4011 93.991 57.4186V59.2325L92.4807 59.5988C91.6995 59.7558 91.0224 59.9128 90.519 60.0523C89.9982 60.2093 89.3385 60.4186 88.5573 60.7151C86.9776 61.3256 86.1443 61.9011 85.4152 62.9825C85.0506 63.5058 84.877 64.1337 84.877 64.7616C84.877 67.2733 86.6303 68.4244 89.0781 68.4244C91.0224 68.4244 93.0709 67.3954 94.0084 65.4593C94.0258 66.0698 94.1646 66.6628 94.4424 67.2209C95.4666 69.2965 98.8692 68.0756 98.8692 68.0756V67.6744C97.3415 67.9012 97.22 66.1395 97.22 65.7209ZM93.991 63.6279C93.991 64.6221 93.6264 65.4419 92.8974 66.0174C92.2029 66.593 91.4738 66.8895 90.71 66.8895C89.2344 66.8895 88.2622 65.9302 88.2622 64.1337C88.2622 63.2965 88.7309 62.5116 89.1129 62.0581C89.4253 61.7442 89.7725 61.4826 90.1718 61.3081C90.6926 61.029 90.9356 60.8896 91.3002 60.7326L92.689 60.2267C93.3834 59.9477 93.8001 59.8082 93.991 59.7209V63.6279ZM160.862 52.9186H149.092V45H160.862L158.397 48.9593L160.862 52.9186ZM136.922 66.0872C135.464 64.5872 134.648 62.564 134.683 60.4535C134.666 59.4244 134.857 58.3953 135.239 57.436C135.62 56.4767 136.193 55.6046 136.922 54.8546C138.416 53.2849 140.221 52.5 142.356 52.5C144.439 52.5 146.262 53.2849 147.755 54.8546C148.484 55.5872 149.075 56.4593 149.457 57.4186C149.856 58.3779 150.047 59.407 150.029 60.4535C150.047 61.5 149.856 62.5291 149.457 63.4884C149.057 64.4477 148.484 65.3372 147.755 66.0698C146.262 67.6046 144.457 68.407 142.356 68.407C140.238 68.4244 138.416 67.6395 136.922 66.0872ZM145.082 55.1163C144.492 53.9477 143.693 53.2675 142.773 53.0756C140.898 52.6918 139.249 54.6279 138.624 57.6802C138.363 59.0582 138.294 60.4535 138.433 61.8314C138.572 63.2267 138.954 64.5698 139.579 65.8256C140.186 66.9942 140.967 67.6744 141.887 67.8663C143.762 68.25 145.463 66.2442 146.089 63.157C146.609 60.5756 146.349 57.436 145.082 55.1163Z" fill="black"/>
<path d="M119.024 65.0232V52.9186H108.365V53.2849C109.789 53.4941 110.466 54.5756 109.823 56.3023C106.49 65.3372 106.699 64.936 106.49 65.6511C106.282 64.9535 105.796 63.2442 105.015 61.0988C104.233 58.9535 103.713 57.5407 103.504 56.8953C102.688 54.3837 102.966 53.4593 104.286 53.3023V52.9011H97.3762V53.3023C98.4005 53.5116 99.3205 54.6976 100.067 56.8081L101.126 59.5639C102.289 62.5291 103.661 66.6279 104.112 68.0232H106.404C107.15 65.8779 110.101 57.2965 110.501 56.4244C110.934 55.4302 111.42 54.6802 111.959 54.157C112.219 53.8779 112.531 53.6511 112.896 53.5116C113.244 53.372 113.625 53.2849 114.007 53.3023C114.007 53.3023 115.674 53.3023 115.674 54.907V65.0407C115.674 66.7325 114.858 67.5174 114.007 67.6395V68.0407H120.604V67.6395C119.753 67.5 119.024 66.7151 119.024 65.0232Z" fill="black"/>
</g>
</svg>
