<svg  viewBox="0 0 149 22" fill="none" xmlns="http://www.w3.org/2000/svg"><path d="M34.617.04v9.467h.646L46.323.04h4.34L37.867 10.334 51.874 21.98h-4.36L34.618 11.162V21.98h-2.886V.04h2.886ZM56.113 21.98V.04h2.927v19.498h14.33v2.442H56.113ZM95.067.04v2.2H80.495v7.085h13.442v2.22H83.381L80.495 9.91v9.628h14.572v2.442h-17.5V.04h17.5ZM130.51 0v15.037a4.03 4.03 0 0 0 1.453 3.169 5.05 5.05 0 0 0 3.492 1.312h5.49a5.1 5.1 0 0 0 3.512-1.312 4.162 4.162 0 0 0 1.453-3.17V0h2.886v15.562a6.285 6.285 0 0 1-2.119 4.561c-1.352 1.252-2.987 1.857-4.965 1.857h-7.024a7.373 7.373 0 0 1-5.046-1.857c-1.372-1.251-2.059-2.765-2.059-4.561V0h2.927ZM.608 20.406a1.048 1.048 0 0 0 .262 1.413 1.01 1.01 0 0 0 1.413-.263l7.468-10.818L17.2 21.556a1.01 1.01 0 0 0 1.413.263 1.01 1.01 0 0 0 .262-1.413L10.6 8.376l-.828-1.21-.827 1.21-8.336 12.03Z" fill="#000"/><path d="M3.05 9.728a1.048 1.048 0 0 0 .263 1.413c.464.303 1.09.202 1.412-.262l5.046-7.286 5.006 7.246a.998.998 0 0 0 1.372.383.998.998 0 0 0 .283-1.514l-5.853-8.497L9.75 0l-.827 1.211L3.05 9.728ZM120.479 0l-9.002 19.316L102.535 0h-3.209l10.172 21.98h3.977L123.668 0h-3.189Z" fill="#000"/></svg>
