<svg  viewBox="59 45 102 30" fill="none" xmlns="http://www.w3.org/2000/svg">
<rect  fill="white"/>
<mask id="mask0_2001_2" style="mask-type:luminance" maskUnits="userSpaceOnUse" x="59" y="45" width="102" height="30">
<path d="M160.55 45H59V75H160.55V45Z" fill="white"/>
</mask>
<g mask="url(#mask0_2001_2)">
<path fill-rule="evenodd" clip-rule="evenodd" d="M101.951 54.797C96.3752 54.797 91.8489 59.3332 91.8489 64.8986C91.8489 70.4637 96.3856 75 101.951 75C107.517 75 112.054 70.4637 112.054 64.8986C112.054 59.3332 107.528 54.797 101.951 54.797ZM101.951 70.2222C99.0215 70.2222 96.6376 67.8387 96.6376 64.9091C96.6376 61.9794 99.0215 59.5957 101.951 59.5957C104.881 59.5957 107.265 61.9794 107.265 64.9091C107.265 67.8387 104.881 70.2222 101.951 70.2222Z" fill="black"/>
<path d="M135.557 51.3003C137.296 51.3003 138.707 49.8899 138.707 48.1501C138.707 46.4104 137.296 45 135.557 45C133.817 45 132.406 46.4104 132.406 48.1501C132.406 49.8899 133.817 51.3003 135.557 51.3003Z" fill="black"/>
<path fill-rule="evenodd" clip-rule="evenodd" d="M81.3263 54.8075C81.0638 54.7865 80.8117 54.776 80.5492 54.776C78.1128 54.776 75.8026 55.7736 74.1432 57.5377C72.484 55.7841 70.1842 54.776 67.7688 54.776C62.9381 54.776 59 58.7032 59 63.5334V74.5905H63.7257V63.6699C63.7257 61.6644 65.3744 59.8163 67.3172 59.6167C67.4537 59.6063 67.5903 59.5958 67.7163 59.5958C69.9006 59.5958 71.6859 61.3808 71.6964 63.5649V74.5905H76.5271V63.6489C76.5271 61.6539 78.1653 59.8058 80.1186 59.6063C80.2551 59.5958 80.3917 59.5853 80.5176 59.5853C82.702 59.5853 84.4977 61.3598 84.5082 63.5334V74.5905H89.339V63.6699C89.339 61.4544 88.5199 59.3227 87.0392 57.6742C85.5584 56.0151 83.5316 54.9965 81.3263 54.8075Z" fill="black"/>
<path d="M119.489 45.4725H114.658V74.6115H119.489V45.4725Z" fill="black"/>
<path d="M128.73 45.4725H123.899V74.6115H128.73V45.4725Z" fill="black"/>
<path d="M137.972 55.28H133.141V74.601H137.972V55.28Z" fill="black"/>
<path fill-rule="evenodd" clip-rule="evenodd" d="M160.55 64.4469C160.55 61.8849 159.552 59.4697 157.746 57.6321C155.929 55.7945 153.535 54.776 150.983 54.776C150.941 54.776 150.899 54.776 150.857 54.776C148.211 54.8075 145.711 55.8576 143.842 57.7371C141.973 59.6167 140.922 62.1054 140.891 64.7621C140.859 67.4711 141.899 70.0332 143.821 71.9759C145.742 73.9185 148.284 74.9895 150.994 74.9895H151.004C154.553 74.9895 157.882 73.0889 159.699 70.0332L159.93 69.6447L155.94 67.6812L155.74 68.0067C154.742 69.6552 153.01 70.6319 151.088 70.6319C148.63 70.6319 146.509 68.9937 145.858 66.6626H160.55V64.4469ZM150.794 59.1652C152.999 59.1652 154.973 60.6143 155.667 62.6724H145.932C146.614 60.6143 148.589 59.1652 150.794 59.1652Z" fill="black"/>
</g>
</svg>
