<svg width="220" height="120" viewBox="0 0 220 120" fill="none" xmlns="http://www.w3.org/2000/svg">
<rect width="220" height="120" fill="white"/>
<mask id="mask0_2001_2" style="mask-type:luminance" maskUnits="userSpaceOnUse" x="44" y="45" width="133" height="30">
<path d="M176.353 45H44V75H176.353V45Z" fill="white"/>
</mask>
<g mask="url(#mask0_2001_2)">
<mask id="mask1_2001_2" style="mask-type:luminance" maskUnits="userSpaceOnUse" x="44" y="45" width="133" height="30">
<path d="M176.353 45H44V75H176.353V45Z" fill="white"/>
</mask>
<g mask="url(#mask1_2001_2)">
<path fill-rule="evenodd" clip-rule="evenodd" d="M137.748 68.4088C137.015 68.4147 136.29 68.2714 135.615 67.9879C134.94 67.7042 134.33 67.2862 133.821 66.7592C133.313 66.2322 132.917 65.6072 132.659 64.9224C132.4 64.2376 132.283 63.5072 132.316 62.7759C132.285 62.0435 132.402 61.3125 132.661 60.6268C132.92 59.941 133.315 59.3147 133.822 58.7856C134.33 58.2565 134.938 57.8354 135.613 57.5477C136.287 57.2601 137.012 57.1118 137.745 57.1118C138.478 57.1118 139.203 57.2601 139.878 57.5477C140.552 57.8354 141.161 58.2565 141.669 58.7856C142.175 59.3147 142.57 59.941 142.829 60.6268C143.088 61.3125 143.206 62.0435 143.175 62.7759C143.208 63.5072 143.092 64.2377 142.834 64.9228C142.575 65.6078 142.18 66.2331 141.672 66.7605C141.164 67.2878 140.555 67.7063 139.88 67.9903C139.205 68.2743 138.479 68.4179 137.748 68.4123V68.4088ZM137.748 51.9785C135.625 52.011 133.558 52.67 131.808 53.8727C130.059 55.0754 128.703 56.7683 127.912 58.7388C127.121 60.7092 126.93 62.8694 127.362 64.9482C127.795 67.027 128.832 68.9317 130.343 70.4233C131.854 71.9148 133.772 72.9265 135.856 73.3317C137.941 73.7367 140.098 73.517 142.058 72.7002C144.018 71.8833 145.693 70.5057 146.873 68.7401C148.052 66.9747 148.684 64.9001 148.689 62.7767C148.696 61.3445 148.417 59.9251 147.869 58.6022C147.319 57.2792 146.511 56.0795 145.492 55.0733C144.472 54.0672 143.263 53.2751 141.933 52.7436C140.602 52.2122 139.18 51.952 137.748 51.9785ZM57.2406 51.9785C56.0489 51.9393 54.8664 52.1973 53.7994 52.7294C52.7127 53.2754 51.7728 54.0742 51.0588 55.0588V52.4276H45.7646V73.5158H51.2476V63.0114C51.2476 59.3559 52.8835 57.2241 55.7229 57.2241C58.4847 57.2241 59.7694 59.4379 59.7694 63.0114V73.5282H65.2559V62.0779C65.2559 54.4014 61.3285 51.9829 57.2414 51.9829M102.309 60.36C99.3333 60.0344 97.5438 59.9126 97.5438 58.3623C97.5438 56.9735 99.0121 56.1159 101.173 56.1159C103.536 56.1159 105.127 57.2629 105.292 58.7947H110.756C110.464 54.5082 106.633 52.02 101 51.9785C95.6468 51.9785 92.0291 54.7138 92.0291 58.867C92.0291 63.1959 95.8233 64.2556 100.676 64.867C104.019 65.2729 105.486 65.437 105.486 67.11C105.486 68.6409 103.898 69.4041 101.533 69.4041C98.9635 69.4041 97.2094 68.1414 97.0471 66.3044H91.5853C91.7882 70.7929 95.7915 73.5256 101.574 73.5256C107.202 73.5256 111.076 70.8732 111.076 66.7138C111.076 61.9915 107.08 60.8903 102.309 60.3609M78.935 68.4044C78.2033 68.4105 77.478 68.2676 76.8034 67.9843C76.1287 67.701 75.5187 67.2834 75.0107 66.7568C74.5027 66.2301 74.1072 65.6056 73.8483 64.9212C73.5894 64.2368 73.4726 63.5068 73.505 62.7759C73.4675 62.04 73.58 61.3041 73.8357 60.6131C74.0915 59.922 74.4851 59.2902 74.9927 58.756C75.5003 58.2219 76.1112 57.7966 76.7883 57.506C77.4654 57.2153 78.1946 57.0654 78.9315 57.0654C79.6683 57.0654 80.3975 57.2153 81.0746 57.506C81.7517 57.7966 82.3626 58.2219 82.8702 58.756C83.3778 59.2902 83.7715 59.922 84.0272 60.6131C84.283 61.3041 84.3955 62.04 84.3579 62.7759C84.3909 63.5069 84.2747 64.237 84.0163 64.9218C83.7579 65.6064 83.3628 66.2313 82.8551 66.7584C82.3474 67.2854 81.7377 67.7036 81.0631 67.9873C80.3885 68.271 79.6632 68.4144 78.9315 68.4088L78.935 68.4044ZM78.935 51.9776C77.5058 51.9552 76.0865 52.2173 74.7596 52.7488C73.4326 53.2802 72.2247 54.0703 71.2061 55.0731C70.1876 56.0758 69.3786 57.2712 68.8264 58.5896C68.2743 59.908 67.9899 61.3231 67.9899 62.7525C67.9899 64.1818 68.2743 65.5969 68.8264 66.9153C69.3786 68.2337 70.1876 69.4291 71.2061 70.4319C72.2247 71.4346 73.4326 72.2247 74.7596 72.7561C76.0865 73.2876 77.5058 73.5497 78.935 73.5274C80.3642 73.5497 81.7835 73.2876 83.1104 72.7561C84.4373 72.2247 85.6453 71.4346 86.6638 70.4319C87.6824 69.4291 88.4914 68.2337 89.0436 66.9153C89.5957 65.5969 89.8801 64.1818 89.8801 62.7525C89.8801 61.3231 89.5957 59.908 89.0436 58.5896C88.4914 57.2712 87.6824 56.0758 86.6638 55.0731C85.6453 54.0703 84.4373 53.2802 83.1104 52.7488C81.7835 52.2173 80.3642 51.9552 78.935 51.9776ZM119.182 46.7646H113.812V64.3932C113.812 67.3253 114.269 69.1508 115.286 70.5538C116.65 72.4217 119.005 73.5274 122.227 73.5274C123.356 73.5327 124.482 73.389 125.574 73.1003L124.748 68.4238C124.026 68.5592 123.293 68.6306 122.559 68.6373C122.056 68.6856 121.55 68.6189 121.078 68.4425C120.605 68.2661 120.179 67.9845 119.831 67.6191C119.31 66.8616 119.075 65.9439 119.168 65.0294V57.1765H125.78V52.5H119.182V46.7646Z" fill="#211C1F"/>
<path d="M154.893 60.0565C154.246 59.3716 153.812 58.5129 153.644 57.5854C153.476 56.6579 153.583 55.7015 153.95 54.8334C154.317 53.9651 154.928 53.2226 155.71 52.6963C156.492 52.1701 157.411 51.883 158.353 51.87H170.144C170.776 51.8749 171.4 52.0041 171.982 52.2504C172.564 52.4966 173.092 52.855 173.534 53.3052C173.978 53.7553 174.328 54.2883 174.565 54.8739C174.802 55.4594 174.922 56.086 174.918 56.7177V68.6709C174.932 69.6115 174.668 70.5355 174.159 71.3263C173.649 72.117 172.916 72.7393 172.054 73.1146C171.191 73.4899 170.237 73.6014 169.311 73.4351C168.385 73.2688 167.529 72.8321 166.851 72.18L160.388 65.9268L154.893 60.0565Z" fill="#FF66BF"/>
</g>
</g>
</svg>
