<svg xmlns="http://www.w3.org/2000/svg" fill="none" viewBox="0 0 2563 584">
  <g fill="#161616">
    <path d="M735.533 202.674C709.332 202.674 688.912 213.463 675.811 233.113V206.527H621.484V458.127H675.811V369.123C688.912 388.773 709.332 399.562 735.533 399.562C784.466 399.562 823.381 355.252 823.381 300.925C823.381 246.598 784.466 202.674 735.533 202.674ZM723.203 347.546C696.618 347.546 675.811 327.511 675.811 300.925C675.811 274.725 696.618 254.304 723.203 254.304C749.403 254.304 770.21 275.11 770.21 300.925C770.21 327.126 749.403 347.546 723.203 347.546Z"/>
    <path d="M979.688 206.527V233.498C966.588 213.848 946.167 202.674 919.582 202.674C870.649 202.674 831.734 246.598 831.734 300.925C831.734 355.252 870.649 399.562 919.582 399.562C946.167 399.562 966.588 388.388 979.688 368.738V395.709H1034.02V206.527H979.688ZM932.297 347.546C906.096 347.546 884.905 327.126 884.905 300.925C884.905 275.11 906.096 254.304 932.297 254.304C958.882 254.304 979.688 274.725 979.688 300.925C979.688 327.511 958.882 347.546 932.297 347.546Z"/>
    <path d="M1181.02 258.157V206.527H1134.4V156.824H1080.07V206.527H1045.01V258.157H1080.07V318.649C1080.07 369.508 1110.13 398.791 1154.82 398.791C1162.53 398.791 1173.7 397.635 1181.02 395.709V345.62C1176.78 346.776 1171.77 347.161 1167.15 347.161C1148.27 347.161 1134.4 338.299 1134.4 317.879V258.157H1181.02Z"/>
    <path d="M1281.25 399.562C1329.42 399.562 1369.87 367.197 1374.11 322.117H1319.01C1315.16 336.758 1299.36 347.546 1281.25 347.546C1255.44 347.546 1236.17 327.511 1236.17 301.311C1236.17 274.34 1255.44 254.69 1281.25 254.69C1299.36 254.69 1314.77 264.707 1318.63 278.578H1373.73C1368.72 235.039 1328.65 202.674 1281.25 202.674C1225.39 202.674 1183 245.057 1183 301.311C1183 357.564 1225.39 399.562 1281.25 399.562Z"/>
    <path d="M1496.19 202.674C1474.62 202.674 1456.89 213.077 1444.95 231.186V126H1390.62V395.709H1444.95V295.531C1444.95 270.872 1459.59 254.69 1482.32 254.69C1504.67 254.69 1519.7 270.872 1519.7 295.531V395.709H1574.02V288.596C1574.02 235.039 1544.74 202.674 1496.19 202.674Z"/>
    <path d="M1640.66 395.709H1682.66L1721.19 292.064L1759.33 395.709H1802.1L1870.3 206.527H1811.73L1780.52 310.173L1742.38 206.527H1699.99L1662.24 310.173L1630.64 206.527H1572.46L1640.66 395.709Z"/>
    <path d="M1961.49 202.674C1905.62 202.674 1863.23 245.057 1863.23 301.311C1863.23 357.564 1905.62 399.562 1961.49 399.562C2016.97 399.562 2059.74 357.564 2059.74 301.311C2059.74 245.057 2016.97 202.674 1961.49 202.674ZM1961.49 254.69C1986.92 254.69 2006.57 274.34 2006.57 301.311C2006.57 327.511 1986.92 347.546 1961.49 347.546C1935.67 347.546 1916.41 327.511 1916.41 301.311C1916.41 274.34 1935.67 254.69 1961.49 254.69Z"/>
    <path d="M2182.01 202.674C2160.82 202.674 2144.26 211.922 2133.08 228.104V206.527H2078.75V395.709H2133.08V302.467C2133.08 267.404 2154.27 251.607 2180.47 251.607C2187.02 251.607 2193.57 252.763 2200.12 254.304V204.986C2193.96 203.83 2187.79 202.674 2182.01 202.674Z"/>
    <path d="M2405.84 395.709L2321.07 297.843L2399.67 206.527H2333.02L2267.51 284.743V126H2213.19V395.709H2267.51V310.943L2336.1 395.709H2405.84Z"/>
    <path d="M2487.13 399.562C2529.9 399.562 2562.65 372.976 2562.65 338.299C2562.65 259.313 2455.92 290.137 2455.92 260.854C2455.92 251.993 2465.17 247.754 2477.5 247.754C2494.84 247.754 2505.24 256.231 2506.01 265.863H2560.72C2556.1 223.866 2519.5 202.674 2478.66 202.674C2432.03 202.674 2403.52 229.645 2403.52 264.707C2403.52 335.217 2509.86 307.475 2509.86 338.685C2509.86 347.547 2500.62 352.941 2484.43 352.941C2466.33 352.941 2452.84 344.464 2451.68 331.749H2399.67C2403.52 374.517 2437.81 399.562 2487.13 399.562Z"/>
  </g>
  <g fill="#FFC309">
    <path d="M77.2832 411.085C72.4799 409.799 68.0197 408.512 63.4737 407.311C47.3484 402.937 31.2231 398.563 15.0977 394.102C7.46395 391.958 2.74643 386.897 1.11674 379.178C0.430554 376.176 0.687868 373.174 1.45983 370.257C6.60621 351.044 11.7526 331.745 16.9847 312.532C17.9283 308.844 19.8153 305.67 22.4742 303.011C36.0264 289.459 49.5785 275.907 63.1306 262.355C67.4193 258.066 72.5657 255.922 78.5698 256.437C80.371 256.522 82.0865 257.037 83.8019 257.466C94.0947 260.211 104.387 262.955 114.594 265.7C115.109 265.872 115.709 265.957 116.567 266.129C118.197 260.211 119.741 254.292 121.371 248.288C120.77 248.117 120.341 247.859 119.912 247.774C99.6699 242.37 79.5133 236.966 59.2709 231.562C50.6078 229.247 45.1183 222.899 44.4321 214.065C44.2606 211.835 44.6037 209.519 45.2041 207.289C49.1496 192.107 53.2667 176.925 57.2981 161.743C58.3274 157.712 59.4424 153.766 60.4717 149.735C61.4152 146.218 63.1306 143.131 65.7896 140.557C79.5133 126.834 93.1512 113.11 106.875 99.472C112.279 94.1541 118.712 92.5244 126.002 94.4114C136.724 97.1562 147.36 100.072 158.081 102.989C158.596 103.16 159.196 103.246 159.883 103.418C160.054 102.903 160.311 102.56 160.483 102.045C161.341 98.8716 162.198 95.698 163.056 92.5244C164 88.922 165.801 85.8341 168.46 83.1752C182.098 69.623 195.65 55.9851 209.288 42.433C214.692 37.0293 221.125 35.228 228.587 37.2008C247.8 42.3472 267.013 47.5794 286.312 52.5542C296.347 55.1274 303.381 65.5059 300.293 76.828C295.318 95.0118 290.515 113.196 285.54 131.465C285.111 133.095 284.682 134.725 284.168 136.698C297.119 140.128 309.9 143.559 322.851 146.99C323.623 144.16 324.395 141.501 325.081 138.756C325.339 137.727 325.682 136.698 325.939 135.668C326.797 132.237 328.512 129.321 331 126.834C344.724 113.11 358.447 99.3005 372.257 85.5768C377.403 80.4304 383.75 78.6292 390.784 80.4304C410.426 85.5768 429.982 90.7232 449.538 96.0411C460.002 98.8716 465.835 109.25 463.004 119.8C457.944 138.928 452.712 157.969 447.651 177.097C447.394 177.954 447.222 178.726 446.965 179.756C447.823 180.013 448.68 180.356 449.538 180.613C468.494 185.674 487.45 190.735 506.406 195.795C514.726 198.025 519.786 203.429 521.33 211.92C521.759 214.494 521.502 217.067 520.901 219.554C515.669 239.111 510.437 258.581 505.205 278.137C504.261 281.482 502.546 284.399 500.058 286.886C486.421 300.438 472.868 314.076 459.23 327.628C453.741 333.032 447.308 334.919 439.76 332.946C429.982 330.373 420.204 327.714 410.34 325.141C409.654 324.969 408.967 324.798 408.024 324.54C406.394 330.545 404.85 336.377 403.221 342.467C404.078 342.724 404.85 342.982 405.537 343.153C424.578 348.3 443.534 353.532 462.576 358.678C470.038 360.737 474.927 365.283 477.071 372.745C478.015 376.09 477.929 379.349 476.985 382.695C473.126 396.933 469.352 411.085 465.578 425.324C464.205 430.384 462.833 435.359 461.546 440.42C460.517 444.451 458.459 447.711 455.456 450.541C445.936 459.89 436.501 469.411 427.066 478.846C423.034 482.877 419.003 486.995 414.886 490.94C409.568 496.087 403.306 497.802 396.187 496.001C386.152 493.342 376.202 490.683 366.167 488.024C365.652 487.852 365.052 487.767 364.366 487.595C364.108 488.11 363.851 488.624 363.765 489.139C362.736 492.913 361.707 496.687 360.763 500.547C359.734 504.492 357.761 507.752 354.93 510.582C341.636 523.791 328.427 537 315.218 550.295C312.13 553.383 308.785 555.699 304.496 556.557C301.408 557.157 298.406 557.071 295.404 556.299C276.105 551.153 256.806 546.006 237.507 540.86C228.501 538.458 222.583 530.653 222.926 521.561C223.012 519.76 223.355 518.044 223.784 516.329C229.101 496.515 234.419 476.702 239.737 456.974C239.909 456.202 240.08 455.516 240.338 454.487C227.386 451.056 214.606 447.625 201.654 444.194C200.625 447.882 199.767 451.313 198.824 454.744C198.48 456.116 198.137 457.489 197.709 458.861C196.765 461.863 195.135 464.436 192.991 466.666C179.267 480.39 165.544 494.028 151.906 507.752C148.904 510.754 145.301 512.726 141.098 513.413C138.268 513.927 135.523 513.67 132.778 512.984C113.479 507.837 94.0947 502.691 74.7958 497.459C63.9026 494.543 58.07 484.25 60.9863 473.357C64.0741 461.606 67.2477 449.941 70.4213 438.19C72.7372 429.698 74.9673 421.207 77.1974 412.715C77.0259 412.286 77.1116 411.857 77.2832 411.085ZM300.893 408.426C300.636 409.799 300.379 411.257 300.036 412.629C295.147 430.899 290.258 449.169 285.283 467.438C284.168 471.47 283.138 475.587 282.023 479.618C281.509 481.591 281.766 481.934 283.653 482.534C283.91 482.62 284.168 482.706 284.511 482.792C289.657 484.164 294.718 485.536 299.864 486.909C313.245 490.511 326.625 494.028 340.006 497.63C342.579 498.317 342.922 498.145 343.608 495.572C343.608 495.4 343.694 495.315 343.78 495.143C347.382 481.591 350.985 468.124 354.673 454.572C357.075 445.566 359.476 436.646 361.878 427.725C363.165 422.922 367.11 419.749 371.999 419.577C373.715 419.491 375.43 419.92 377.06 420.349C398.417 426.01 419.689 431.757 441.047 437.418C443.534 438.104 443.877 437.847 444.478 435.445C449.538 416.746 454.513 398.048 459.488 379.349C460.088 376.948 459.917 376.605 457.429 375.918C449.71 373.774 441.99 371.716 434.271 369.571C420.461 365.797 406.737 362.023 392.928 358.335C390.869 357.82 388.982 357.048 387.438 355.59C384.093 352.331 383.15 348.471 384.351 344.011C388.125 330.116 391.813 316.306 395.501 302.411C398.846 289.974 402.191 277.623 405.451 265.186C406.137 262.784 407.252 260.64 409.139 259.096C412.313 256.522 415.829 256.008 419.861 257.037C439.674 262.355 459.488 267.673 479.216 272.905C481.274 273.42 483.333 274.02 485.391 274.535C486.935 274.878 487.364 274.621 487.964 273.077C488.05 272.819 488.136 272.562 488.222 272.219C493.197 253.606 498.257 234.993 503.232 216.381C503.918 213.893 503.661 213.55 501.259 212.864C494.912 211.149 488.565 209.433 482.218 207.803C466.864 203.686 451.425 199.569 436.072 195.452C433.241 194.68 430.925 193.308 429.296 190.82C427.237 187.732 426.98 184.473 427.923 180.956C433.67 159.599 439.417 138.241 445.164 116.884C446.021 113.625 445.936 113.453 442.762 112.595C430.153 109.25 417.545 105.905 404.85 102.474C398.932 100.93 393.014 99.3005 387.095 97.7566C385.037 97.2419 384.608 97.4993 384.008 99.472C383.922 99.7294 383.836 99.9867 383.75 100.33C379.547 115.94 375.344 131.465 371.227 147.076C369.598 153.08 368.054 159.084 366.424 165.088C365.223 169.377 362.564 172.208 358.19 173.323C355.96 173.923 353.815 173.58 351.671 172.98C331.343 167.576 311.015 162.086 290.601 156.683C284.768 155.139 279.021 153.595 273.189 152.051C269.072 150.936 266.327 148.363 265.04 144.246C264.268 141.844 264.697 139.442 265.298 137.041C270.787 116.541 276.362 96.1269 281.852 75.6271C282.195 74.4263 282.538 73.1397 282.795 71.8531C283.053 70.4808 282.795 70.0519 281.509 69.623C281.166 69.5373 280.823 69.3657 280.479 69.2799C261.867 64.3051 243.254 59.3303 224.641 54.3554C222.24 53.6692 221.811 53.9266 221.125 56.3282C219.924 60.7026 218.809 64.9913 217.608 69.3657C212.976 86.6061 208.344 103.846 203.713 121.087C203.198 123.06 202.512 124.861 201.054 126.405C197.709 129.921 193.763 130.779 189.131 129.578C170.862 124.689 152.592 119.8 134.322 114.911C130.119 113.796 125.916 112.681 121.714 111.566C119.655 111.051 119.226 111.309 118.626 113.367C118.626 113.539 118.54 113.625 118.54 113.796C114.166 130.35 109.705 146.905 105.331 163.459C104.731 165.775 104.044 168.176 103.53 170.492C103.187 171.864 103.53 172.293 104.731 172.808C105.159 172.98 105.588 173.065 105.931 173.151C128.232 179.069 150.448 185.159 172.749 190.992C179.267 192.707 183.127 198.883 181.24 205.573C176.008 224.529 170.947 243.656 165.887 262.698C164 269.903 162.027 277.022 160.14 284.227C159.111 288.001 156.881 290.746 153.278 292.118C150.705 293.148 148.132 292.89 145.473 292.204C125.916 286.972 106.446 281.74 86.8898 276.508C83.8877 275.736 80.7999 274.878 77.7978 274.106C76.2539 273.677 75.7393 274.02 75.2246 275.478C75.0531 275.907 74.9673 276.336 74.8815 276.679C69.9925 295.12 65.0176 313.476 60.1286 331.917C60.0428 332.346 59.8713 332.775 59.7855 333.118C59.6139 334.49 59.8713 334.919 61.0721 335.434C61.5009 335.605 62.0156 335.691 62.5302 335.862C75.6535 339.465 88.691 342.982 101.814 346.584C110.82 349.072 119.827 351.559 128.919 353.961C132.178 354.818 134.837 356.534 136.467 359.536C138.096 362.452 138.096 365.454 137.239 368.628C131.234 390.757 125.316 412.887 119.398 435.016C118.54 438.19 118.626 438.361 121.885 439.219C135.094 442.736 148.217 446.252 161.427 449.769C166.659 451.141 171.891 452.6 177.123 453.972C179.696 454.658 180.039 454.487 180.725 451.828C180.725 451.742 180.725 451.656 180.811 451.656C186.815 429.355 192.734 407.14 198.824 384.839C199.167 383.381 199.767 382.008 200.539 380.722C202.512 377.462 207.315 374.803 213.233 376.433C231.932 381.579 250.716 386.469 269.501 391.529C277.134 393.588 284.854 395.561 292.488 397.705C297.634 399.163 300.722 403.366 300.893 408.426Z"/>
  </g>
</svg>
