<svg  viewBox="13 45 195 30" fill="none" xmlns="http://www.w3.org/2000/svg">
<rect  fill="white"/>
<g clip-path="url(#clip0_2001_2)">
<path d="M63.313 68.575L58.2224 62.0511C61.4844 61.3097 63.7578 59.1845 63.7578 55.6755V55.626C63.7578 53.8468 63.1153 52.3147 62.028 51.2273C60.6442 49.7941 58.4695 49.0033 55.7513 49.0033H47.7447C46.9539 49.0033 46.262 49.6952 46.262 50.486V69.6128C46.262 70.453 46.9539 71.0956 47.7447 71.0956C48.5849 71.0956 49.2274 70.4036 49.2274 69.6128V62.6442H54.9605L60.8913 70.3542C61.2373 70.799 61.6821 71.0956 62.2257 71.0956C62.9671 71.0956 63.7084 70.4036 63.7084 69.6128C63.7578 69.2175 63.6096 68.9209 63.313 68.575ZM60.743 55.7249V55.7743C60.743 58.3937 58.5684 59.9259 55.5041 59.9259H49.2274V51.771H55.5536C58.8155 51.771 60.743 53.2043 60.743 55.7249Z" fill="black"/>
<path d="M68.0576 69.4646C68.0576 70.3048 68.7495 70.9473 69.5403 70.9473H82.9835C83.7248 70.9473 84.3673 70.3542 84.3673 69.5634C84.3673 68.8221 83.7743 68.1796 82.9835 68.1796H71.023V61.2603H81.4514C82.1927 61.2603 82.8352 60.6672 82.8352 59.8764C82.8352 59.1351 82.2421 58.4926 81.4514 58.4926H71.023V51.7216H82.8352C83.5766 51.7216 84.2191 51.1285 84.2191 50.3377C84.2191 49.5469 83.626 48.9539 82.8352 48.9539H69.5403C68.7495 48.9539 68.0576 49.6458 68.0576 50.4366C68.0576 50.486 68.0576 69.4646 68.0576 69.4646Z" fill="black"/>
<path d="M96.822 71.1945H96.9703C97.7611 71.1945 98.2553 70.7496 98.6013 70.0083L106.904 50.832C106.954 50.6343 107.003 50.4861 107.003 50.2389C107.003 49.4976 106.361 48.8057 105.521 48.8057C104.878 48.8057 104.334 49.2999 104.087 49.7941L96.9209 66.9935L89.7545 49.893C89.5073 49.2505 88.9637 48.8057 88.2718 48.8057C87.4316 48.8057 86.7891 49.547 86.7891 50.2884C86.7891 50.5355 86.8385 50.7332 86.9373 50.9803L95.191 70.0083C95.4382 70.7496 95.9818 71.1945 96.822 71.1945Z" fill="black"/>
<path d="M110.957 50.3377V69.6129C110.957 70.4531 111.649 71.0956 112.44 71.0956C113.28 71.0956 113.923 70.4036 113.923 69.6129V50.3377C113.923 49.4975 113.231 48.855 112.44 48.855C111.6 48.8056 110.957 49.4975 110.957 50.3377Z" fill="black"/>
<path d="M134.137 49.0033H120.793C120.002 49.0033 119.31 49.6952 119.31 50.486V69.4646C119.31 70.3048 120.002 70.9473 120.793 70.9473H134.236C134.977 70.9473 135.62 70.3542 135.62 69.5634C135.62 68.8221 135.026 68.1796 134.236 68.1796H122.275V61.2603H132.704C133.445 61.2603 134.087 60.6672 134.087 59.8764C134.087 59.1351 133.494 58.4926 132.704 58.4926H122.275V51.7216H134.087C134.829 51.7216 135.471 51.1285 135.471 50.3377C135.471 49.5964 134.878 49.0033 134.137 49.0033Z" fill="black"/>
<path d="M160.381 71.2439H160.628C161.32 71.2439 161.863 70.7497 162.11 70.0083L168.98 50.9803C169.03 50.7826 169.129 50.5355 169.129 50.3378C169.129 49.5965 168.437 48.8551 167.646 48.8551C166.954 48.8551 166.46 49.2999 166.213 49.9918L160.529 66.3016L155.191 49.9918C154.994 49.3493 154.499 48.8551 153.758 48.8551H153.61C152.819 48.8551 152.374 49.2999 152.176 49.9918L146.839 66.3016L141.204 50.0413C141.007 49.3988 140.414 48.8551 139.672 48.8551C138.832 48.8551 138.14 49.547 138.14 50.3378C138.14 50.5355 138.19 50.7826 138.288 50.9803L145.158 70.0083C145.405 70.7497 145.9 71.1945 146.641 71.2439H146.888C147.58 71.2439 148.124 70.7497 148.371 70.0083L153.659 54.2917L158.947 70.0083C159.145 70.7002 159.689 71.1945 160.381 71.2439Z" fill="black"/>
<path d="M184.598 65.1154V65.1648C184.598 67.1417 182.769 68.5256 180.1 68.5256C177.432 68.5256 175.504 67.7348 173.527 66.0544C173.329 65.8567 172.983 65.7084 172.588 65.7084C171.797 65.7084 171.155 66.3509 171.155 67.1911C171.155 67.6854 171.402 68.0808 171.748 68.3279C174.17 70.2554 176.838 71.2439 180.002 71.2439C184.45 71.2439 187.563 68.7233 187.563 64.9177V64.8682C187.563 61.458 185.339 59.6294 180.397 58.542C175.899 57.603 174.812 56.5651 174.812 54.6376V54.5882C174.812 52.8089 176.493 51.4251 179.112 51.4251C181.039 51.4251 182.72 51.9687 184.499 53.2537C184.746 53.4514 185.043 53.5009 185.339 53.5009C186.13 53.5009 186.773 52.8584 186.773 52.0676C186.773 51.5239 186.427 51.0791 186.13 50.8814C184.104 49.4481 182.028 48.7068 179.161 48.7068C174.911 48.7068 171.847 51.3262 171.847 54.8353L172.143 55.1318L171.847 54.8847V54.9341C171.847 58.5915 174.17 60.2719 179.26 61.3592C183.511 62.1994 184.598 63.1878 184.598 65.1154Z" fill="black"/>
<path d="M190.924 68.0808C190.331 68.0808 189.936 68.4762 189.936 69.0693V69.4152C189.936 69.9589 190.331 70.4037 190.924 70.4037C191.468 70.4037 191.913 69.9589 191.913 69.4152C191.913 69.5141 191.863 69.5635 191.764 69.5635C191.764 69.5635 191.913 69.5635 191.913 69.4152V69.0693C191.913 68.5256 191.468 68.0808 190.924 68.0808ZM190.133 69.5635C190.084 69.5635 190.084 69.5635 190.133 69.5635Z" fill="black"/>
<path d="M194.433 61.8535V69.5141C194.433 69.9589 194.779 70.3543 195.274 70.3543C195.768 70.3543 196.064 70.0083 196.064 69.5141V61.8535C196.064 61.3592 195.718 61.0133 195.224 61.0133C194.829 61.0627 194.433 61.4086 194.433 61.8535ZM194.334 58.7398C194.334 59.234 194.73 59.6294 195.274 59.6294C195.817 59.6294 196.213 59.2834 196.213 58.7398V58.5421C196.213 57.9984 195.817 57.6525 195.274 57.6525C194.73 57.6525 194.334 57.9984 194.334 58.5421V58.7398Z" fill="black"/>
<path fill-rule="evenodd" clip-rule="evenodd" d="M207.827 65.7085C207.827 63.0891 205.801 60.9144 203.082 60.9144C200.315 60.9144 198.288 63.0891 198.288 65.7085V65.7579C198.288 68.3279 200.315 70.5026 203.033 70.5026C205.801 70.5026 207.827 68.3279 207.827 65.7085ZM206.147 65.7579C206.147 63.9293 204.812 62.4466 203.033 62.4466C201.204 62.4466 199.969 63.9293 199.969 65.7085V65.7579C199.969 67.5866 201.303 69.0199 203.082 69.0199C204.862 69.0199 206.147 67.5372 206.147 65.7579Z" fill="black"/>
<path fill-rule="evenodd" clip-rule="evenodd" d="M37.3658 50.6837L36.0314 51.3262C38.6014 53.402 39.837 56.0709 40.0841 59.3328C39.8864 65.5602 36.921 69.6129 31.8798 71.3427C26.0479 73.1219 22.3411 71.6887 18.7332 68.0313L18.4861 69.4152L19.9688 70.9473C25.0594 76.2356 33.4614 76.3839 38.7497 71.3427C44.038 66.2521 44.1863 57.8501 39.1451 52.5618C39.1451 52.5124 37.3658 50.6837 37.3658 50.6837Z" fill="#FEEF7C"/>
<path fill-rule="evenodd" clip-rule="evenodd" d="M17.7942 68.6244L18.6838 67.8336C15.0265 62.6441 14.8782 55.0329 19.87 50.8814C23.5767 47.7677 30.9408 46.1861 36.8716 51.3756L37.3164 50.5848L35.8831 49.1021C30.7925 43.8138 22.3906 43.6161 17.1023 48.7067C11.814 53.7973 11.6657 62.1993 16.7069 67.4876L17.7942 68.6244Z" fill="#5CD3CB"/>
<path d="M14.6311 60.0246C14.6311 67.3887 20.6113 73.3195 27.926 73.3195C35.2901 73.3195 41.2209 67.3393 41.2209 60.0246C41.2209 52.6605 35.2407 46.7297 27.926 46.7297C20.5619 46.7297 14.6311 52.71 14.6311 60.0246ZM23.8733 62.4464C24.0215 62.0016 23.8733 61.5073 23.4779 61.2602C22.4894 60.5189 20.5619 59.0856 19.2275 58.0971C19.0298 57.9488 18.9804 57.7017 19.0298 57.504C19.0792 57.2569 19.3263 57.1086 19.524 57.1086H24.5652C25.0594 57.1086 25.4548 56.8121 25.6031 56.3673C25.9985 55.1811 26.7893 52.7594 27.3329 51.1778C27.3823 50.9307 27.6295 50.7825 27.8272 50.7825C28.0743 50.7825 28.272 50.9307 28.3214 51.1778C28.865 52.7594 29.6558 55.1811 30.0512 56.3673C30.1995 56.8121 30.5949 57.1086 31.0891 57.1086C32.2753 57.1086 34.5982 57.1086 36.1797 57.1086C36.4268 57.1086 36.6245 57.2569 36.6739 57.504C36.7728 57.7512 36.6739 57.9488 36.4762 58.0971C35.1912 59.0856 33.2143 60.5189 32.2753 61.2602C31.9293 61.5568 31.7316 62.0016 31.8799 62.4464C32.2753 63.6325 33.0166 66.0543 33.5603 67.6853C33.6097 67.9324 33.5603 68.1795 33.3626 68.2783C33.1649 68.4266 32.9178 68.4266 32.7201 68.2783C31.4351 67.2899 29.5075 65.8072 28.5191 65.0658C28.1237 64.7693 27.58 64.7693 27.1846 65.0658C26.1962 65.8072 24.3181 67.2899 23.0331 68.2783C22.8354 68.4266 22.5883 68.4266 22.3906 68.2783C22.1929 68.1301 22.094 67.883 22.1929 67.6853C22.7365 66.0543 23.4779 63.6325 23.8733 62.4464Z" fill="black"/>
</g>
<defs>
<clipPath id="clip0_2001_2">
<rect width="194.827" height="30" fill="white" transform="translate(13 45)"/>
</clipPath>
</defs>
</svg>
