<svg  viewBox="49 45 123 30" fill="none" xmlns="http://www.w3.org/2000/svg">
<rect  fill="white"/>
<mask id="mask0_2001_2" style="mask-type:luminance" maskUnits="userSpaceOnUse" x="49" y="45" width="123" height="30">
<path d="M171.157 45H49V75H171.157V45Z" fill="white"/>
</mask>
<g mask="url(#mask0_2001_2)">
<path d="M81.1028 55.6327H93.4716V57.9404H88.6082V70.9131H85.9339V57.9404H81.092V55.6327H81.1028ZM92.9432 59.8491H95.2294V61.9842H95.2725C95.348 61.6823 95.4882 61.3912 95.693 61.1108C95.8979 60.8304 96.146 60.5608 96.4371 60.3343C96.7283 60.0971 97.0518 59.9138 97.4076 59.7628C97.7635 59.6226 98.1302 59.5471 98.4968 59.5471C98.7772 59.5471 98.982 59.558 99.0899 59.5687C99.1977 59.5795 99.3056 59.6011 99.4242 59.6118V61.9627C99.2516 61.9303 99.0791 61.9087 98.8958 61.8872C98.7125 61.8656 98.5399 61.8549 98.3674 61.8549C97.9576 61.8549 97.5694 61.9411 97.2028 62.1028C96.8361 62.2646 96.5234 62.5126 96.2538 62.8253C95.9842 63.1489 95.7685 63.5371 95.6068 64.0116C95.445 64.4861 95.3695 65.0252 95.3695 65.6399V70.9023H92.9325V59.8491H92.9432ZM110.629 70.9131H108.234V69.371H108.191C107.889 69.9318 107.447 70.3739 106.854 70.7082C106.261 71.0425 105.657 71.215 105.042 71.215C103.587 71.215 102.53 70.8592 101.883 70.1367C101.236 69.4142 100.912 68.325 100.912 66.8692V59.8491H103.349V66.632C103.349 67.6025 103.533 68.2927 103.91 68.6917C104.277 69.0906 104.805 69.2956 105.474 69.2956C105.992 69.2956 106.412 69.2201 106.757 69.0583C107.102 68.8965 107.382 68.6917 107.588 68.4221C107.803 68.1632 107.954 67.8398 108.051 67.4731C108.148 67.1065 108.191 66.7075 108.191 66.2762V59.8599H110.629V70.9131ZM114.78 67.3652C114.855 68.077 115.125 68.573 115.589 68.8642C116.063 69.1446 116.624 69.2956 117.282 69.2956C117.509 69.2956 117.767 69.2739 118.058 69.2416C118.35 69.2093 118.63 69.1338 118.878 69.0367C119.137 68.9397 119.341 68.7887 119.514 68.5946C119.676 68.4005 119.751 68.1525 119.74 67.8398C119.73 67.527 119.611 67.2682 119.395 67.0741C119.18 66.8692 118.91 66.7182 118.576 66.5889C118.241 66.4702 117.864 66.3624 117.433 66.2762C117.002 66.1898 116.57 66.0928 116.128 65.9957C115.675 65.8987 115.233 65.7693 114.813 65.6291C114.392 65.4889 114.014 65.2948 113.68 65.0468C113.346 64.8095 113.076 64.4968 112.882 64.1194C112.677 63.7419 112.58 63.2783 112.58 62.7175C112.58 62.1137 112.731 61.6176 113.022 61.2078C113.314 60.798 113.691 60.4746 114.133 60.2265C114.586 59.9785 115.082 59.8059 115.632 59.6981C116.182 59.6011 116.71 59.5471 117.206 59.5471C117.778 59.5471 118.328 59.6118 118.846 59.7304C119.363 59.8491 119.837 60.0432 120.258 60.3236C120.678 60.5932 121.024 60.949 121.304 61.3804C121.584 61.8117 121.757 62.3401 121.832 62.9548H119.288C119.169 62.3724 118.91 61.9735 118.489 61.7794C118.069 61.5745 117.584 61.4774 117.044 61.4774C116.872 61.4774 116.667 61.4882 116.43 61.5205C116.193 61.5529 115.977 61.6068 115.761 61.6823C115.556 61.7578 115.384 61.8764 115.233 62.0274C115.093 62.1783 115.017 62.3724 115.017 62.6205C115.017 62.9224 115.125 63.1597 115.33 63.343C115.535 63.5263 115.804 63.6773 116.139 63.8067C116.473 63.9253 116.851 64.0331 117.282 64.1194C117.713 64.2057 118.155 64.3027 118.608 64.3998C119.05 64.4968 119.482 64.6262 119.913 64.7664C120.344 64.9066 120.722 65.1007 121.056 65.3487C121.391 65.5968 121.66 65.8987 121.865 66.2653C122.07 66.632 122.177 67.0957 122.177 67.6348C122.177 68.2927 122.026 68.8426 121.725 69.3063C121.423 69.7592 121.035 70.1367 120.56 70.417C120.085 70.6974 119.547 70.9131 118.964 71.0425C118.382 71.1719 117.799 71.2366 117.228 71.2366C116.527 71.2366 115.88 71.1611 115.287 70.9993C114.694 70.8376 114.176 70.6004 113.745 70.2876C113.314 69.9641 112.969 69.5651 112.721 69.0906C112.473 68.6162 112.343 68.0446 112.321 67.3869H114.78V67.3652ZM122.825 59.8491H124.669V56.5277H127.106V59.8491H129.306V61.6715H127.106V67.5809C127.106 67.8398 127.117 68.0554 127.138 68.2495C127.16 68.4328 127.213 68.5946 127.289 68.724C127.365 68.8534 127.483 68.9505 127.645 69.0151C127.807 69.0798 128.012 69.1122 128.292 69.1122C128.465 69.1122 128.637 69.1122 128.809 69.1015C128.982 69.0906 129.154 69.0691 129.327 69.026V70.9131C129.058 70.9454 128.788 70.967 128.54 70.9993C128.281 71.0317 128.023 71.0425 127.753 71.0425C127.106 71.0425 126.588 70.9778 126.2 70.8592C125.812 70.7406 125.499 70.5572 125.283 70.32C125.057 70.0827 124.917 69.7916 124.831 69.4357C124.755 69.0798 124.701 68.6701 124.69 68.2172V61.6931H122.846V59.8491H122.825ZM131.031 59.8491H133.339V61.348H133.382C133.727 60.701 134.201 60.2481 134.816 59.9677C135.431 59.6873 136.089 59.5471 136.811 59.5471C137.685 59.5471 138.439 59.6981 139.086 60.0109C139.733 60.3128 140.272 60.7333 140.704 61.2725C141.135 61.8117 141.448 62.4371 141.664 63.1489C141.879 63.8606 141.987 64.6262 141.987 65.435C141.987 66.1791 141.89 66.9016 141.696 67.5917C141.502 68.2927 141.211 68.9073 140.823 69.4465C140.434 69.9857 139.938 70.4063 139.334 70.7297C138.73 71.0533 138.03 71.215 137.21 71.215C136.854 71.215 136.498 71.1826 136.142 71.118C135.786 71.0533 135.442 70.9454 135.118 70.8052C134.794 70.6651 134.482 70.4817 134.212 70.2553C133.932 70.0288 133.705 69.77 133.511 69.4789H133.468V75H131.031V59.8491ZM139.55 65.3919C139.55 64.8958 139.485 64.4106 139.356 63.9361C139.227 63.4616 139.033 63.0518 138.774 62.6852C138.515 62.3185 138.191 62.0274 137.814 61.8117C137.426 61.596 136.983 61.4774 136.487 61.4774C135.463 61.4774 134.687 61.8332 134.169 62.545C133.652 63.2567 133.393 64.2057 133.393 65.3919C133.393 65.9526 133.457 66.4702 133.597 66.9447C133.738 67.4192 133.932 67.8289 134.212 68.174C134.482 68.5191 134.805 68.7887 135.183 68.9828C135.56 69.1877 136.002 69.2848 136.498 69.2848C137.059 69.2848 137.523 69.1661 137.911 68.9397C138.299 68.7132 138.612 68.4113 138.86 68.0554C139.108 67.6888 139.291 67.279 139.399 66.8153C139.496 66.3516 139.55 65.8771 139.55 65.3919ZM143.853 55.6327H146.29V57.9404H143.853V55.6327ZM143.853 59.8491H146.29V70.9131H143.853V59.8491ZM148.468 55.6327H150.905V70.9131H148.468V55.6327ZM158.378 71.215C157.494 71.215 156.707 71.064 156.017 70.7729C155.326 70.4817 154.744 70.0719 154.259 69.5651C153.784 69.0475 153.418 68.4328 153.17 67.7211C152.922 67.0094 152.792 66.2222 152.792 65.3703C152.792 64.5292 152.922 63.7528 153.17 63.041C153.418 62.3293 153.784 61.7146 154.259 61.1971C154.733 60.6794 155.326 60.2805 156.017 59.9893C156.707 59.6981 157.494 59.5471 158.378 59.5471C159.262 59.5471 160.05 59.6981 160.74 59.9893C161.43 60.2805 162.012 60.6902 162.498 61.1971C162.972 61.7146 163.339 62.3293 163.587 63.041C163.835 63.7528 163.964 64.5292 163.964 65.3703C163.964 66.2222 163.835 67.0094 163.587 67.7211C163.339 68.4328 162.972 69.0475 162.498 69.5651C162.023 70.0827 161.43 70.4817 160.74 70.7729C160.05 71.064 159.262 71.215 158.378 71.215ZM158.378 69.2848C158.917 69.2848 159.392 69.1661 159.791 68.9397C160.19 68.7132 160.513 68.4113 160.772 68.0446C161.031 67.678 161.214 67.2574 161.344 66.7937C161.462 66.33 161.527 65.8556 161.527 65.3703C161.527 64.8958 161.462 64.4321 161.344 63.9576C161.225 63.4832 161.031 63.0734 160.772 62.7067C160.513 62.3401 160.19 62.0489 159.791 61.8225C159.392 61.596 158.917 61.4774 158.378 61.4774C157.839 61.4774 157.365 61.596 156.966 61.8225C156.566 62.0489 156.243 62.3509 155.984 62.7067C155.725 63.0734 155.542 63.4832 155.413 63.9576C155.294 64.4321 155.229 64.8958 155.229 65.3703C155.229 65.8556 155.294 66.33 155.413 66.7937C155.531 67.2574 155.725 67.678 155.984 68.0446C156.243 68.4113 156.566 68.7132 156.966 68.9397C157.365 69.1769 157.839 69.2848 158.378 69.2848ZM164.676 59.8491H166.52V56.5277H168.957V59.8491H171.157V61.6715H168.957V67.5809C168.957 67.8398 168.968 68.0554 168.989 68.2495C169.011 68.4328 169.065 68.5946 169.141 68.724C169.216 68.8534 169.334 68.9505 169.496 69.0151C169.658 69.0798 169.862 69.1122 170.143 69.1122C170.316 69.1122 170.488 69.1122 170.661 69.1015C170.833 69.0906 171.006 69.0691 171.178 69.026V70.9131C170.909 70.9454 170.639 70.967 170.391 70.9993C170.132 71.0317 169.873 71.0425 169.604 71.0425C168.957 71.0425 168.439 70.9778 168.051 70.8592C167.663 70.7406 167.35 70.5572 167.135 70.32C166.908 70.0827 166.768 69.7916 166.682 69.4357C166.606 69.0798 166.552 68.6701 166.542 68.2172V61.6931H164.698V59.8491H164.676Z" fill="#191919"/>
<path d="M78.2559 55.6327H67.0841L63.6333 45L60.1719 55.6327L49 55.6218L58.0475 62.1999L54.5859 72.8217L63.6333 66.2545L72.67 72.8217L69.2193 62.1999L78.2559 55.6327Z" fill="#00B67A"/>
<path d="M69.9956 64.6045L69.2192 62.1998L63.6333 66.2545L69.9956 64.6045Z" fill="#005128"/>
</g>
</svg>
