<svg width="220" height="120" viewBox="0 0 220 120" fill="none" xmlns="http://www.w3.org/2000/svg">
<rect width="220" height="120" fill="white"/>
<mask id="mask0_2001_2" style="mask-type:luminance" maskUnits="userSpaceOnUse" x="55" y="45" width="110" height="30">
<path d="M164.662 45H55V75H164.662V45Z" fill="white"/>
</mask>
<g mask="url(#mask0_2001_2)">
<path fill-rule="evenodd" clip-rule="evenodd" d="M61.1846 49.2461L65.2 60.3692L69.4462 49.2461H75.4462L65.2 75H59.2462L62.2923 67.0154L55 49.2461H61.1846ZM124.6 48.8308C130 48.8308 133.969 53.0308 133.969 58.8C133.969 64.5692 130 68.7693 124.6 68.7693C122.615 68.7693 120.908 68.2615 119.615 67.2L119.523 67.1538L119.431 67.1077V75H113.662V49.2461H118.785V51.1846L118.831 51.1385C120.077 49.7077 122.015 48.9231 124.369 48.8769H124.508L124.6 48.8308ZM85.9692 48.8308C91.9231 48.8308 96.1692 52.9385 96.1692 58.8C96.1692 64.6154 91.9231 68.7693 85.9692 68.7693C79.9692 68.7693 75.7231 64.6154 75.7231 58.8C75.7692 52.9385 79.9692 48.8308 85.9692 48.8308ZM105.816 45V49.2461H110.569V54.2308H105.816V61.1077C105.816 62.6308 106.554 63.5077 107.939 63.5539H107.985H108.031C108.954 63.5539 109.646 63.3231 110.292 62.7231L110.339 62.6769L110.477 62.5384H110.523V68.0308L110.339 68.1231C109.369 68.5846 108.815 68.7693 107.154 68.7693C102.585 68.7693 100.046 66.2769 99.9538 61.6154V61.4769V61.3385V54.2308H97.877V49.2461H100.138V45H105.816ZM146.569 48.8308C152.523 48.8308 156.769 52.9385 156.769 58.8C156.769 64.6154 152.523 68.7693 146.569 68.7693C140.569 68.7693 136.323 64.6154 136.323 58.8C136.369 52.9385 140.569 48.8308 146.569 48.8308ZM161.523 62.4462C163.277 62.4462 164.708 63.8769 164.708 65.6308C164.708 67.3846 163.277 68.8154 161.523 68.8154C159.769 68.8154 158.338 67.3846 158.338 65.6308C158.338 63.8769 159.769 62.4462 161.523 62.4462ZM123.723 54.0461C121.139 54.0461 119.338 55.9846 119.338 58.8C119.338 61.6615 121.092 63.5539 123.723 63.5539C126.354 63.5539 128.154 61.6154 128.154 58.8C128.108 55.9385 126.354 54.0461 123.723 54.0461ZM85.9692 54.0461C83.3385 54.0461 81.5385 55.9846 81.5385 58.8C81.5385 61.6154 83.3385 63.5539 85.9692 63.5539C88.5539 63.5539 90.3538 61.6154 90.3538 58.8C90.3538 55.9846 88.5539 54.0461 85.9692 54.0461ZM146.569 54.0461C143.938 54.0461 142.139 55.9846 142.139 58.8C142.139 61.6154 143.938 63.5539 146.569 63.5539C149.154 63.5539 150.954 61.6154 150.954 58.8C150.954 55.9846 149.154 54.0461 146.569 54.0461Z" fill="#0042E4"/>
</g>
</svg>
