<svg viewBox="0 0 96 26" fill="none" xmlns="http://www.w3.org/2000/svg"><path fill-rule="evenodd" clip-rule="evenodd" d="m5.646 3.673 3.487 9.642 3.654-9.642h5.188L9.105 26H3.974l2.624-6.918L.292 3.673h5.354Zm54.788-.342c4.684 0 8.1 3.645 8.1 8.633 0 4.988-3.416 8.634-8.1 8.634-1.728 0-3.184-.46-4.294-1.344l-.072-.059-.062-.05v6.85h-4.999V3.673h4.42v1.669l.025-.029c1.09-1.245 2.737-1.934 4.772-1.979l.108-.002h.102Zm-33.355 0c5.158 0 8.813 3.574 8.813 8.633 0 5.039-3.667 8.634-8.813 8.634-5.175 0-8.848-3.59-8.848-8.634 0-5.064 3.66-8.633 8.848-8.633ZM44.22 0v3.673h4.112v4.33H44.22v5.975c0 1.337.648 2.073 1.827 2.118h.057l.059.001c.8 0 1.405-.21 1.947-.733l.051-.05.135-.138h.037v4.775l-.153.074c-.824.395-1.33.573-2.733.573-3.963 0-6.139-2.163-6.224-6.203l-.001-.123v-.123l-.001-6.147h-1.81V3.673h1.946V0h4.863Zm35.236 3.331c5.158 0 8.813 3.574 8.813 8.633 0 5.039-3.667 8.634-8.813 8.634-5.175 0-8.848-3.59-8.848-8.634 0-5.064 3.662-8.633 8.848-8.633Zm12.888 11.774a2.743 2.743 0 0 1 2.739 2.746 2.743 2.743 0 0 1-2.739 2.747 2.743 2.743 0 0 1-2.739-2.747 2.743 2.743 0 0 1 2.739-2.746ZM59.685 7.832c-2.252 0-3.782 1.671-3.782 4.132 0 2.462 1.53 4.133 3.782 4.133 2.281 0 3.816-1.666 3.816-4.133 0-2.466-1.535-4.132-3.816-4.132Zm-32.607 0c-2.259 0-3.815 1.68-3.815 4.132 0 2.454 1.556 4.133 3.816 4.133 2.23 0 3.782-1.685 3.782-4.133 0-2.447-1.553-4.132-3.783-4.132Zm52.378 0c-2.259 0-3.816 1.68-3.816 4.132 0 2.454 1.557 4.133 3.816 4.133 2.23 0 3.782-1.685 3.782-4.133 0-2.447-1.552-4.132-3.782-4.132Z" fill="#000"/></svg>
