<svg class="primary-logo-image" xmlns="http://www.w3.org/2000/svg" viewBox="0 0 414.8 75.3"><path d="M138.3 25h-25.9c-6.7 0-12 5.6-12 12.3v25.6a12.2 12.2 0 0 0 12 12.3h25.9c6.7 0 12-5.6 12-12.3V37.2c0-6.7-5.3-12.2-12-12.3zm4.4 15.7v19c0 4.3-3.4 7.9-7.7 8h-19.3a7.9 7.9 0 0 1-7.7-8v-19c0-4.4 3.4-8 7.7-8H135c4.3 0 7.8 3.7 7.7 8zm50.6-15.8h-26c-6.7.1-12 5.7-12 12.4v25.6a12.2 12.2 0 0 0 12 12.3h26c6.7 0 12-5.6 12-12.3V37.2c0-6.7-5.3-12.2-12-12.3zm4.3 15.8v19c.1 4.3-3.3 7.9-7.7 8h-19.2a7.9 7.9 0 0 1-7.7-8v-19c0-4.4 3.4-8 7.8-8H190c4.3.1 7.7 3.7 7.7 8zm105-15.8h-26c-6.7.1-12 5.7-12 12.4v25.6c0 6.7 5.3 12.2 12 12.3h26c6.7-.1 12-5.6 12-12.3V37.2c0-6.7-5.3-12.2-12-12.3zm4.4 15.8v19c0 4.3-3.4 7.9-7.7 8h-19.2a7.9 7.9 0 0 1-7.8-8v-19c0-4.4 3.4-8 7.8-8h19.2c4.3 0 7.8 3.7 7.7 8zm50.5-15.8h-26c-6.7.1-12 5.7-12 12.4v25.6c0 6.7 5.3 12.2 12 12.3h26c6.7-.1 12-5.6 12-12.3V37.2c0-6.7-5.3-12.2-12-12.3zm4.4 15.8v19c0 4.3-3.4 7.9-7.7 8h-19.3a7.9 7.9 0 0 1-7.7-8v-19c0-4.4 3.4-8 7.7-8h19.3c4.3 0 7.8 3.7 7.7 8zM83 24.9h-26c-1.4 0-2.8.3-4.2.9v-26h-7.6V63c0 6.7 5.3 12.2 12 12.3h25.8c6.7 0 12-5.6 12-12.3V37.2C95 30.5 89.8 25 83 25zm4.4 15.8v19c0 4.3-3.4 7.9-7.7 8H60.5a7.9 7.9 0 0 1-7.7-8v-19c0-4.3 3.5-7.8 7.7-7.9h19.3c4.3 0 7.7 3.6 7.7 7.9zM248 25h-26c-1.4 0-2.8.3-4.1.9V0h-7.6v75.3h7.6v-.6l-.2-33.8c0-4.3 3.5-7.8 7.7-7.9h19.3c4.3.1 7.8 3.7 7.7 8v34.4h7.6V37.6c.2-6.8-5.1-12.3-11.9-12.5h-.1z"></path></svg>