<svg width="131" height="28" viewBox="0 0 131 28" fill="none" xmlns="http://www.w3.org/2000/svg">
<path d="M87.0366 1.33479C86.943 0.77827 86.4046 0.322266 85.8397 0.322266H81.6236C81.0586 0.322266 80.5193 0.77772 80.4239 1.33479L76.1996 26.1852C76.106 26.7422 76.4903 27.1977 77.0553 27.1977H80.158C80.7229 27.1977 81.2585 26.7412 81.3466 26.1836L82.0913 21.2704H85.2766L86.0149 26.1825C86.1011 26.7406 86.633 27.1977 87.1989 27.1977H90.3429C90.9078 27.1977 91.2939 26.7422 91.1995 26.1852L87.0366 1.33479ZM84.5263 16.405H82.8966L83.711 10.6557L84.5263 16.405Z" fill="#151011"/>
<path d="M23.1247 0C21.2969 0 19.7072 0.65961 18.3986 1.95966C17.0906 3.25972 16.4277 4.86114 16.4277 6.71928V20.7967C16.4277 22.6383 17.0831 24.2344 18.3752 25.5414C19.6694 26.8511 21.2671 27.5143 23.1247 27.5143C24.9669 27.5143 26.564 26.8558 27.8716 25.5552C29.1791 24.2541 29.8423 22.6522 29.8423 20.7967V6.71873C29.8423 4.876 29.1833 3.27833 27.8832 1.97131C26.5822 0.663828 24.9812 0 23.1247 0ZM21.3218 6.63692C21.3218 6.16541 21.4845 5.77691 21.8183 5.44949C22.1552 5.1184 22.5491 4.9568 23.0221 4.9568C23.4936 4.9568 23.8827 5.11675 24.2127 5.44628C24.5412 5.7737 24.7011 6.16385 24.7011 6.63692V20.7552C24.7011 21.2277 24.5412 21.6167 24.2122 21.9447C23.8826 22.2742 23.4936 22.4337 23.0221 22.4337C22.5491 22.4337 22.1552 22.2721 21.8183 21.9415C21.4845 21.6136 21.3218 21.225 21.3218 20.7552V6.63692Z" fill="#151011"/>
<path d="M38.7985 0C36.9706 0 35.3809 0.65961 34.0729 1.95966C32.7643 3.25972 32.1016 4.86114 32.1016 6.71928V20.7967C32.1016 22.6383 32.7569 24.2344 34.0489 25.5414C35.3432 26.8511 36.9409 27.5143 38.7985 27.5143C40.6406 27.5143 42.2378 26.8558 43.5453 25.5552C44.8528 24.2541 45.5162 22.6522 45.5162 20.7967V6.71873C45.5162 4.876 44.8571 3.27833 43.5571 1.97131C42.2565 0.663828 40.655 0 38.7985 0ZM36.9956 6.63692C36.9956 6.16541 37.1582 5.77691 37.492 5.44949C37.829 5.1184 38.2229 4.9568 38.6959 4.9568C39.1673 4.9568 39.5564 5.11675 39.8865 5.44628C40.2149 5.7737 40.3749 6.16385 40.3749 6.63692V20.7552C40.3749 21.2277 40.2149 21.6167 39.8859 21.9447C39.5564 22.2742 39.1673 22.4337 38.6959 22.4337C38.2229 22.4337 37.829 22.2721 37.492 21.9415C37.1582 21.6136 36.9956 21.225 36.9956 20.7552V6.63692Z" fill="#151011"/>
<path d="M47.106 4.29695C47.106 4.862 47.5684 5.32388 48.1334 5.32388L51.2433 5.34992V26.1742C51.2433 26.7392 51.7051 27.2016 52.2701 27.2016H55.1929C55.7578 27.2016 56.2201 26.7398 56.2201 26.1742V5.32809L59.309 5.32388C59.874 5.32388 60.3371 4.86145 60.3371 4.29695V1.35356C60.3371 0.788505 59.874 0.326172 59.309 0.326172H48.1329C47.5679 0.326172 47.1055 0.788505 47.1055 1.35356L47.106 4.29695Z" fill="#151011"/>
<path d="M62.3906 26.1798C62.3906 26.7447 62.8529 27.2072 63.4178 27.2072H73.5229C74.0879 27.2072 74.5501 26.7453 74.5501 26.1798V23.2358C74.5501 22.6713 74.0879 22.2089 73.5229 22.2089H67.3781V16.2572H71.5877C72.1527 16.2572 72.615 15.7953 72.615 15.2303V12.2863C72.615 11.7213 72.1536 11.2594 71.5877 11.2594H67.3441L67.3781 5.30767H73.5229C74.0879 5.30767 74.5501 4.8458 74.5501 4.28074V1.33836C74.5501 0.7734 74.0879 0.311523 73.5229 0.311523H63.4178C62.8529 0.311523 62.3906 0.77395 62.3906 1.33836V26.1798Z" fill="#151011"/>
<path d="M109.882 27.2214L107.545 26.9763C98.5799 26.0717 91.5582 18.3586 91.5582 9.41758C91.5582 9.31926 91.5371 0.325195 91.5371 0.325195L93.9758 0.565946C102.911 1.46631 109.908 9.17307 109.908 18.1119L109.882 27.2214ZM95.9238 5.33033C95.9165 6.89452 95.8798 9.3288 95.8798 9.41703C95.8798 15.3487 99.9831 20.5637 105.58 22.2072C105.577 20.7524 105.587 18.1108 105.587 18.1108C105.586 12.1803 101.499 6.96679 95.9238 5.33033Z" fill="#151011"/>
<path d="M112.497 27.2346L112.49 18.1246C112.49 9.18574 119.489 1.47897 128.423 0.579709L130.815 0.338867C130.815 0.338867 130.84 9.33248 130.84 9.4308C130.84 18.3728 123.819 26.0844 114.854 26.9895L112.497 27.2346ZM126.476 5.34409C120.9 6.98 116.812 12.1941 116.812 18.1246L116.814 18.5679C116.817 19.3003 116.822 20.7646 116.819 22.2214C122.416 20.5775 126.519 15.3613 126.519 9.4308C126.519 9.34312 126.482 6.90828 126.476 5.34409Z" fill="#151011"/>
<path d="M14.044 17.5694C13.8404 16.4677 13.5194 15.5481 13.0862 14.8306C12.6392 14.1093 12.1161 13.5417 11.5257 13.1351C11.7649 12.9517 11.986 12.7444 12.1884 12.5127C13.1935 11.3732 13.7032 9.85414 13.7032 7.99601C13.7032 6.88782 13.5698 5.91088 13.3078 5.09609C12.8183 3.53832 11.9817 2.36685 10.823 1.61314C9.50327 0.750011 8.00392 0.311523 6.36792 0.311523H0.89715C0.403451 0.313633 0 0.774959 0 1.33836V26.1798C0 26.7315 0.387495 27.1817 0.866887 27.2029V27.2072H7.74666C8.81871 27.2072 9.90406 26.875 10.9724 26.2218C11.9301 25.6377 12.6816 24.8489 13.2047 23.8763C13.8632 22.6623 14.197 21.1752 14.197 19.4589C14.197 18.7738 14.1459 18.1403 14.044 17.5694ZM5.28523 5.34913H6.36792C6.98497 5.34913 7.46868 5.5431 7.84663 5.94169C8.2665 6.38394 8.47909 7.07547 8.47909 7.99601C8.47909 8.57803 8.41315 9.0654 8.28292 9.44326C7.94862 10.4016 7.34055 10.8481 6.36737 10.8481H5.28523V5.34913ZM8.59603 20.5863C8.16653 21.7354 7.45859 22.2711 6.36792 22.2711H5.28523V15.6598H6.36792C7.16363 15.6598 7.73923 15.892 8.1315 16.3704C8.59438 16.9258 8.82935 17.8682 8.82935 19.1719C8.82935 19.7056 8.75121 20.1802 8.59603 20.5863Z" fill="#151011"/>
</svg>
