<svg width="157" height="24" viewBox="0 0 157 24" fill="none" xmlns="http://www.w3.org/2000/svg">
<path d="M151.698 2.73973C152.337 2.73973 152.845 2.23742 152.845 1.58888C152.845 0.940353 152.337 0.444336 151.698 0.444336C151.059 0.444336 150.551 0.946651 150.551 1.59528C150.551 2.24381 151.059 2.73973 151.698 2.73973ZM151.695 0.608141C152.252 0.608141 152.677 1.04679 152.677 1.59528C152.677 2.14367 152.253 2.57603 151.701 2.57603C151.149 2.57603 150.72 2.13727 150.72 1.58888C150.72 1.0405 151.143 0.608141 151.695 0.608141Z" fill="#040509"/>
<path d="M151.509 1.671H151.63L152.027 2.18281H152.264L151.837 1.65991C152.042 1.62333 152.144 1.5009 152.144 1.3213C152.144 1.09872 151.976 0.979492 151.756 0.979492H151.332V2.18281H151.511V1.671H151.509ZM151.503 1.1496H151.734C151.879 1.1496 151.959 1.21316 151.959 1.34199C151.959 1.47071 151.873 1.52788 151.726 1.52788H151.505V1.1496H151.503Z" fill="#040509"/>
<path d="M0 11.7027C0 18.7064 5.03983 23.038 11.5468 23.038C13.8075 23.038 15.6097 22.6089 17.0151 21.6869V15.6353C15.7014 16.926 14.0525 17.5698 12.127 17.5698C8.46089 17.5698 6.01688 15.1425 6.01688 11.426C6.01688 7.70952 8.43091 5.4666 12.0653 5.4666C13.9593 5.4666 15.6097 6.04996 17.0135 7.49334V1.16674C15.4279 0.338608 13.6857 0 11.9136 0C5.37654 0 0 4.70043 0 11.7027Z" fill="#040509"/>
<path d="M29.2356 0C22.4236 0 17.1387 4.85304 17.1387 11.7027C17.1387 18.0308 22.0267 23.038 29.2055 23.038C36.3843 23.038 41.3024 18.185 41.3024 11.3355C41.3024 5.00726 36.4144 0 29.2356 0ZM29.2055 17.5698C25.4778 17.5698 23.157 14.8977 23.157 11.5183C23.157 8.13878 25.4794 5.4666 29.2356 5.4666C32.9918 5.4666 35.2841 8.13878 35.2841 11.5183C35.2841 14.8977 32.9617 17.5698 29.2055 17.5698Z" fill="#040509"/>
<path d="M59.0759 7.37543C59.0759 3.35062 56.6935 0.494141 50.8268 0.494141H42.6094V22.5498H48.3227V13.6719L54.0044 22.5498H60.9698L54.6763 13.6417C57.4871 12.5671 59.0759 10.3242 59.0759 7.37543ZM50.2466 10.6008H48.3227V5.43933H50.2167C52.0805 5.43933 53.1492 6.17691 53.1492 7.98908C53.1492 9.67882 52.1406 10.6008 50.2466 10.6008Z" fill="#040509"/>
<path d="M80.0986 0.494141H73.2845L66.8695 9.92518V0.494141H61.1562V22.5498H66.8695V12.9661L74.14 22.5498H81.5338L72.2161 10.9075L80.0986 0.494141Z" fill="#040509"/>
<path d="M78.0176 11.7027C78.0176 18.7064 83.0578 23.038 89.5641 23.038C91.8248 23.038 93.6268 22.6089 95.033 21.6869V15.6353C93.7187 16.926 92.0696 17.5698 90.1447 17.5698C86.4788 17.5698 84.0342 15.1425 84.0342 11.426C84.0342 7.70952 86.4478 5.4666 90.0828 5.4666C91.9767 5.4666 93.6268 6.04996 95.031 7.49334V1.16674C93.4419 0.337009 91.7018 0 89.9299 0C83.3906 0 78.0156 4.70043 78.0156 11.7027" fill="#040509"/>
<path d="M102.189 0.494141H96.4766V22.5498H102.189V0.494141Z" fill="#040509"/>
<path d="M103.506 11.7027C103.506 18.7064 108.546 23.038 115.053 23.038C117.314 23.038 119.116 22.6089 120.521 21.6869V15.6353C119.208 16.926 117.557 17.5698 115.633 17.5698C111.967 17.5698 109.523 15.1425 109.523 11.426C109.523 7.70952 111.935 5.4666 115.571 5.4666C117.465 5.4666 119.114 6.04996 120.521 7.49334V1.16674C118.932 0.337009 117.19 0 115.42 0C108.883 0 103.506 4.70043 103.506 11.7027Z" fill="#040509"/>
<path d="M127.659 0.494141H121.947V22.5498H134.532V17.328H127.659V0.494141Z" fill="#040509"/>
<path d="M141.624 14.0406H148.222V8.97302H141.624V5.71587H148.621V0.494141H135.912V22.5498H148.742V17.328H141.624V14.0406Z" fill="#040509"/>
<path d="M152.965 16.4023C151.163 16.4023 149.666 17.8775 149.666 19.7198C149.666 21.5621 151.163 23.0373 152.965 23.0373C154.767 23.0373 156.264 21.5637 156.264 19.7198C156.264 17.8759 154.797 16.4023 152.965 16.4023Z" fill="#040509"/>
</svg>
