<svg width="172" height="21" viewBox="0 0 172 21" fill="none" xmlns="http://www.w3.org/2000/svg">
<mask id="mask0_2014_480" style="mask-type:luminance" maskUnits="userSpaceOnUse" x="0" y="0" width="172" height="22">
<path d="M171.361 0H0V21.0083H171.361V0Z" fill="white"/>
</mask>
<g mask="url(#mask0_2014_480)">
<path fill-rule="evenodd" clip-rule="evenodd" d="M148.779 0.572946H155.082C155.32 0.572946 155.463 0.763925 155.368 0.954906L148.922 19.3849C148.874 19.5759 148.636 19.7669 148.397 19.7669H142.19C141.951 19.7669 141.76 19.5759 141.665 19.3849L138.275 9.69242C138.275 9.83568 138.275 10.0267 138.275 10.1699C138.275 15.8039 133.644 20.3398 128.009 20.3398C122.853 20.3398 118.555 16.5201 117.839 11.6023V19.3849C117.839 19.5759 117.649 19.7669 117.41 19.7669H112.54C112.349 19.7669 112.11 19.6236 111.967 19.3849L107.049 10.6951V19.3372C107.049 19.5282 106.857 19.7192 106.619 19.7192H100.747L88.5707 2.53057V19.8146H87.3301V0.572946H88.5707L100.747 17.8093V0.572946H101.367H102.513H106.523C106.762 0.572946 107.049 0.716201 107.193 0.954906L112.063 9.6447V0.954906C112.063 0.716201 112.253 0.52522 112.444 0.52522H117.41C117.649 0.52522 117.839 0.716201 117.839 0.954906V8.68979C118.555 3.81972 122.853 0 128.009 0C131.447 0 134.55 1.71883 136.413 4.29713L135.219 0.954906C135.123 0.763925 135.267 0.572946 135.506 0.572946H141.808C142.046 0.572946 142.285 0.763925 142.333 0.954906L145.294 12.414L148.254 0.954906C148.301 0.763925 148.54 0.572946 148.779 0.572946ZM123.473 10.1699C123.473 12.6527 125.479 14.658 128.009 14.658C130.492 14.658 132.545 12.6527 132.545 10.1699C132.545 7.68716 130.54 5.68181 128.009 5.68181C125.526 5.72953 123.473 7.73488 123.473 10.1699ZM159.904 12.5095L161.432 7.20966L162.959 12.5095H159.904ZM165.013 0.907184L171.363 19.4327C171.459 19.6236 171.315 19.8146 171.124 19.8146H165.538C165.299 19.8146 165.06 19.6714 164.965 19.4327L164.106 16.5201H158.806L157.946 19.4327C157.851 19.6714 157.612 19.8146 157.373 19.8146H151.787C151.548 19.8146 151.452 19.6236 151.548 19.4327L157.898 0.907184C157.994 0.763926 158.28 0.52522 158.567 0.52522H164.297C164.583 0.572944 164.917 0.763926 165.013 0.907184Z" fill="black"/>
<path d="M1.24142 1.77093H9.83568V0.672852H0V20.3919H1.24142V11.2247H9.50144V10.0788H1.24142V1.77093Z" fill="black"/>
<path fill-rule="evenodd" clip-rule="evenodd" d="M36.9951 9.93121C37.6636 10.3132 38.2843 10.6951 38.8095 11.2204C39.3824 11.6978 39.8121 12.2707 40.1941 12.8915C40.5283 13.5121 40.7193 14.2761 40.7193 15.0878C40.7193 15.8517 40.576 16.5679 40.2896 17.1886C40.0031 17.8571 39.5734 18.3822 39.0482 18.8597C38.523 19.3372 37.8546 19.7192 37.0907 19.9579C36.3266 20.1966 35.515 20.3398 34.6078 20.3398C33.7484 20.3398 32.8413 20.2444 31.8863 20.0533C30.9314 19.8623 30.1197 19.5759 29.4035 19.2417L29.7377 18.1435C30.5494 18.4777 31.3133 18.7643 32.0772 18.9552C32.8413 19.1462 33.7006 19.2417 34.5601 19.2417C36.0879 19.2417 37.2816 18.8597 38.141 18.1435C39.0482 17.4273 39.4779 16.3769 39.4779 15.1355C39.4779 14.467 39.3347 13.8464 39.0482 13.3689C38.7618 12.8915 38.4275 12.4617 37.9978 12.0797C37.5681 11.6978 37.0428 11.3635 36.5176 11.0771C35.9447 10.7906 35.3717 10.5042 34.7988 10.1699C34.0826 9.83568 33.4142 9.45372 32.7934 9.11948C32.1728 8.78532 31.6476 8.40327 31.2179 7.97359C30.7881 7.5439 30.4539 7.0664 30.2152 6.54118C29.9765 6.01605 29.8332 5.39529 29.8332 4.63137C29.8332 3.86744 29.9765 3.15124 30.263 2.57829C30.5494 2.00535 30.9791 1.52785 31.4566 1.14589C31.9818 0.763925 32.5547 0.477497 33.1754 0.286515C33.8439 0.0955338 34.5124 0 35.2285 0C36.0879 0 36.9474 0.0955338 37.759 0.286515C38.5708 0.477497 39.2869 0.763926 39.9077 1.09817L39.6211 2.19633C38.9049 1.86209 38.2365 1.57566 37.4726 1.3846C36.7564 1.19361 36.0402 1.09817 35.2763 1.09817C34.0349 1.09817 33.0322 1.3846 32.2205 1.95763C31.4089 2.53057 31.0269 3.38994 31.0269 4.53592C31.0269 5.10886 31.1223 5.58627 31.2656 6.01605C31.4089 6.39801 31.6953 6.77997 31.9818 7.11413C32.316 7.44837 32.698 7.73488 33.2232 8.02131C33.7006 8.30783 34.3214 8.64207 34.9898 8.9285C35.6583 9.21501 36.3266 9.54925 36.9951 9.93121ZM18.1354 0.334238L10.4961 20.0056H11.7852L13.7905 14.7058H23.3875L25.4406 20.0056H26.7297L19.0903 0.381964H18.1354V0.334238ZM14.2203 13.5599L18.6129 2.00535L23.0055 13.5599H14.2203Z" fill="black"/>
<path d="M55.8674 9.79233H43.9786V0.672852H42.6895V20.3919H43.9786V10.9382H55.8674V20.3442H57.1566V0.672852H55.8674V9.79233Z" fill="black"/>
<path d="M61.0762 20.3442H62.4131V0.672852H61.0762V20.3442Z" fill="black"/>
<path fill-rule="evenodd" clip-rule="evenodd" d="M65.0293 10.5042C65.0293 4.7269 69.7561 0 75.5335 0C81.3105 0 86.0375 4.7269 86.0375 10.5042C86.0375 16.2814 81.3105 21.0083 75.5335 21.0083C69.7084 21.0083 65.0293 16.2814 65.0293 10.5042ZM66.4139 10.5042C66.4139 15.5175 70.5201 19.6236 75.5335 19.6236C80.5471 19.6236 84.6529 15.5175 84.6529 10.5042C84.6529 5.49083 80.5471 1.3846 75.5335 1.3846C70.4723 1.3846 66.4139 5.49083 66.4139 10.5042Z" fill="black"/>
</g>
</svg>
