<svg width="147" height="25" viewBox="0 0 147 25" fill="none" xmlns="http://www.w3.org/2000/svg">
<mask id="mask0_2014_506" style="mask-type:luminance" maskUnits="userSpaceOnUse" x="0" y="0" width="147" height="25">
<path d="M146.969 0H0V24.4949H146.969V0Z" fill="white"/>
</mask>
<g mask="url(#mask0_2014_506)">
<path d="M5.96051 10.9048H11.2676V18.4732C11.2676 22.2975 9.30766 24.4949 5.63375 24.4949C1.95967 24.4949 0 22.2979 0 18.4732V6.02199C0 2.19703 1.95967 0 5.63375 0C9.30798 0 11.2676 2.19711 11.2676 6.02199V8.38207H7.67507V5.77802C7.67507 4.06958 6.94031 3.41867 5.7154 3.41867C4.49049 3.41867 3.75605 4.06958 3.75605 5.77802V18.7173C3.75605 20.426 4.49081 21.0776 5.7154 21.0776C6.93998 21.0776 7.67507 20.426 7.67507 18.7173V14.3227H5.96051V10.9048Z" fill="#231F20"/>
<path d="M16.7476 16.3538L12.0117 0.322266H15.931L18.7889 11.227L21.6464 0.322266H25.3205L20.5034 16.3538V24.3286H16.7476V16.3538Z" fill="#231F20"/>
<path d="M34.7791 17.3304L37.3919 0.322593H42.6174V24.2476H39.0248V7.07722L36.412 24.2472H32.8195L30.0435 7.32078V24.2472H26.7773V0.322266H32.0029L34.7791 17.3304Z" fill="#231F20"/>
<path d="M50.4598 0.00195312C54.1339 0.00195312 56.0123 2.19898 56.0123 6.02394V6.75618H52.4191V5.77957C52.4191 4.07113 51.766 3.42022 50.541 3.42022C49.3164 3.42022 48.6634 4.07113 48.6634 5.77957C48.6634 10.7437 56.012 11.639 56.012 18.4748C56.012 22.2991 54.052 24.4965 50.378 24.4965C46.7037 24.4965 44.7441 22.2993 44.7441 18.4748V17.0096H48.3367V18.7188C48.3367 20.4272 49.0717 21.0788 50.2966 21.0788C51.5216 21.0788 52.2559 20.4272 52.2559 18.7188C52.2559 13.7546 44.9076 12.8591 44.9076 6.02354C44.9075 2.19898 46.7853 0.00195312 50.4598 0.00195312Z" fill="#231F20"/>
<path d="M61.9722 24.2473H58.2168V0.322266H61.9722V10.5758H66.2999V0.322266H70.1374V24.2473H66.2999V13.9938H61.9722V24.2473Z" fill="#231F20"/>
<path d="M85.0847 24.2473H81.2471L80.5939 19.934H75.9399L75.2867 24.2473H71.8574L75.695 0.322266H81.2463L85.0847 24.2473ZM76.5106 16.6791H80.1857L78.3894 4.55352L76.5106 16.6791Z" fill="#231F20"/>
<path d="M94.7223 24.2466C94.4774 23.5949 94.3957 23.2703 94.3957 21.3176V17.5739C94.3957 15.3769 93.6601 14.5636 91.9462 14.5636H90.6398V24.3288H86.8848V0.322266H92.5994C96.5186 0.322266 98.2333 2.11243 98.2333 5.85631V7.72748C98.2333 10.1689 97.4168 11.7963 95.7838 12.6105C97.6617 13.4241 98.3141 15.2152 98.3141 17.738V21.3995C98.3141 22.5391 98.3141 23.4339 98.7231 24.3288H94.7215L94.7223 24.2466ZM90.6398 3.73922V11.063H92.1095C93.4976 11.063 94.3957 10.4118 94.3957 8.5403V6.1803C94.3957 4.47121 93.8234 3.73881 92.4369 3.73881L90.6398 3.73922Z" fill="#231F20"/>
<path d="M105.572 14.7267L104.429 16.9238V24.2476H100.674V0.322266H104.429V10.7385L109.41 0.322266H113.165L107.94 10.9828L113.165 24.2476H109.247L105.572 14.7267Z" fill="#231F20"/>
<path d="M115.605 0.40625C126.057 0.40625 136.509 0.40625 146.959 0.40625C146.959 0.40625 132.589 16.3565 125.322 24.2499C125.322 24.2499 125.894 23.0301 126.221 22.5415C125.894 22.5415 125.567 21.2397 125.159 20.5877C124.751 20.8322 124.342 20.9949 123.935 21.1575C123.526 21.4018 123.281 21.3209 123.036 20.8333C122.873 20.4259 122.711 19.9377 122.464 19.5311C122.057 19.6938 121.076 20.264 120.913 20.264L115.85 18.1477C115.932 18.1477 118.382 18.067 119.443 18.1477L121.076 19.5318C121.484 19.1255 121.811 18.4742 122.137 18.1477H123.036C123.362 18.4734 123.689 19.0432 124.015 19.4497C124.423 19.0431 124.913 18.5549 125.24 18.2296H125.893C126.22 18.5549 126.628 19.0431 126.955 19.3684C126.955 19.3684 127.036 19.3684 127.117 19.4497C127.117 19.4497 127.771 18.7175 128.015 18.3922H128.751C128.751 18.3922 137.977 4.5574 138.059 4.39508C130.629 3.0103 115.605 0.40625 115.605 0.40625Z" fill="#231F20"/>
<path d="M124.759 8.62277L119.615 5.77441C122.635 6.50665 125.739 7.23921 128.76 7.89045L124.759 8.62277Z" fill="#231F20"/>
<path d="M5.96051 10.9048H11.2676V18.4732C11.2676 22.2975 9.30766 24.4949 5.63375 24.4949C1.95967 24.4949 0 22.2979 0 18.4732V6.02199C0 2.19703 1.95967 0 5.63375 0C9.30798 0 11.2676 2.19711 11.2676 6.02199V8.38207H7.67507V5.77802C7.67507 4.06958 6.94031 3.41867 5.7154 3.41867C4.49049 3.41867 3.75605 4.06958 3.75605 5.77802V18.7173C3.75605 20.426 4.49081 21.0776 5.7154 21.0776C6.93998 21.0776 7.67507 20.426 7.67507 18.7173V14.3227H5.96051V10.9048Z" fill="#231F20"/>
<path d="M16.7476 16.3538L12.0117 0.322266H15.931L18.7889 11.227L21.6464 0.322266H25.3205L20.5034 16.3538V24.3286H16.7476V16.3538Z" fill="#231F20"/>
<path d="M34.7791 17.3304L37.3919 0.322593H42.6174V24.2476H39.0248V7.07722L36.412 24.2472H32.8195L30.0435 7.32078V24.2472H26.7773V0.322266H32.0029L34.7791 17.3304Z" fill="#231F20"/>
<path d="M50.4598 0.00195312C54.1339 0.00195312 56.0123 2.19898 56.0123 6.02394V6.75618H52.4191V5.77957C52.4191 4.07113 51.766 3.42022 50.541 3.42022C49.3164 3.42022 48.6634 4.07113 48.6634 5.77957C48.6634 10.7437 56.012 11.639 56.012 18.4748C56.012 22.2991 54.052 24.4965 50.378 24.4965C46.7037 24.4965 44.7441 22.2993 44.7441 18.4748V17.0096H48.3367V18.7188C48.3367 20.4272 49.0717 21.0788 50.2966 21.0788C51.5216 21.0788 52.2559 20.4272 52.2559 18.7188C52.2559 13.7546 44.9076 12.8591 44.9076 6.02354C44.9075 2.19898 46.7853 0.00195312 50.4598 0.00195312Z" fill="#231F20"/>
<path d="M61.9722 24.2473H58.2168V0.322266H61.9722V10.5758H66.2999V0.322266H70.1374V24.2473H66.2999V13.9938H61.9722V24.2473Z" fill="#231F20"/>
<path d="M85.0847 24.2473H81.2471L80.5939 19.934H75.9399L75.2867 24.2473H71.8574L75.695 0.322266H81.2463L85.0847 24.2473ZM76.5106 16.6791H80.1857L78.3894 4.55352L76.5106 16.6791Z" fill="#231F20"/>
<path d="M94.7223 24.2466C94.4774 23.5949 94.3957 23.2703 94.3957 21.3176V17.5739C94.3957 15.3769 93.6601 14.5636 91.9462 14.5636H90.6398V24.3288H86.8848V0.322266H92.5994C96.5186 0.322266 98.2333 2.11243 98.2333 5.85631V7.72748C98.2333 10.1689 97.4168 11.7963 95.7838 12.6105C97.6617 13.4241 98.3141 15.2152 98.3141 17.738V21.3995C98.3141 22.5391 98.3141 23.4339 98.7231 24.3288H94.7215L94.7223 24.2466ZM90.6398 3.73922V11.063H92.1095C93.4976 11.063 94.3957 10.4118 94.3957 8.5403V6.1803C94.3957 4.47121 93.8234 3.73881 92.4369 3.73881L90.6398 3.73922Z" fill="#231F20"/>
<path d="M105.572 14.7267L104.429 16.9238V24.2476H100.674V0.322266H104.429V10.7385L109.41 0.322266H113.165L107.94 10.9828L113.165 24.2476H109.247L105.572 14.7267Z" fill="#231F20"/>
<path d="M115.605 0.40625C126.057 0.40625 136.509 0.40625 146.959 0.40625C146.959 0.40625 132.589 16.3565 125.322 24.2499C125.322 24.2499 125.894 23.0301 126.221 22.5415C125.894 22.5415 125.567 21.2397 125.159 20.5877C124.751 20.8322 124.342 20.9949 123.935 21.1575C123.526 21.4018 123.281 21.3209 123.036 20.8333C122.873 20.4259 122.711 19.9377 122.464 19.5311C122.057 19.6938 121.076 20.264 120.913 20.264L115.85 18.1477C115.932 18.1477 118.382 18.067 119.443 18.1477L121.076 19.5318C121.484 19.1255 121.811 18.4742 122.137 18.1477H123.036C123.362 18.4734 123.689 19.0432 124.015 19.4497C124.423 19.0431 124.913 18.5549 125.24 18.2296H125.893C126.22 18.5549 126.628 19.0431 126.955 19.3684C126.955 19.3684 127.036 19.3684 127.117 19.4497C127.117 19.4497 127.771 18.7175 128.015 18.3922H128.751C128.751 18.3922 137.977 4.5574 138.059 4.39508C130.629 3.0103 115.605 0.40625 115.605 0.40625Z" fill="#231F20"/>
<path d="M124.759 8.62277L119.615 5.77441C122.635 6.50665 125.739 7.23921 128.76 7.89045L124.759 8.62277Z" fill="#231F20"/>
</g>
</svg>
