<svg width="187" height="20" viewBox="0 0 187 20" fill="none" xmlns="http://www.w3.org/2000/svg">
<path d="M8.5205 0.320328H12.8018L7.58827 8.68169L12.8018 18.9589H8.41065L3.94454 9.40346H3.89321V18.9578H0V0.320328H3.89526V8.29566H3.94557L8.5205 0.320328ZM17.579 18.9578H21.4743V12.502L26.6878 0.320328H22.7083L19.7361 8.19504L16.9578 0.320328H12.7012L17.578 12.502L17.579 18.9578ZM38.4249 18.9578V15.8603H32.5913V0.320328H28.696V18.9578H38.4249ZM40.3058 18.9578H44.2011V0.320328H40.3058V18.9578ZM56.4587 18.9578V16.0954H49.9772V10.6468H55.7616V7.78334H49.9772V3.18377H56.2493V0.319301H46.0738V18.9578H56.4587ZM112.532 18.9578V4.57596H112.583L115.991 18.9496H119.711L123.296 4.57596H123.347V18.9496H127.141V0.320328H121.08L117.981 12.9897H117.931L115.018 0.320328H108.746V18.9578H112.542H112.532ZM139.399 18.9578V16.0954H132.917V10.6468H138.702V7.78334H132.917V3.18377H139.188V0.319301H129.022V18.9578H139.399ZM141.086 0.320328V3.41785H145.427V18.9578H149.322V3.41785H153.663V0.320328H141.086ZM159.431 18.9578V0.320328H155.535V18.9578H159.431ZM73.0737 19.2607C76.7082 19.2607 78.6989 17.657 78.6989 12.6786H74.8539C74.8026 14.1468 74.8786 16.4732 73.0737 16.4732C70.8827 16.4732 70.5973 14.4075 70.5973 9.63035C70.5973 4.85317 70.8827 2.78849 73.0737 2.78849C74.2318 2.78849 74.6774 3.7197 74.6774 6.1971H78.4966C78.6486 2.2002 77.0531 0.00102613 73.0737 0.00102613C66.6425 0.00102613 66.6425 4.69403 66.6425 9.63138C66.6425 14.5667 66.6425 19.2607 73.0737 19.2607ZM86.8673 19.2607C93.2902 19.2607 93.2902 14.5082 93.2902 9.63035C93.2902 4.75358 93.2902 0 86.8673 0C80.4453 0 80.4371 4.69403 80.4371 9.63035C80.4371 14.5667 80.4371 19.2607 86.8673 19.2607ZM86.8673 16.4732C84.6763 16.4732 84.3909 14.4075 84.3909 9.63035C84.3909 4.85317 84.6763 2.78849 86.8673 2.78849C89.0592 2.78849 89.3447 4.85317 89.3447 9.63035C89.3447 14.4075 89.0592 16.4732 86.8673 16.4732ZM107.042 13.8706C107.042 8.01024 99.1927 8.32132 99.1927 4.78643C99.1927 3.4928 99.9391 2.7967 101.207 2.7967C102.777 2.7967 103.012 4.21559 103.012 5.60984H106.807C107.067 1.71355 105.178 0.00923905 101.384 0.00923905C96.6321 0.00923905 95.2379 2.33469 95.2379 5.24844C95.2379 10.7977 103.088 11.0082 103.088 14.3572C103.088 15.6252 102.441 16.4722 101.123 16.4722C98.9822 16.4722 98.9073 14.9784 98.9073 13.1899H95.011C94.8015 16.4137 95.7081 19.2607 100.536 19.2607C103.5 19.2607 107.042 18.6899 107.042 13.8706ZM167.742 19.2607C171.377 19.2607 173.367 17.657 173.367 12.6786H169.522C169.472 14.1468 169.548 16.4732 167.742 16.4732C165.551 16.4732 165.265 14.4075 165.265 9.63035C165.265 4.85317 165.551 2.78849 167.742 2.78849C168.901 2.78849 169.345 3.7197 169.345 6.1971H173.166C173.317 2.2002 171.721 0.00102613 167.742 0.00102613C161.312 0.00102613 161.312 4.69403 161.312 9.63138C161.312 14.5667 161.312 19.2607 167.742 19.2607ZM186.909 13.8706C186.909 8.01024 179.059 8.32132 179.059 4.78643C179.059 3.4928 179.806 2.7967 181.074 2.7967C182.644 2.7967 182.879 4.21559 182.879 5.60984H186.674C186.935 1.71355 185.046 0.00923905 181.251 0.00923905C176.498 0.00923905 175.105 2.33469 175.105 5.24844C175.105 10.7977 182.955 11.0082 182.955 14.3572C182.955 15.6252 182.308 16.4722 180.99 16.4722C178.849 16.4722 178.774 14.9784 178.774 13.1899H174.878C174.669 16.4137 175.575 19.2607 180.403 19.2607C183.366 19.2607 186.909 18.6899 186.909 13.8706Z" fill="black"/>
</svg>
