<svg width="117" height="31" viewBox="0 0 117 31" fill="none" xmlns="http://www.w3.org/2000/svg">
<mask id="mask0_2014_516" style="mask-type:luminance" maskUnits="userSpaceOnUse" x="0" y="0" width="117" height="31">
<path d="M116.899 0H0V30.7957H116.899V0Z" fill="white"/>
</mask>
<g mask="url(#mask0_2014_516)">
<path d="M95.4872 0C95.1279 0 94.7707 0.0702158 94.4381 0.206641C94.1055 0.343066 93.8037 0.543032 93.5491 0.795146C93.2946 1.04726 93.0923 1.3466 92.9548 1.67601C92.8172 2.00542 92.7464 2.35844 92.7464 2.71495C92.7464 3.07156 92.8172 3.42459 92.9548 3.754C93.0923 4.08341 93.2946 4.38274 93.5491 4.63485C93.8037 4.88697 94.1055 5.08694 94.4381 5.22336C94.7707 5.35979 95.1279 5.43 95.4872 5.43C95.8475 5.43 96.2037 5.35979 96.5363 5.22336C96.8689 5.08694 97.1717 4.88697 97.4263 4.63485C97.6809 4.38274 97.8821 4.08341 98.0207 3.754C98.1582 3.42459 98.229 3.07156 98.229 2.71495C98.229 2.35844 98.1582 2.00542 98.0207 1.67601C97.8821 1.3466 97.6809 1.04726 97.4263 0.795146C97.1717 0.543032 96.8689 0.343066 96.5363 0.206641C96.2037 0.0702158 95.8475 0 95.4872 0ZM38.0874 0.0366487V23.504H42.5089V0.0366487H38.0874ZM112.4 0.0366487V8.22317C111.016 7.35596 109.473 6.86682 108.057 6.86682C103.301 6.86682 99.4465 10.4539 99.4465 15.4348C99.4465 20.1476 103.092 23.9679 108.057 23.9679C112.012 23.9679 116.899 21.8 116.899 13.1465V0.0366487H112.4ZM27.6928 6.82628C22.8947 6.82628 19.005 10.4411 19.005 15.3978C19.005 20.4011 22.8947 23.9694 27.6928 23.9694C32.4911 23.9694 36.3808 20.4011 36.3808 15.3978C36.3808 10.6639 32.8901 6.82628 27.6928 6.82628ZM52.3219 6.82628C47.8448 6.82628 44.2155 10.6639 44.2155 15.3978C44.2155 20.1318 47.6034 23.9694 52.3219 23.9694C54.8184 23.9694 56.5337 22.8347 57.6352 21.2259V23.504H62.0564V7.3692H57.6352V9.5558C56.5553 7.97331 54.8595 6.82628 52.3219 6.82628ZM74.0801 6.82628C71.9675 6.82628 70.2686 7.51282 69.2318 9.46372V7.3692H64.8106V23.504H69.2318V15.359C69.2318 12.2563 71.6021 10.8599 74.0801 10.8599V6.82628ZM82.7686 6.82628C77.9706 6.82628 74.0801 10.4411 74.0801 15.3978C74.0801 20.4011 77.9706 23.9694 82.7686 23.9694C87.5666 23.9694 91.456 20.4011 91.456 15.3978C91.456 10.6639 87.9659 6.82628 82.7686 6.82628ZM8.84309 6.86477C2.24952 6.86477 0 11.928 0 17.6862V30.7957H4.49915V22.6096C5.88342 23.4767 7.4271 23.9658 8.84309 23.9658C13.5985 23.9658 17.4535 20.3787 17.4535 15.3978C17.4535 10.6852 13.994 6.86477 8.84309 6.86477ZM93.1631 7.3692V23.504H97.7394V7.3692H93.1631ZM53.0969 10.9375C54.61 10.9375 57.5582 12.2563 57.5582 15.3978C57.5582 17.9297 55.3861 19.8582 53.0969 19.8582C50.3982 19.8582 48.7147 17.9427 48.7147 15.3978C48.7147 13.0319 50.3438 10.9375 53.0969 10.9375ZM108.095 10.9745C110.306 10.9745 112.245 12.813 112.245 15.366C112.245 16.9763 111.132 19.7399 108.095 19.7399C105.617 19.7399 103.868 17.4928 103.868 15.366C103.868 12.932 105.853 10.9745 108.095 10.9745ZM27.6928 11.015C29.7872 11.015 31.8817 12.7992 31.8817 15.4365C31.8817 18.0175 29.7872 19.8581 27.6928 19.8581C25.5598 19.8581 23.504 18.0175 23.504 15.4365C23.504 12.8329 25.5209 11.015 27.6928 11.015ZM82.7686 11.015C84.8627 11.015 86.9568 12.7992 86.9568 15.4365C86.9568 18.0175 84.8627 19.8581 82.7686 19.8581C80.6355 19.8581 78.5793 18.0175 78.5793 15.4365C78.5793 12.8329 80.5965 11.015 82.7686 11.015ZM8.80429 11.0926C11.2823 11.0926 13.0319 13.3398 13.0319 15.4666C13.0319 17.9005 11.0463 19.8581 8.80429 19.8581C6.59357 19.8581 4.65426 18.0197 4.65426 15.4666C4.65426 13.8563 5.7668 11.0926 8.80429 11.0926Z" fill="#151011"/>
</g>
</svg>
